<?xml version="1.0" encoding="utf-8" standalone="no"?>
<!DOCTYPE svg PUBLIC "-//W3C//DTD SVG 1.1//EN"
  "http://www.w3.org/Graphics/SVG/1.1/DTD/svg11.dtd">
<svg xmlns:xlink="http://www.w3.org/1999/xlink" width="649.833125pt" height="344.074375pt" viewBox="0 0 649.833125 344.074375" xmlns="http://www.w3.org/2000/svg" version="1.1">
 <metadata>
  <rdf:RDF xmlns:dc="http://purl.org/dc/elements/1.1/" xmlns:cc="http://creativecommons.org/ns#" xmlns:rdf="http://www.w3.org/1999/02/22-rdf-syntax-ns#">
   <cc:Work>
    <dc:type rdf:resource="http://purl.org/dc/dcmitype/StillImage"/>
    <dc:date>2025-11-05T17:07:23.249490</dc:date>
    <dc:format>image/svg+xml</dc:format>
    <dc:creator>
     <cc:Agent>
      <dc:title>Matplotlib v3.10.0, https://matplotlib.org/</dc:title>
     </cc:Agent>
    </dc:creator>
   </cc:Work>
  </rdf:RDF>
 </metadata>
 <defs>
  <style type="text/css">*{stroke-linejoin: round; stroke-linecap: butt}</style>
 </defs>
 <g id="figure_1">
  <g id="patch_1">
   <path d="M 0 344.074375 
L 649.833125 344.074375 
L 649.833125 0 
L 0 0 
z
" style="fill: #ffffff"/>
  </g>
  <g id="axes_1">
   <g id="patch_2">
    <path d="M 53.328125 299.518125 
L 611.328125 299.518125 
L 611.328125 22.318125 
L 53.328125 22.318125 
z
" style="fill: #ffffff"/>
   </g>
   <g id="matplotlib.axis_1">
    <g id="xtick_1">
     <g id="line2d_1">
      <path d="M 217.088995 299.518125 
L 217.088995 22.318125 
" clip-path="url(#pd43f43cfb7)" style="fill: none; stroke: #b0b0b0; stroke-opacity: 0.15; stroke-width: 0.8; stroke-linecap: square"/>
     </g>
     <g id="line2d_2">
      <defs>
       <path id="ma0a92c608b" d="M 0 0 
L 0 8 
" style="stroke: #000000; stroke-width: 1.2"/>
      </defs>
      <g>
       <use xlink:href="#ma0a92c608b" x="217.088995" y="299.518125" style="stroke: #000000; stroke-width: 1.2"/>
      </g>
     </g>
     <g id="text_1">
      <!-- Wed Nov 05 -->
      <g transform="translate(186.888213 321.116563) scale(0.1 -0.1)">
       <defs>
        <path id="DejaVuSans-57" d="M 213 4666 
L 850 4666 
L 1831 722 
L 2809 4666 
L 3519 4666 
L 4500 722 
L 5478 4666 
L 6119 4666 
L 4947 0 
L 4153 0 
L 3169 4050 
L 2175 0 
L 1381 0 
L 213 4666 
z
" transform="scale(0.015625)"/>
        <path id="DejaVuSans-65" d="M 3597 1894 
L 3597 1613 
L 953 1613 
Q 991 1019 1311 708 
Q 1631 397 2203 397 
Q 2534 397 2845 478 
Q 3156 559 3463 722 
L 3463 178 
Q 3153 47 2828 -22 
Q 2503 -91 2169 -91 
Q 1331 -91 842 396 
Q 353 884 353 1716 
Q 353 2575 817 3079 
Q 1281 3584 2069 3584 
Q 2775 3584 3186 3129 
Q 3597 2675 3597 1894 
z
M 3022 2063 
Q 3016 2534 2758 2815 
Q 2500 3097 2075 3097 
Q 1594 3097 1305 2825 
Q 1016 2553 972 2059 
L 3022 2063 
z
" transform="scale(0.015625)"/>
        <path id="DejaVuSans-64" d="M 2906 2969 
L 2906 4863 
L 3481 4863 
L 3481 0 
L 2906 0 
L 2906 525 
Q 2725 213 2448 61 
Q 2172 -91 1784 -91 
Q 1150 -91 751 415 
Q 353 922 353 1747 
Q 353 2572 751 3078 
Q 1150 3584 1784 3584 
Q 2172 3584 2448 3432 
Q 2725 3281 2906 2969 
z
M 947 1747 
Q 947 1113 1208 752 
Q 1469 391 1925 391 
Q 2381 391 2643 752 
Q 2906 1113 2906 1747 
Q 2906 2381 2643 2742 
Q 2381 3103 1925 3103 
Q 1469 3103 1208 2742 
Q 947 2381 947 1747 
z
" transform="scale(0.015625)"/>
        <path id="DejaVuSans-20" transform="scale(0.015625)"/>
        <path id="DejaVuSans-4e" d="M 628 4666 
L 1478 4666 
L 3547 763 
L 3547 4666 
L 4159 4666 
L 4159 0 
L 3309 0 
L 1241 3903 
L 1241 0 
L 628 0 
L 628 4666 
z
" transform="scale(0.015625)"/>
        <path id="DejaVuSans-6f" d="M 1959 3097 
Q 1497 3097 1228 2736 
Q 959 2375 959 1747 
Q 959 1119 1226 758 
Q 1494 397 1959 397 
Q 2419 397 2687 759 
Q 2956 1122 2956 1747 
Q 2956 2369 2687 2733 
Q 2419 3097 1959 3097 
z
M 1959 3584 
Q 2709 3584 3137 3096 
Q 3566 2609 3566 1747 
Q 3566 888 3137 398 
Q 2709 -91 1959 -91 
Q 1206 -91 779 398 
Q 353 888 353 1747 
Q 353 2609 779 3096 
Q 1206 3584 1959 3584 
z
" transform="scale(0.015625)"/>
        <path id="DejaVuSans-76" d="M 191 3500 
L 800 3500 
L 1894 563 
L 2988 3500 
L 3597 3500 
L 2284 0 
L 1503 0 
L 191 3500 
z
" transform="scale(0.015625)"/>
        <path id="DejaVuSans-30" d="M 2034 4250 
Q 1547 4250 1301 3770 
Q 1056 3291 1056 2328 
Q 1056 1369 1301 889 
Q 1547 409 2034 409 
Q 2525 409 2770 889 
Q 3016 1369 3016 2328 
Q 3016 3291 2770 3770 
Q 2525 4250 2034 4250 
z
M 2034 4750 
Q 2819 4750 3233 4129 
Q 3647 3509 3647 2328 
Q 3647 1150 3233 529 
Q 2819 -91 2034 -91 
Q 1250 -91 836 529 
Q 422 1150 422 2328 
Q 422 3509 836 4129 
Q 1250 4750 2034 4750 
z
" transform="scale(0.015625)"/>
        <path id="DejaVuSans-35" d="M 691 4666 
L 3169 4666 
L 3169 4134 
L 1269 4134 
L 1269 2991 
Q 1406 3038 1543 3061 
Q 1681 3084 1819 3084 
Q 2600 3084 3056 2656 
Q 3513 2228 3513 1497 
Q 3513 744 3044 326 
Q 2575 -91 1722 -91 
Q 1428 -91 1123 -41 
Q 819 9 494 109 
L 494 744 
Q 775 591 1075 516 
Q 1375 441 1709 441 
Q 2250 441 2565 725 
Q 2881 1009 2881 1497 
Q 2881 1984 2565 2268 
Q 2250 2553 1709 2553 
Q 1456 2553 1204 2497 
Q 953 2441 691 2322 
L 691 4666 
z
" transform="scale(0.015625)"/>
       </defs>
       <use xlink:href="#DejaVuSans-57"/>
       <use xlink:href="#DejaVuSans-65" transform="translate(93.001953 0)"/>
       <use xlink:href="#DejaVuSans-64" transform="translate(154.525391 0)"/>
       <use xlink:href="#DejaVuSans-20" transform="translate(218.001953 0)"/>
       <use xlink:href="#DejaVuSans-4e" transform="translate(249.789062 0)"/>
       <use xlink:href="#DejaVuSans-6f" transform="translate(324.59375 0)"/>
       <use xlink:href="#DejaVuSans-76" transform="translate(385.775391 0)"/>
       <use xlink:href="#DejaVuSans-20" transform="translate(444.955078 0)"/>
       <use xlink:href="#DejaVuSans-30" transform="translate(476.742188 0)"/>
       <use xlink:href="#DejaVuSans-35" transform="translate(540.365234 0)"/>
      </g>
     </g>
    </g>
    <g id="xtick_2">
     <g id="line2d_3">
      <path d="M 71.523777 299.518125 
L 71.523777 22.318125 
" clip-path="url(#pd43f43cfb7)" style="fill: none; stroke: #b0b0b0; stroke-opacity: 0.08; stroke-width: 0.6; stroke-linecap: square"/>
     </g>
     <g id="line2d_4">
      <defs>
       <path id="mcaea05f069" d="M 0 0 
L 0 4 
" style="stroke: #000000; stroke-width: 0.8"/>
      </defs>
      <g>
       <use xlink:href="#mcaea05f069" x="71.523777" y="299.518125" style="stroke: #000000; stroke-width: 0.8"/>
      </g>
     </g>
     <g id="text_2">
      <!-- 18:00 -->
      <g transform="translate(58.55534 312.356719) scale(0.09 -0.09)">
       <defs>
        <path id="DejaVuSans-31" d="M 794 531 
L 1825 531 
L 1825 4091 
L 703 3866 
L 703 4441 
L 1819 4666 
L 2450 4666 
L 2450 531 
L 3481 531 
L 3481 0 
L 794 0 
L 794 531 
z
" transform="scale(0.015625)"/>
        <path id="DejaVuSans-38" d="M 2034 2216 
Q 1584 2216 1326 1975 
Q 1069 1734 1069 1313 
Q 1069 891 1326 650 
Q 1584 409 2034 409 
Q 2484 409 2743 651 
Q 3003 894 3003 1313 
Q 3003 1734 2745 1975 
Q 2488 2216 2034 2216 
z
M 1403 2484 
Q 997 2584 770 2862 
Q 544 3141 544 3541 
Q 544 4100 942 4425 
Q 1341 4750 2034 4750 
Q 2731 4750 3128 4425 
Q 3525 4100 3525 3541 
Q 3525 3141 3298 2862 
Q 3072 2584 2669 2484 
Q 3125 2378 3379 2068 
Q 3634 1759 3634 1313 
Q 3634 634 3220 271 
Q 2806 -91 2034 -91 
Q 1263 -91 848 271 
Q 434 634 434 1313 
Q 434 1759 690 2068 
Q 947 2378 1403 2484 
z
M 1172 3481 
Q 1172 3119 1398 2916 
Q 1625 2713 2034 2713 
Q 2441 2713 2670 2916 
Q 2900 3119 2900 3481 
Q 2900 3844 2670 4047 
Q 2441 4250 2034 4250 
Q 1625 4250 1398 4047 
Q 1172 3844 1172 3481 
z
" transform="scale(0.015625)"/>
        <path id="DejaVuSans-3a" d="M 750 794 
L 1409 794 
L 1409 0 
L 750 0 
L 750 794 
z
M 750 3309 
L 1409 3309 
L 1409 2516 
L 750 2516 
L 750 3309 
z
" transform="scale(0.015625)"/>
       </defs>
       <use xlink:href="#DejaVuSans-31"/>
       <use xlink:href="#DejaVuSans-38" transform="translate(63.623047 0)"/>
       <use xlink:href="#DejaVuSans-3a" transform="translate(127.246094 0)"/>
       <use xlink:href="#DejaVuSans-30" transform="translate(160.9375 0)"/>
       <use xlink:href="#DejaVuSans-30" transform="translate(224.560547 0)"/>
      </g>
     </g>
    </g>
    <g id="xtick_3">
     <g id="line2d_5">
      <path d="M 144.306386 299.518125 
L 144.306386 22.318125 
" clip-path="url(#pd43f43cfb7)" style="fill: none; stroke: #b0b0b0; stroke-opacity: 0.08; stroke-width: 0.6; stroke-linecap: square"/>
     </g>
     <g id="line2d_6">
      <g>
       <use xlink:href="#mcaea05f069" x="144.306386" y="299.518125" style="stroke: #000000; stroke-width: 0.8"/>
      </g>
     </g>
     <g id="text_3">
      <!-- 21:00 -->
      <g transform="translate(131.337948 312.356719) scale(0.09 -0.09)">
       <defs>
        <path id="DejaVuSans-32" d="M 1228 531 
L 3431 531 
L 3431 0 
L 469 0 
L 469 531 
Q 828 903 1448 1529 
Q 2069 2156 2228 2338 
Q 2531 2678 2651 2914 
Q 2772 3150 2772 3378 
Q 2772 3750 2511 3984 
Q 2250 4219 1831 4219 
Q 1534 4219 1204 4116 
Q 875 4013 500 3803 
L 500 4441 
Q 881 4594 1212 4672 
Q 1544 4750 1819 4750 
Q 2544 4750 2975 4387 
Q 3406 4025 3406 3419 
Q 3406 3131 3298 2873 
Q 3191 2616 2906 2266 
Q 2828 2175 2409 1742 
Q 1991 1309 1228 531 
z
" transform="scale(0.015625)"/>
       </defs>
       <use xlink:href="#DejaVuSans-32"/>
       <use xlink:href="#DejaVuSans-31" transform="translate(63.623047 0)"/>
       <use xlink:href="#DejaVuSans-3a" transform="translate(127.246094 0)"/>
       <use xlink:href="#DejaVuSans-30" transform="translate(160.9375 0)"/>
       <use xlink:href="#DejaVuSans-30" transform="translate(224.560547 0)"/>
      </g>
     </g>
    </g>
    <g id="xtick_4">
     <g id="line2d_7">
      <path d="M 289.871603 299.518125 
L 289.871603 22.318125 
" clip-path="url(#pd43f43cfb7)" style="fill: none; stroke: #b0b0b0; stroke-opacity: 0.08; stroke-width: 0.6; stroke-linecap: square"/>
     </g>
     <g id="line2d_8">
      <g>
       <use xlink:href="#mcaea05f069" x="289.871603" y="299.518125" style="stroke: #000000; stroke-width: 0.8"/>
      </g>
     </g>
     <g id="text_4">
      <!-- 03:00 -->
      <g transform="translate(276.903166 312.356719) scale(0.09 -0.09)">
       <defs>
        <path id="DejaVuSans-33" d="M 2597 2516 
Q 3050 2419 3304 2112 
Q 3559 1806 3559 1356 
Q 3559 666 3084 287 
Q 2609 -91 1734 -91 
Q 1441 -91 1130 -33 
Q 819 25 488 141 
L 488 750 
Q 750 597 1062 519 
Q 1375 441 1716 441 
Q 2309 441 2620 675 
Q 2931 909 2931 1356 
Q 2931 1769 2642 2001 
Q 2353 2234 1838 2234 
L 1294 2234 
L 1294 2753 
L 1863 2753 
Q 2328 2753 2575 2939 
Q 2822 3125 2822 3475 
Q 2822 3834 2567 4026 
Q 2313 4219 1838 4219 
Q 1578 4219 1281 4162 
Q 984 4106 628 3988 
L 628 4550 
Q 988 4650 1302 4700 
Q 1616 4750 1894 4750 
Q 2613 4750 3031 4423 
Q 3450 4097 3450 3541 
Q 3450 3153 3228 2886 
Q 3006 2619 2597 2516 
z
" transform="scale(0.015625)"/>
       </defs>
       <use xlink:href="#DejaVuSans-30"/>
       <use xlink:href="#DejaVuSans-33" transform="translate(63.623047 0)"/>
       <use xlink:href="#DejaVuSans-3a" transform="translate(127.246094 0)"/>
       <use xlink:href="#DejaVuSans-30" transform="translate(160.9375 0)"/>
       <use xlink:href="#DejaVuSans-30" transform="translate(224.560547 0)"/>
      </g>
     </g>
    </g>
    <g id="xtick_5">
     <g id="line2d_9">
      <path d="M 362.654212 299.518125 
L 362.654212 22.318125 
" clip-path="url(#pd43f43cfb7)" style="fill: none; stroke: #b0b0b0; stroke-opacity: 0.08; stroke-width: 0.6; stroke-linecap: square"/>
     </g>
     <g id="line2d_10">
      <g>
       <use xlink:href="#mcaea05f069" x="362.654212" y="299.518125" style="stroke: #000000; stroke-width: 0.8"/>
      </g>
     </g>
     <g id="text_5">
      <!-- 06:00 -->
      <g transform="translate(349.685774 312.356719) scale(0.09 -0.09)">
       <defs>
        <path id="DejaVuSans-36" d="M 2113 2584 
Q 1688 2584 1439 2293 
Q 1191 2003 1191 1497 
Q 1191 994 1439 701 
Q 1688 409 2113 409 
Q 2538 409 2786 701 
Q 3034 994 3034 1497 
Q 3034 2003 2786 2293 
Q 2538 2584 2113 2584 
z
M 3366 4563 
L 3366 3988 
Q 3128 4100 2886 4159 
Q 2644 4219 2406 4219 
Q 1781 4219 1451 3797 
Q 1122 3375 1075 2522 
Q 1259 2794 1537 2939 
Q 1816 3084 2150 3084 
Q 2853 3084 3261 2657 
Q 3669 2231 3669 1497 
Q 3669 778 3244 343 
Q 2819 -91 2113 -91 
Q 1303 -91 875 529 
Q 447 1150 447 2328 
Q 447 3434 972 4092 
Q 1497 4750 2381 4750 
Q 2619 4750 2861 4703 
Q 3103 4656 3366 4563 
z
" transform="scale(0.015625)"/>
       </defs>
       <use xlink:href="#DejaVuSans-30"/>
       <use xlink:href="#DejaVuSans-36" transform="translate(63.623047 0)"/>
       <use xlink:href="#DejaVuSans-3a" transform="translate(127.246094 0)"/>
       <use xlink:href="#DejaVuSans-30" transform="translate(160.9375 0)"/>
       <use xlink:href="#DejaVuSans-30" transform="translate(224.560547 0)"/>
      </g>
     </g>
    </g>
    <g id="xtick_6">
     <g id="line2d_11">
      <path d="M 435.436821 299.518125 
L 435.436821 22.318125 
" clip-path="url(#pd43f43cfb7)" style="fill: none; stroke: #b0b0b0; stroke-opacity: 0.08; stroke-width: 0.6; stroke-linecap: square"/>
     </g>
     <g id="line2d_12">
      <g>
       <use xlink:href="#mcaea05f069" x="435.436821" y="299.518125" style="stroke: #000000; stroke-width: 0.8"/>
      </g>
     </g>
     <g id="text_6">
      <!-- 09:00 -->
      <g transform="translate(422.468383 312.356719) scale(0.09 -0.09)">
       <defs>
        <path id="DejaVuSans-39" d="M 703 97 
L 703 672 
Q 941 559 1184 500 
Q 1428 441 1663 441 
Q 2288 441 2617 861 
Q 2947 1281 2994 2138 
Q 2813 1869 2534 1725 
Q 2256 1581 1919 1581 
Q 1219 1581 811 2004 
Q 403 2428 403 3163 
Q 403 3881 828 4315 
Q 1253 4750 1959 4750 
Q 2769 4750 3195 4129 
Q 3622 3509 3622 2328 
Q 3622 1225 3098 567 
Q 2575 -91 1691 -91 
Q 1453 -91 1209 -44 
Q 966 3 703 97 
z
M 1959 2075 
Q 2384 2075 2632 2365 
Q 2881 2656 2881 3163 
Q 2881 3666 2632 3958 
Q 2384 4250 1959 4250 
Q 1534 4250 1286 3958 
Q 1038 3666 1038 3163 
Q 1038 2656 1286 2365 
Q 1534 2075 1959 2075 
z
" transform="scale(0.015625)"/>
       </defs>
       <use xlink:href="#DejaVuSans-30"/>
       <use xlink:href="#DejaVuSans-39" transform="translate(63.623047 0)"/>
       <use xlink:href="#DejaVuSans-3a" transform="translate(127.246094 0)"/>
       <use xlink:href="#DejaVuSans-30" transform="translate(160.9375 0)"/>
       <use xlink:href="#DejaVuSans-30" transform="translate(224.560547 0)"/>
      </g>
     </g>
    </g>
    <g id="xtick_7">
     <g id="line2d_13">
      <path d="M 508.219429 299.518125 
L 508.219429 22.318125 
" clip-path="url(#pd43f43cfb7)" style="fill: none; stroke: #b0b0b0; stroke-opacity: 0.08; stroke-width: 0.6; stroke-linecap: square"/>
     </g>
     <g id="line2d_14">
      <g>
       <use xlink:href="#mcaea05f069" x="508.219429" y="299.518125" style="stroke: #000000; stroke-width: 0.8"/>
      </g>
     </g>
     <g id="text_7">
      <!-- 12:00 -->
      <g transform="translate(495.250992 312.356719) scale(0.09 -0.09)">
       <use xlink:href="#DejaVuSans-31"/>
       <use xlink:href="#DejaVuSans-32" transform="translate(63.623047 0)"/>
       <use xlink:href="#DejaVuSans-3a" transform="translate(127.246094 0)"/>
       <use xlink:href="#DejaVuSans-30" transform="translate(160.9375 0)"/>
       <use xlink:href="#DejaVuSans-30" transform="translate(224.560547 0)"/>
      </g>
     </g>
    </g>
    <g id="xtick_8">
     <g id="line2d_15">
      <path d="M 581.002038 299.518125 
L 581.002038 22.318125 
" clip-path="url(#pd43f43cfb7)" style="fill: none; stroke: #b0b0b0; stroke-opacity: 0.08; stroke-width: 0.6; stroke-linecap: square"/>
     </g>
     <g id="line2d_16">
      <g>
       <use xlink:href="#mcaea05f069" x="581.002038" y="299.518125" style="stroke: #000000; stroke-width: 0.8"/>
      </g>
     </g>
     <g id="text_8">
      <!-- 15:00 -->
      <g transform="translate(568.033601 312.356719) scale(0.09 -0.09)">
       <use xlink:href="#DejaVuSans-31"/>
       <use xlink:href="#DejaVuSans-35" transform="translate(63.623047 0)"/>
       <use xlink:href="#DejaVuSans-3a" transform="translate(127.246094 0)"/>
       <use xlink:href="#DejaVuSans-30" transform="translate(160.9375 0)"/>
       <use xlink:href="#DejaVuSans-30" transform="translate(224.560547 0)"/>
      </g>
     </g>
    </g>
    <g id="text_9">
     <!-- Local time -->
     <g transform="translate(306.482813 334.794688) scale(0.1 -0.1)">
      <defs>
       <path id="DejaVuSans-4c" d="M 628 4666 
L 1259 4666 
L 1259 531 
L 3531 531 
L 3531 0 
L 628 0 
L 628 4666 
z
" transform="scale(0.015625)"/>
       <path id="DejaVuSans-63" d="M 3122 3366 
L 3122 2828 
Q 2878 2963 2633 3030 
Q 2388 3097 2138 3097 
Q 1578 3097 1268 2742 
Q 959 2388 959 1747 
Q 959 1106 1268 751 
Q 1578 397 2138 397 
Q 2388 397 2633 464 
Q 2878 531 3122 666 
L 3122 134 
Q 2881 22 2623 -34 
Q 2366 -91 2075 -91 
Q 1284 -91 818 406 
Q 353 903 353 1747 
Q 353 2603 823 3093 
Q 1294 3584 2113 3584 
Q 2378 3584 2631 3529 
Q 2884 3475 3122 3366 
z
" transform="scale(0.015625)"/>
       <path id="DejaVuSans-61" d="M 2194 1759 
Q 1497 1759 1228 1600 
Q 959 1441 959 1056 
Q 959 750 1161 570 
Q 1363 391 1709 391 
Q 2188 391 2477 730 
Q 2766 1069 2766 1631 
L 2766 1759 
L 2194 1759 
z
M 3341 1997 
L 3341 0 
L 2766 0 
L 2766 531 
Q 2569 213 2275 61 
Q 1981 -91 1556 -91 
Q 1019 -91 701 211 
Q 384 513 384 1019 
Q 384 1609 779 1909 
Q 1175 2209 1959 2209 
L 2766 2209 
L 2766 2266 
Q 2766 2663 2505 2880 
Q 2244 3097 1772 3097 
Q 1472 3097 1187 3025 
Q 903 2953 641 2809 
L 641 3341 
Q 956 3463 1253 3523 
Q 1550 3584 1831 3584 
Q 2591 3584 2966 3190 
Q 3341 2797 3341 1997 
z
" transform="scale(0.015625)"/>
       <path id="DejaVuSans-6c" d="M 603 4863 
L 1178 4863 
L 1178 0 
L 603 0 
L 603 4863 
z
" transform="scale(0.015625)"/>
       <path id="DejaVuSans-74" d="M 1172 4494 
L 1172 3500 
L 2356 3500 
L 2356 3053 
L 1172 3053 
L 1172 1153 
Q 1172 725 1289 603 
Q 1406 481 1766 481 
L 2356 481 
L 2356 0 
L 1766 0 
Q 1100 0 847 248 
Q 594 497 594 1153 
L 594 3053 
L 172 3053 
L 172 3500 
L 594 3500 
L 594 4494 
L 1172 4494 
z
" transform="scale(0.015625)"/>
       <path id="DejaVuSans-69" d="M 603 3500 
L 1178 3500 
L 1178 0 
L 603 0 
L 603 3500 
z
M 603 4863 
L 1178 4863 
L 1178 4134 
L 603 4134 
L 603 4863 
z
" transform="scale(0.015625)"/>
       <path id="DejaVuSans-6d" d="M 3328 2828 
Q 3544 3216 3844 3400 
Q 4144 3584 4550 3584 
Q 5097 3584 5394 3201 
Q 5691 2819 5691 2113 
L 5691 0 
L 5113 0 
L 5113 2094 
Q 5113 2597 4934 2840 
Q 4756 3084 4391 3084 
Q 3944 3084 3684 2787 
Q 3425 2491 3425 1978 
L 3425 0 
L 2847 0 
L 2847 2094 
Q 2847 2600 2669 2842 
Q 2491 3084 2119 3084 
Q 1678 3084 1418 2786 
Q 1159 2488 1159 1978 
L 1159 0 
L 581 0 
L 581 3500 
L 1159 3500 
L 1159 2956 
Q 1356 3278 1631 3431 
Q 1906 3584 2284 3584 
Q 2666 3584 2933 3390 
Q 3200 3197 3328 2828 
z
" transform="scale(0.015625)"/>
      </defs>
      <use xlink:href="#DejaVuSans-4c"/>
      <use xlink:href="#DejaVuSans-6f" transform="translate(53.962891 0)"/>
      <use xlink:href="#DejaVuSans-63" transform="translate(115.144531 0)"/>
      <use xlink:href="#DejaVuSans-61" transform="translate(170.125 0)"/>
      <use xlink:href="#DejaVuSans-6c" transform="translate(231.404297 0)"/>
      <use xlink:href="#DejaVuSans-20" transform="translate(259.1875 0)"/>
      <use xlink:href="#DejaVuSans-74" transform="translate(290.974609 0)"/>
      <use xlink:href="#DejaVuSans-69" transform="translate(330.183594 0)"/>
      <use xlink:href="#DejaVuSans-6d" transform="translate(357.966797 0)"/>
      <use xlink:href="#DejaVuSans-65" transform="translate(455.378906 0)"/>
     </g>
    </g>
   </g>
   <g id="matplotlib.axis_2">
    <g id="ytick_1">
     <g id="line2d_17">
      <defs>
       <path id="mc424144724" d="M 0 0 
L -3.5 0 
" style="stroke: #000000; stroke-width: 0.8"/>
      </defs>
      <g>
       <use xlink:href="#mc424144724" x="53.328125" y="273.883642" style="stroke: #000000; stroke-width: 0.8"/>
      </g>
     </g>
     <g id="text_10">
      <!-- 800 -->
      <g transform="translate(27.240625 277.682861) scale(0.1 -0.1)">
       <use xlink:href="#DejaVuSans-38"/>
       <use xlink:href="#DejaVuSans-30" transform="translate(63.623047 0)"/>
       <use xlink:href="#DejaVuSans-30" transform="translate(127.246094 0)"/>
      </g>
     </g>
    </g>
    <g id="ytick_2">
     <g id="line2d_18">
      <g>
       <use xlink:href="#mc424144724" x="53.328125" y="219.573297" style="stroke: #000000; stroke-width: 0.8"/>
      </g>
     </g>
     <g id="text_11">
      <!-- 900 -->
      <g transform="translate(27.240625 223.372516) scale(0.1 -0.1)">
       <use xlink:href="#DejaVuSans-39"/>
       <use xlink:href="#DejaVuSans-30" transform="translate(63.623047 0)"/>
       <use xlink:href="#DejaVuSans-30" transform="translate(127.246094 0)"/>
      </g>
     </g>
    </g>
    <g id="ytick_3">
     <g id="line2d_19">
      <g>
       <use xlink:href="#mc424144724" x="53.328125" y="165.262953" style="stroke: #000000; stroke-width: 0.8"/>
      </g>
     </g>
     <g id="text_12">
      <!-- 1000 -->
      <g transform="translate(20.878125 169.062171) scale(0.1 -0.1)">
       <use xlink:href="#DejaVuSans-31"/>
       <use xlink:href="#DejaVuSans-30" transform="translate(63.623047 0)"/>
       <use xlink:href="#DejaVuSans-30" transform="translate(127.246094 0)"/>
       <use xlink:href="#DejaVuSans-30" transform="translate(190.869141 0)"/>
      </g>
     </g>
    </g>
    <g id="ytick_4">
     <g id="line2d_20">
      <g>
       <use xlink:href="#mc424144724" x="53.328125" y="110.952608" style="stroke: #000000; stroke-width: 0.8"/>
      </g>
     </g>
     <g id="text_13">
      <!-- 1100 -->
      <g transform="translate(20.878125 114.751827) scale(0.1 -0.1)">
       <use xlink:href="#DejaVuSans-31"/>
       <use xlink:href="#DejaVuSans-31" transform="translate(63.623047 0)"/>
       <use xlink:href="#DejaVuSans-30" transform="translate(127.246094 0)"/>
       <use xlink:href="#DejaVuSans-30" transform="translate(190.869141 0)"/>
      </g>
     </g>
    </g>
    <g id="ytick_5">
     <g id="line2d_21">
      <g>
       <use xlink:href="#mc424144724" x="53.328125" y="56.642263" style="stroke: #000000; stroke-width: 0.8"/>
      </g>
     </g>
     <g id="text_14">
      <!-- 1200 -->
      <g transform="translate(20.878125 60.441482) scale(0.1 -0.1)">
       <use xlink:href="#DejaVuSans-31"/>
       <use xlink:href="#DejaVuSans-32" transform="translate(63.623047 0)"/>
       <use xlink:href="#DejaVuSans-30" transform="translate(127.246094 0)"/>
       <use xlink:href="#DejaVuSans-30" transform="translate(190.869141 0)"/>
      </g>
     </g>
    </g>
    <g id="text_15">
     <!-- Discharge (cfs) -->
     <g transform="translate(14.798438 198.567344) rotate(-90) scale(0.1 -0.1)">
      <defs>
       <path id="DejaVuSans-44" d="M 1259 4147 
L 1259 519 
L 2022 519 
Q 2988 519 3436 956 
Q 3884 1394 3884 2338 
Q 3884 3275 3436 3711 
Q 2988 4147 2022 4147 
L 1259 4147 
z
M 628 4666 
L 1925 4666 
Q 3281 4666 3915 4102 
Q 4550 3538 4550 2338 
Q 4550 1131 3912 565 
Q 3275 0 1925 0 
L 628 0 
L 628 4666 
z
" transform="scale(0.015625)"/>
       <path id="DejaVuSans-73" d="M 2834 3397 
L 2834 2853 
Q 2591 2978 2328 3040 
Q 2066 3103 1784 3103 
Q 1356 3103 1142 2972 
Q 928 2841 928 2578 
Q 928 2378 1081 2264 
Q 1234 2150 1697 2047 
L 1894 2003 
Q 2506 1872 2764 1633 
Q 3022 1394 3022 966 
Q 3022 478 2636 193 
Q 2250 -91 1575 -91 
Q 1294 -91 989 -36 
Q 684 19 347 128 
L 347 722 
Q 666 556 975 473 
Q 1284 391 1588 391 
Q 1994 391 2212 530 
Q 2431 669 2431 922 
Q 2431 1156 2273 1281 
Q 2116 1406 1581 1522 
L 1381 1569 
Q 847 1681 609 1914 
Q 372 2147 372 2553 
Q 372 3047 722 3315 
Q 1072 3584 1716 3584 
Q 2034 3584 2315 3537 
Q 2597 3491 2834 3397 
z
" transform="scale(0.015625)"/>
       <path id="DejaVuSans-68" d="M 3513 2113 
L 3513 0 
L 2938 0 
L 2938 2094 
Q 2938 2591 2744 2837 
Q 2550 3084 2163 3084 
Q 1697 3084 1428 2787 
Q 1159 2491 1159 1978 
L 1159 0 
L 581 0 
L 581 4863 
L 1159 4863 
L 1159 2956 
Q 1366 3272 1645 3428 
Q 1925 3584 2291 3584 
Q 2894 3584 3203 3211 
Q 3513 2838 3513 2113 
z
" transform="scale(0.015625)"/>
       <path id="DejaVuSans-72" d="M 2631 2963 
Q 2534 3019 2420 3045 
Q 2306 3072 2169 3072 
Q 1681 3072 1420 2755 
Q 1159 2438 1159 1844 
L 1159 0 
L 581 0 
L 581 3500 
L 1159 3500 
L 1159 2956 
Q 1341 3275 1631 3429 
Q 1922 3584 2338 3584 
Q 2397 3584 2469 3576 
Q 2541 3569 2628 3553 
L 2631 2963 
z
" transform="scale(0.015625)"/>
       <path id="DejaVuSans-67" d="M 2906 1791 
Q 2906 2416 2648 2759 
Q 2391 3103 1925 3103 
Q 1463 3103 1205 2759 
Q 947 2416 947 1791 
Q 947 1169 1205 825 
Q 1463 481 1925 481 
Q 2391 481 2648 825 
Q 2906 1169 2906 1791 
z
M 3481 434 
Q 3481 -459 3084 -895 
Q 2688 -1331 1869 -1331 
Q 1566 -1331 1297 -1286 
Q 1028 -1241 775 -1147 
L 775 -588 
Q 1028 -725 1275 -790 
Q 1522 -856 1778 -856 
Q 2344 -856 2625 -561 
Q 2906 -266 2906 331 
L 2906 616 
Q 2728 306 2450 153 
Q 2172 0 1784 0 
Q 1141 0 747 490 
Q 353 981 353 1791 
Q 353 2603 747 3093 
Q 1141 3584 1784 3584 
Q 2172 3584 2450 3431 
Q 2728 3278 2906 2969 
L 2906 3500 
L 3481 3500 
L 3481 434 
z
" transform="scale(0.015625)"/>
       <path id="DejaVuSans-28" d="M 1984 4856 
Q 1566 4138 1362 3434 
Q 1159 2731 1159 2009 
Q 1159 1288 1364 580 
Q 1569 -128 1984 -844 
L 1484 -844 
Q 1016 -109 783 600 
Q 550 1309 550 2009 
Q 550 2706 781 3412 
Q 1013 4119 1484 4856 
L 1984 4856 
z
" transform="scale(0.015625)"/>
       <path id="DejaVuSans-66" d="M 2375 4863 
L 2375 4384 
L 1825 4384 
Q 1516 4384 1395 4259 
Q 1275 4134 1275 3809 
L 1275 3500 
L 2222 3500 
L 2222 3053 
L 1275 3053 
L 1275 0 
L 697 0 
L 697 3053 
L 147 3053 
L 147 3500 
L 697 3500 
L 697 3744 
Q 697 4328 969 4595 
Q 1241 4863 1831 4863 
L 2375 4863 
z
" transform="scale(0.015625)"/>
       <path id="DejaVuSans-29" d="M 513 4856 
L 1013 4856 
Q 1481 4119 1714 3412 
Q 1947 2706 1947 2009 
Q 1947 1309 1714 600 
Q 1481 -109 1013 -844 
L 513 -844 
Q 928 -128 1133 580 
Q 1338 1288 1338 2009 
Q 1338 2731 1133 3434 
Q 928 4138 513 4856 
z
" transform="scale(0.015625)"/>
      </defs>
      <use xlink:href="#DejaVuSans-44"/>
      <use xlink:href="#DejaVuSans-69" transform="translate(77.001953 0)"/>
      <use xlink:href="#DejaVuSans-73" transform="translate(104.785156 0)"/>
      <use xlink:href="#DejaVuSans-63" transform="translate(156.884766 0)"/>
      <use xlink:href="#DejaVuSans-68" transform="translate(211.865234 0)"/>
      <use xlink:href="#DejaVuSans-61" transform="translate(275.244141 0)"/>
      <use xlink:href="#DejaVuSans-72" transform="translate(336.523438 0)"/>
      <use xlink:href="#DejaVuSans-67" transform="translate(375.886719 0)"/>
      <use xlink:href="#DejaVuSans-65" transform="translate(439.363281 0)"/>
      <use xlink:href="#DejaVuSans-20" transform="translate(500.886719 0)"/>
      <use xlink:href="#DejaVuSans-28" transform="translate(532.673828 0)"/>
      <use xlink:href="#DejaVuSans-63" transform="translate(571.6875 0)"/>
      <use xlink:href="#DejaVuSans-66" transform="translate(626.667969 0)"/>
      <use xlink:href="#DejaVuSans-73" transform="translate(661.873047 0)"/>
      <use xlink:href="#DejaVuSans-29" transform="translate(713.972656 0)"/>
     </g>
    </g>
   </g>
   <g id="line2d_22">
    <path d="M 53.328125 267.366401 
L 59.393342 267.366401 
L 65.45856 270.625022 
L 71.523777 272.797435 
L 77.588995 272.797435 
L 83.654212 274.426746 
L 89.719429 278.22847 
L 95.784647 278.22847 
L 101.849864 278.22847 
L 107.915082 279.85778 
L 113.980299 281.487091 
L 120.045516 281.487091 
L 126.110734 283.659504 
L 132.175951 285.288815 
L 138.241168 285.288815 
L 144.306386 286.918125 
L 150.371603 286.918125 
L 156.436821 286.918125 
L 162.502038 286.918125 
L 168.567255 286.918125 
L 174.632473 286.918125 
L 180.69769 286.918125 
L 186.762908 285.288815 
L 192.828125 285.288815 
L 198.893342 285.288815 
L 204.95856 285.288815 
L 211.023777 285.288815 
L 217.088995 283.659504 
L 223.154212 285.288815 
L 229.219429 285.288815 
L 235.284647 283.659504 
L 241.349864 283.659504 
L 247.415082 281.487091 
L 253.480299 279.85778 
L 259.545516 278.22847 
L 265.610734 276.056056 
L 271.675951 274.426746 
L 277.741168 272.797435 
L 283.806386 270.625022 
L 289.871603 268.995711 
L 295.936821 265.193987 
L 302.002038 261.392263 
L 308.067255 255.418125 
L 314.132473 252.159504 
L 320.19769 246.185366 
L 326.262908 242.926746 
L 332.328125 235.866401 
L 338.393342 229.349159 
L 344.45856 222.831918 
L 350.523777 212.512953 
L 356.588995 202.193987 
L 362.654212 196.219849 
L 368.719429 186.987091 
L 374.784647 180.469849 
L 380.849864 173.952608 
L 386.915082 167.435366 
L 392.980299 165.262953 
L 399.045516 159.831918 
L 405.110734 148.969849 
L 411.175951 148.969849 
L 417.241168 143.538815 
L 423.306386 138.10778 
L 429.371603 132.676746 
L 435.436821 132.676746 
L 441.502038 132.676746 
L 447.567255 132.676746 
L 453.632473 127.245711 
L 459.69769 127.245711 
L 465.762908 127.245711 
L 471.828125 121.814677 
L 477.893342 116.383642 
L 483.95856 121.814677 
L 490.023777 116.383642 
L 496.088995 110.952608 
L 502.154212 110.952608 
L 508.219429 105.521573 
L 514.284647 100.090539 
L 520.349864 100.090539 
L 526.415082 100.090539 
L 532.480299 94.659504 
L 538.545516 89.22847 
L 544.610734 89.22847 
L 550.675951 83.797435 
L 556.741168 78.366401 
L 562.806386 72.935366 
L 568.871603 67.504332 
L 574.936821 62.073297 
L 581.002038 56.642263 
L 587.067255 51.211228 
L 593.132473 45.780194 
L 599.19769 45.780194 
L 605.262908 40.349159 
L 611.328125 34.918125 
" clip-path="url(#pd43f43cfb7)" style="fill: none; stroke: #1f77b4; stroke-width: 1.5; stroke-linecap: square"/>
    <defs>
     <path id="m7653f4868c" d="M 0 3 
C 0.795609 3 1.55874 2.683901 2.12132 2.12132 
C 2.683901 1.55874 3 0.795609 3 0 
C 3 -0.795609 2.683901 -1.55874 2.12132 -2.12132 
C 1.55874 -2.683901 0.795609 -3 0 -3 
C -0.795609 -3 -1.55874 -2.683901 -2.12132 -2.12132 
C -2.683901 -1.55874 -3 -0.795609 -3 0 
C -3 0.795609 -2.683901 1.55874 -2.12132 2.12132 
C -1.55874 2.683901 -0.795609 3 0 3 
z
" style="stroke: #1f77b4"/>
    </defs>
    <g clip-path="url(#pd43f43cfb7)">
     <use xlink:href="#m7653f4868c" x="53.328125" y="267.366401" style="fill: #1f77b4; stroke: #1f77b4"/>
     <use xlink:href="#m7653f4868c" x="59.393342" y="267.366401" style="fill: #1f77b4; stroke: #1f77b4"/>
     <use xlink:href="#m7653f4868c" x="65.45856" y="270.625022" style="fill: #1f77b4; stroke: #1f77b4"/>
     <use xlink:href="#m7653f4868c" x="71.523777" y="272.797435" style="fill: #1f77b4; stroke: #1f77b4"/>
     <use xlink:href="#m7653f4868c" x="77.588995" y="272.797435" style="fill: #1f77b4; stroke: #1f77b4"/>
     <use xlink:href="#m7653f4868c" x="83.654212" y="274.426746" style="fill: #1f77b4; stroke: #1f77b4"/>
     <use xlink:href="#m7653f4868c" x="89.719429" y="278.22847" style="fill: #1f77b4; stroke: #1f77b4"/>
     <use xlink:href="#m7653f4868c" x="95.784647" y="278.22847" style="fill: #1f77b4; stroke: #1f77b4"/>
     <use xlink:href="#m7653f4868c" x="101.849864" y="278.22847" style="fill: #1f77b4; stroke: #1f77b4"/>
     <use xlink:href="#m7653f4868c" x="107.915082" y="279.85778" style="fill: #1f77b4; stroke: #1f77b4"/>
     <use xlink:href="#m7653f4868c" x="113.980299" y="281.487091" style="fill: #1f77b4; stroke: #1f77b4"/>
     <use xlink:href="#m7653f4868c" x="120.045516" y="281.487091" style="fill: #1f77b4; stroke: #1f77b4"/>
     <use xlink:href="#m7653f4868c" x="126.110734" y="283.659504" style="fill: #1f77b4; stroke: #1f77b4"/>
     <use xlink:href="#m7653f4868c" x="132.175951" y="285.288815" style="fill: #1f77b4; stroke: #1f77b4"/>
     <use xlink:href="#m7653f4868c" x="138.241168" y="285.288815" style="fill: #1f77b4; stroke: #1f77b4"/>
     <use xlink:href="#m7653f4868c" x="144.306386" y="286.918125" style="fill: #1f77b4; stroke: #1f77b4"/>
     <use xlink:href="#m7653f4868c" x="150.371603" y="286.918125" style="fill: #1f77b4; stroke: #1f77b4"/>
     <use xlink:href="#m7653f4868c" x="156.436821" y="286.918125" style="fill: #1f77b4; stroke: #1f77b4"/>
     <use xlink:href="#m7653f4868c" x="162.502038" y="286.918125" style="fill: #1f77b4; stroke: #1f77b4"/>
     <use xlink:href="#m7653f4868c" x="168.567255" y="286.918125" style="fill: #1f77b4; stroke: #1f77b4"/>
     <use xlink:href="#m7653f4868c" x="174.632473" y="286.918125" style="fill: #1f77b4; stroke: #1f77b4"/>
     <use xlink:href="#m7653f4868c" x="180.69769" y="286.918125" style="fill: #1f77b4; stroke: #1f77b4"/>
     <use xlink:href="#m7653f4868c" x="186.762908" y="285.288815" style="fill: #1f77b4; stroke: #1f77b4"/>
     <use xlink:href="#m7653f4868c" x="192.828125" y="285.288815" style="fill: #1f77b4; stroke: #1f77b4"/>
     <use xlink:href="#m7653f4868c" x="198.893342" y="285.288815" style="fill: #1f77b4; stroke: #1f77b4"/>
     <use xlink:href="#m7653f4868c" x="204.95856" y="285.288815" style="fill: #1f77b4; stroke: #1f77b4"/>
     <use xlink:href="#m7653f4868c" x="211.023777" y="285.288815" style="fill: #1f77b4; stroke: #1f77b4"/>
     <use xlink:href="#m7653f4868c" x="217.088995" y="283.659504" style="fill: #1f77b4; stroke: #1f77b4"/>
     <use xlink:href="#m7653f4868c" x="223.154212" y="285.288815" style="fill: #1f77b4; stroke: #1f77b4"/>
     <use xlink:href="#m7653f4868c" x="229.219429" y="285.288815" style="fill: #1f77b4; stroke: #1f77b4"/>
     <use xlink:href="#m7653f4868c" x="235.284647" y="283.659504" style="fill: #1f77b4; stroke: #1f77b4"/>
     <use xlink:href="#m7653f4868c" x="241.349864" y="283.659504" style="fill: #1f77b4; stroke: #1f77b4"/>
     <use xlink:href="#m7653f4868c" x="247.415082" y="281.487091" style="fill: #1f77b4; stroke: #1f77b4"/>
     <use xlink:href="#m7653f4868c" x="253.480299" y="279.85778" style="fill: #1f77b4; stroke: #1f77b4"/>
     <use xlink:href="#m7653f4868c" x="259.545516" y="278.22847" style="fill: #1f77b4; stroke: #1f77b4"/>
     <use xlink:href="#m7653f4868c" x="265.610734" y="276.056056" style="fill: #1f77b4; stroke: #1f77b4"/>
     <use xlink:href="#m7653f4868c" x="271.675951" y="274.426746" style="fill: #1f77b4; stroke: #1f77b4"/>
     <use xlink:href="#m7653f4868c" x="277.741168" y="272.797435" style="fill: #1f77b4; stroke: #1f77b4"/>
     <use xlink:href="#m7653f4868c" x="283.806386" y="270.625022" style="fill: #1f77b4; stroke: #1f77b4"/>
     <use xlink:href="#m7653f4868c" x="289.871603" y="268.995711" style="fill: #1f77b4; stroke: #1f77b4"/>
     <use xlink:href="#m7653f4868c" x="295.936821" y="265.193987" style="fill: #1f77b4; stroke: #1f77b4"/>
     <use xlink:href="#m7653f4868c" x="302.002038" y="261.392263" style="fill: #1f77b4; stroke: #1f77b4"/>
     <use xlink:href="#m7653f4868c" x="308.067255" y="255.418125" style="fill: #1f77b4; stroke: #1f77b4"/>
     <use xlink:href="#m7653f4868c" x="314.132473" y="252.159504" style="fill: #1f77b4; stroke: #1f77b4"/>
     <use xlink:href="#m7653f4868c" x="320.19769" y="246.185366" style="fill: #1f77b4; stroke: #1f77b4"/>
     <use xlink:href="#m7653f4868c" x="326.262908" y="242.926746" style="fill: #1f77b4; stroke: #1f77b4"/>
     <use xlink:href="#m7653f4868c" x="332.328125" y="235.866401" style="fill: #1f77b4; stroke: #1f77b4"/>
     <use xlink:href="#m7653f4868c" x="338.393342" y="229.349159" style="fill: #1f77b4; stroke: #1f77b4"/>
     <use xlink:href="#m7653f4868c" x="344.45856" y="222.831918" style="fill: #1f77b4; stroke: #1f77b4"/>
     <use xlink:href="#m7653f4868c" x="350.523777" y="212.512953" style="fill: #1f77b4; stroke: #1f77b4"/>
     <use xlink:href="#m7653f4868c" x="356.588995" y="202.193987" style="fill: #1f77b4; stroke: #1f77b4"/>
     <use xlink:href="#m7653f4868c" x="362.654212" y="196.219849" style="fill: #1f77b4; stroke: #1f77b4"/>
     <use xlink:href="#m7653f4868c" x="368.719429" y="186.987091" style="fill: #1f77b4; stroke: #1f77b4"/>
     <use xlink:href="#m7653f4868c" x="374.784647" y="180.469849" style="fill: #1f77b4; stroke: #1f77b4"/>
     <use xlink:href="#m7653f4868c" x="380.849864" y="173.952608" style="fill: #1f77b4; stroke: #1f77b4"/>
     <use xlink:href="#m7653f4868c" x="386.915082" y="167.435366" style="fill: #1f77b4; stroke: #1f77b4"/>
     <use xlink:href="#m7653f4868c" x="392.980299" y="165.262953" style="fill: #1f77b4; stroke: #1f77b4"/>
     <use xlink:href="#m7653f4868c" x="399.045516" y="159.831918" style="fill: #1f77b4; stroke: #1f77b4"/>
     <use xlink:href="#m7653f4868c" x="405.110734" y="148.969849" style="fill: #1f77b4; stroke: #1f77b4"/>
     <use xlink:href="#m7653f4868c" x="411.175951" y="148.969849" style="fill: #1f77b4; stroke: #1f77b4"/>
     <use xlink:href="#m7653f4868c" x="417.241168" y="143.538815" style="fill: #1f77b4; stroke: #1f77b4"/>
     <use xlink:href="#m7653f4868c" x="423.306386" y="138.10778" style="fill: #1f77b4; stroke: #1f77b4"/>
     <use xlink:href="#m7653f4868c" x="429.371603" y="132.676746" style="fill: #1f77b4; stroke: #1f77b4"/>
     <use xlink:href="#m7653f4868c" x="435.436821" y="132.676746" style="fill: #1f77b4; stroke: #1f77b4"/>
     <use xlink:href="#m7653f4868c" x="441.502038" y="132.676746" style="fill: #1f77b4; stroke: #1f77b4"/>
     <use xlink:href="#m7653f4868c" x="447.567255" y="132.676746" style="fill: #1f77b4; stroke: #1f77b4"/>
     <use xlink:href="#m7653f4868c" x="453.632473" y="127.245711" style="fill: #1f77b4; stroke: #1f77b4"/>
     <use xlink:href="#m7653f4868c" x="459.69769" y="127.245711" style="fill: #1f77b4; stroke: #1f77b4"/>
     <use xlink:href="#m7653f4868c" x="465.762908" y="127.245711" style="fill: #1f77b4; stroke: #1f77b4"/>
     <use xlink:href="#m7653f4868c" x="471.828125" y="121.814677" style="fill: #1f77b4; stroke: #1f77b4"/>
     <use xlink:href="#m7653f4868c" x="477.893342" y="116.383642" style="fill: #1f77b4; stroke: #1f77b4"/>
     <use xlink:href="#m7653f4868c" x="483.95856" y="121.814677" style="fill: #1f77b4; stroke: #1f77b4"/>
     <use xlink:href="#m7653f4868c" x="490.023777" y="116.383642" style="fill: #1f77b4; stroke: #1f77b4"/>
     <use xlink:href="#m7653f4868c" x="496.088995" y="110.952608" style="fill: #1f77b4; stroke: #1f77b4"/>
     <use xlink:href="#m7653f4868c" x="502.154212" y="110.952608" style="fill: #1f77b4; stroke: #1f77b4"/>
     <use xlink:href="#m7653f4868c" x="508.219429" y="105.521573" style="fill: #1f77b4; stroke: #1f77b4"/>
     <use xlink:href="#m7653f4868c" x="514.284647" y="100.090539" style="fill: #1f77b4; stroke: #1f77b4"/>
     <use xlink:href="#m7653f4868c" x="520.349864" y="100.090539" style="fill: #1f77b4; stroke: #1f77b4"/>
     <use xlink:href="#m7653f4868c" x="526.415082" y="100.090539" style="fill: #1f77b4; stroke: #1f77b4"/>
     <use xlink:href="#m7653f4868c" x="532.480299" y="94.659504" style="fill: #1f77b4; stroke: #1f77b4"/>
     <use xlink:href="#m7653f4868c" x="538.545516" y="89.22847" style="fill: #1f77b4; stroke: #1f77b4"/>
     <use xlink:href="#m7653f4868c" x="544.610734" y="89.22847" style="fill: #1f77b4; stroke: #1f77b4"/>
     <use xlink:href="#m7653f4868c" x="550.675951" y="83.797435" style="fill: #1f77b4; stroke: #1f77b4"/>
     <use xlink:href="#m7653f4868c" x="556.741168" y="78.366401" style="fill: #1f77b4; stroke: #1f77b4"/>
     <use xlink:href="#m7653f4868c" x="562.806386" y="72.935366" style="fill: #1f77b4; stroke: #1f77b4"/>
     <use xlink:href="#m7653f4868c" x="568.871603" y="67.504332" style="fill: #1f77b4; stroke: #1f77b4"/>
     <use xlink:href="#m7653f4868c" x="574.936821" y="62.073297" style="fill: #1f77b4; stroke: #1f77b4"/>
     <use xlink:href="#m7653f4868c" x="581.002038" y="56.642263" style="fill: #1f77b4; stroke: #1f77b4"/>
     <use xlink:href="#m7653f4868c" x="587.067255" y="51.211228" style="fill: #1f77b4; stroke: #1f77b4"/>
     <use xlink:href="#m7653f4868c" x="593.132473" y="45.780194" style="fill: #1f77b4; stroke: #1f77b4"/>
     <use xlink:href="#m7653f4868c" x="599.19769" y="45.780194" style="fill: #1f77b4; stroke: #1f77b4"/>
     <use xlink:href="#m7653f4868c" x="605.262908" y="40.349159" style="fill: #1f77b4; stroke: #1f77b4"/>
     <use xlink:href="#m7653f4868c" x="611.328125" y="34.918125" style="fill: #1f77b4; stroke: #1f77b4"/>
    </g>
   </g>
   <g id="patch_3">
    <path d="M 53.328125 299.518125 
L 53.328125 22.318125 
" style="fill: none; stroke: #000000; stroke-width: 0.8; stroke-linejoin: miter; stroke-linecap: square"/>
   </g>
   <g id="patch_4">
    <path d="M 611.328125 299.518125 
L 611.328125 22.318125 
" style="fill: none; stroke: #000000; stroke-width: 0.8; stroke-linejoin: miter; stroke-linecap: square"/>
   </g>
   <g id="patch_5">
    <path d="M 53.328125 299.518125 
L 611.328125 299.518125 
" style="fill: none; stroke: #000000; stroke-width: 0.8; stroke-linejoin: miter; stroke-linecap: square"/>
   </g>
   <g id="patch_6">
    <path d="M 53.328125 22.318125 
L 611.328125 22.318125 
" style="fill: none; stroke: #000000; stroke-width: 0.8; stroke-linejoin: miter; stroke-linecap: square"/>
   </g>
   <g id="text_16">
    <!-- Wind_River_at_Carson_WA USGS Streamflow at Wind River at Carson, WA (Site 14128500) — local time -->
    <g transform="translate(22.023125 16.318125) scale(0.12 -0.12)">
     <defs>
      <path id="DejaVuSans-6e" d="M 3513 2113 
L 3513 0 
L 2938 0 
L 2938 2094 
Q 2938 2591 2744 2837 
Q 2550 3084 2163 3084 
Q 1697 3084 1428 2787 
Q 1159 2491 1159 1978 
L 1159 0 
L 581 0 
L 581 3500 
L 1159 3500 
L 1159 2956 
Q 1366 3272 1645 3428 
Q 1925 3584 2291 3584 
Q 2894 3584 3203 3211 
Q 3513 2838 3513 2113 
z
" transform="scale(0.015625)"/>
      <path id="DejaVuSans-5f" d="M 3263 -1063 
L 3263 -1509 
L -63 -1509 
L -63 -1063 
L 3263 -1063 
z
" transform="scale(0.015625)"/>
      <path id="DejaVuSans-52" d="M 2841 2188 
Q 3044 2119 3236 1894 
Q 3428 1669 3622 1275 
L 4263 0 
L 3584 0 
L 2988 1197 
Q 2756 1666 2539 1819 
Q 2322 1972 1947 1972 
L 1259 1972 
L 1259 0 
L 628 0 
L 628 4666 
L 2053 4666 
Q 2853 4666 3247 4331 
Q 3641 3997 3641 3322 
Q 3641 2881 3436 2590 
Q 3231 2300 2841 2188 
z
M 1259 4147 
L 1259 2491 
L 2053 2491 
Q 2509 2491 2742 2702 
Q 2975 2913 2975 3322 
Q 2975 3731 2742 3939 
Q 2509 4147 2053 4147 
L 1259 4147 
z
" transform="scale(0.015625)"/>
      <path id="DejaVuSans-43" d="M 4122 4306 
L 4122 3641 
Q 3803 3938 3442 4084 
Q 3081 4231 2675 4231 
Q 1875 4231 1450 3742 
Q 1025 3253 1025 2328 
Q 1025 1406 1450 917 
Q 1875 428 2675 428 
Q 3081 428 3442 575 
Q 3803 722 4122 1019 
L 4122 359 
Q 3791 134 3420 21 
Q 3050 -91 2638 -91 
Q 1578 -91 968 557 
Q 359 1206 359 2328 
Q 359 3453 968 4101 
Q 1578 4750 2638 4750 
Q 3056 4750 3426 4639 
Q 3797 4528 4122 4306 
z
" transform="scale(0.015625)"/>
      <path id="DejaVuSans-41" d="M 2188 4044 
L 1331 1722 
L 3047 1722 
L 2188 4044 
z
M 1831 4666 
L 2547 4666 
L 4325 0 
L 3669 0 
L 3244 1197 
L 1141 1197 
L 716 0 
L 50 0 
L 1831 4666 
z
" transform="scale(0.015625)"/>
      <path id="DejaVuSans-55" d="M 556 4666 
L 1191 4666 
L 1191 1831 
Q 1191 1081 1462 751 
Q 1734 422 2344 422 
Q 2950 422 3222 751 
Q 3494 1081 3494 1831 
L 3494 4666 
L 4128 4666 
L 4128 1753 
Q 4128 841 3676 375 
Q 3225 -91 2344 -91 
Q 1459 -91 1007 375 
Q 556 841 556 1753 
L 556 4666 
z
" transform="scale(0.015625)"/>
      <path id="DejaVuSans-53" d="M 3425 4513 
L 3425 3897 
Q 3066 4069 2747 4153 
Q 2428 4238 2131 4238 
Q 1616 4238 1336 4038 
Q 1056 3838 1056 3469 
Q 1056 3159 1242 3001 
Q 1428 2844 1947 2747 
L 2328 2669 
Q 3034 2534 3370 2195 
Q 3706 1856 3706 1288 
Q 3706 609 3251 259 
Q 2797 -91 1919 -91 
Q 1588 -91 1214 -16 
Q 841 59 441 206 
L 441 856 
Q 825 641 1194 531 
Q 1563 422 1919 422 
Q 2459 422 2753 634 
Q 3047 847 3047 1241 
Q 3047 1584 2836 1778 
Q 2625 1972 2144 2069 
L 1759 2144 
Q 1053 2284 737 2584 
Q 422 2884 422 3419 
Q 422 4038 858 4394 
Q 1294 4750 2059 4750 
Q 2388 4750 2728 4690 
Q 3069 4631 3425 4513 
z
" transform="scale(0.015625)"/>
      <path id="DejaVuSans-47" d="M 3809 666 
L 3809 1919 
L 2778 1919 
L 2778 2438 
L 4434 2438 
L 4434 434 
Q 4069 175 3628 42 
Q 3188 -91 2688 -91 
Q 1594 -91 976 548 
Q 359 1188 359 2328 
Q 359 3472 976 4111 
Q 1594 4750 2688 4750 
Q 3144 4750 3555 4637 
Q 3966 4525 4313 4306 
L 4313 3634 
Q 3963 3931 3569 4081 
Q 3175 4231 2741 4231 
Q 1884 4231 1454 3753 
Q 1025 3275 1025 2328 
Q 1025 1384 1454 906 
Q 1884 428 2741 428 
Q 3075 428 3337 486 
Q 3600 544 3809 666 
z
" transform="scale(0.015625)"/>
      <path id="DejaVuSans-77" d="M 269 3500 
L 844 3500 
L 1563 769 
L 2278 3500 
L 2956 3500 
L 3675 769 
L 4391 3500 
L 4966 3500 
L 4050 0 
L 3372 0 
L 2619 2869 
L 1863 0 
L 1184 0 
L 269 3500 
z
" transform="scale(0.015625)"/>
      <path id="DejaVuSans-2c" d="M 750 794 
L 1409 794 
L 1409 256 
L 897 -744 
L 494 -744 
L 750 256 
L 750 794 
z
" transform="scale(0.015625)"/>
      <path id="DejaVuSans-34" d="M 2419 4116 
L 825 1625 
L 2419 1625 
L 2419 4116 
z
M 2253 4666 
L 3047 4666 
L 3047 1625 
L 3713 1625 
L 3713 1100 
L 3047 1100 
L 3047 0 
L 2419 0 
L 2419 1100 
L 313 1100 
L 313 1709 
L 2253 4666 
z
" transform="scale(0.015625)"/>
      <path id="DejaVuSans-2014" d="M 313 1978 
L 6088 1978 
L 6088 1528 
L 313 1528 
L 313 1978 
z
" transform="scale(0.015625)"/>
     </defs>
     <use xlink:href="#DejaVuSans-57"/>
     <use xlink:href="#DejaVuSans-69" transform="translate(96.626953 0)"/>
     <use xlink:href="#DejaVuSans-6e" transform="translate(124.410156 0)"/>
     <use xlink:href="#DejaVuSans-64" transform="translate(187.789062 0)"/>
     <use xlink:href="#DejaVuSans-5f" transform="translate(251.265625 0)"/>
     <use xlink:href="#DejaVuSans-52" transform="translate(301.265625 0)"/>
     <use xlink:href="#DejaVuSans-69" transform="translate(370.748047 0)"/>
     <use xlink:href="#DejaVuSans-76" transform="translate(398.53125 0)"/>
     <use xlink:href="#DejaVuSans-65" transform="translate(457.710938 0)"/>
     <use xlink:href="#DejaVuSans-72" transform="translate(519.234375 0)"/>
     <use xlink:href="#DejaVuSans-5f" transform="translate(560.347656 0)"/>
     <use xlink:href="#DejaVuSans-61" transform="translate(610.347656 0)"/>
     <use xlink:href="#DejaVuSans-74" transform="translate(671.626953 0)"/>
     <use xlink:href="#DejaVuSans-5f" transform="translate(710.835938 0)"/>
     <use xlink:href="#DejaVuSans-43" transform="translate(760.835938 0)"/>
     <use xlink:href="#DejaVuSans-61" transform="translate(830.660156 0)"/>
     <use xlink:href="#DejaVuSans-72" transform="translate(891.939453 0)"/>
     <use xlink:href="#DejaVuSans-73" transform="translate(933.052734 0)"/>
     <use xlink:href="#DejaVuSans-6f" transform="translate(985.152344 0)"/>
     <use xlink:href="#DejaVuSans-6e" transform="translate(1046.333984 0)"/>
     <use xlink:href="#DejaVuSans-5f" transform="translate(1109.712891 0)"/>
     <use xlink:href="#DejaVuSans-57" transform="translate(1159.712891 0)"/>
     <use xlink:href="#DejaVuSans-41" transform="translate(1253.089844 0)"/>
     <use xlink:href="#DejaVuSans-20" transform="translate(1321.498047 0)"/>
     <use xlink:href="#DejaVuSans-55" transform="translate(1353.285156 0)"/>
     <use xlink:href="#DejaVuSans-53" transform="translate(1426.478516 0)"/>
     <use xlink:href="#DejaVuSans-47" transform="translate(1489.955078 0)"/>
     <use xlink:href="#DejaVuSans-53" transform="translate(1567.445312 0)"/>
     <use xlink:href="#DejaVuSans-20" transform="translate(1630.921875 0)"/>
     <use xlink:href="#DejaVuSans-53" transform="translate(1662.708984 0)"/>
     <use xlink:href="#DejaVuSans-74" transform="translate(1726.185547 0)"/>
     <use xlink:href="#DejaVuSans-72" transform="translate(1765.394531 0)"/>
     <use xlink:href="#DejaVuSans-65" transform="translate(1804.257812 0)"/>
     <use xlink:href="#DejaVuSans-61" transform="translate(1865.78125 0)"/>
     <use xlink:href="#DejaVuSans-6d" transform="translate(1927.060547 0)"/>
     <use xlink:href="#DejaVuSans-66" transform="translate(2024.472656 0)"/>
     <use xlink:href="#DejaVuSans-6c" transform="translate(2059.677734 0)"/>
     <use xlink:href="#DejaVuSans-6f" transform="translate(2087.460938 0)"/>
     <use xlink:href="#DejaVuSans-77" transform="translate(2148.642578 0)"/>
     <use xlink:href="#DejaVuSans-20" transform="translate(2230.429688 0)"/>
     <use xlink:href="#DejaVuSans-61" transform="translate(2262.216797 0)"/>
     <use xlink:href="#DejaVuSans-74" transform="translate(2323.496094 0)"/>
     <use xlink:href="#DejaVuSans-20" transform="translate(2362.705078 0)"/>
     <use xlink:href="#DejaVuSans-57" transform="translate(2394.492188 0)"/>
     <use xlink:href="#DejaVuSans-69" transform="translate(2491.119141 0)"/>
     <use xlink:href="#DejaVuSans-6e" transform="translate(2518.902344 0)"/>
     <use xlink:href="#DejaVuSans-64" transform="translate(2582.28125 0)"/>
     <use xlink:href="#DejaVuSans-20" transform="translate(2645.757812 0)"/>
     <use xlink:href="#DejaVuSans-52" transform="translate(2677.544922 0)"/>
     <use xlink:href="#DejaVuSans-69" transform="translate(2747.027344 0)"/>
     <use xlink:href="#DejaVuSans-76" transform="translate(2774.810547 0)"/>
     <use xlink:href="#DejaVuSans-65" transform="translate(2833.990234 0)"/>
     <use xlink:href="#DejaVuSans-72" transform="translate(2895.513672 0)"/>
     <use xlink:href="#DejaVuSans-20" transform="translate(2936.626953 0)"/>
     <use xlink:href="#DejaVuSans-61" transform="translate(2968.414062 0)"/>
     <use xlink:href="#DejaVuSans-74" transform="translate(3029.693359 0)"/>
     <use xlink:href="#DejaVuSans-20" transform="translate(3068.902344 0)"/>
     <use xlink:href="#DejaVuSans-43" transform="translate(3100.689453 0)"/>
     <use xlink:href="#DejaVuSans-61" transform="translate(3170.513672 0)"/>
     <use xlink:href="#DejaVuSans-72" transform="translate(3231.792969 0)"/>
     <use xlink:href="#DejaVuSans-73" transform="translate(3272.90625 0)"/>
     <use xlink:href="#DejaVuSans-6f" transform="translate(3325.005859 0)"/>
     <use xlink:href="#DejaVuSans-6e" transform="translate(3386.1875 0)"/>
     <use xlink:href="#DejaVuSans-2c" transform="translate(3449.566406 0)"/>
     <use xlink:href="#DejaVuSans-20" transform="translate(3481.353516 0)"/>
     <use xlink:href="#DejaVuSans-57" transform="translate(3513.140625 0)"/>
     <use xlink:href="#DejaVuSans-41" transform="translate(3606.517578 0)"/>
     <use xlink:href="#DejaVuSans-20" transform="translate(3674.925781 0)"/>
     <use xlink:href="#DejaVuSans-28" transform="translate(3706.712891 0)"/>
     <use xlink:href="#DejaVuSans-53" transform="translate(3745.726562 0)"/>
     <use xlink:href="#DejaVuSans-69" transform="translate(3809.203125 0)"/>
     <use xlink:href="#DejaVuSans-74" transform="translate(3836.986328 0)"/>
     <use xlink:href="#DejaVuSans-65" transform="translate(3876.195312 0)"/>
     <use xlink:href="#DejaVuSans-20" transform="translate(3937.71875 0)"/>
     <use xlink:href="#DejaVuSans-31" transform="translate(3969.505859 0)"/>
     <use xlink:href="#DejaVuSans-34" transform="translate(4033.128906 0)"/>
     <use xlink:href="#DejaVuSans-31" transform="translate(4096.751953 0)"/>
     <use xlink:href="#DejaVuSans-32" transform="translate(4160.375 0)"/>
     <use xlink:href="#DejaVuSans-38" transform="translate(4223.998047 0)"/>
     <use xlink:href="#DejaVuSans-35" transform="translate(4287.621094 0)"/>
     <use xlink:href="#DejaVuSans-30" transform="translate(4351.244141 0)"/>
     <use xlink:href="#DejaVuSans-30" transform="translate(4414.867188 0)"/>
     <use xlink:href="#DejaVuSans-29" transform="translate(4478.490234 0)"/>
     <use xlink:href="#DejaVuSans-20" transform="translate(4517.503906 0)"/>
     <use xlink:href="#DejaVuSans-2014" transform="translate(4549.291016 0)"/>
     <use xlink:href="#DejaVuSans-20" transform="translate(4649.291016 0)"/>
     <use xlink:href="#DejaVuSans-6c" transform="translate(4681.078125 0)"/>
     <use xlink:href="#DejaVuSans-6f" transform="translate(4708.861328 0)"/>
     <use xlink:href="#DejaVuSans-63" transform="translate(4770.042969 0)"/>
     <use xlink:href="#DejaVuSans-61" transform="translate(4825.023438 0)"/>
     <use xlink:href="#DejaVuSans-6c" transform="translate(4886.302734 0)"/>
     <use xlink:href="#DejaVuSans-20" transform="translate(4914.085938 0)"/>
     <use xlink:href="#DejaVuSans-74" transform="translate(4945.873047 0)"/>
     <use xlink:href="#DejaVuSans-69" transform="translate(4985.082031 0)"/>
     <use xlink:href="#DejaVuSans-6d" transform="translate(5012.865234 0)"/>
     <use xlink:href="#DejaVuSans-65" transform="translate(5110.277344 0)"/>
    </g>
   </g>
   <g id="legend_1">
    <g id="patch_7">
     <path d="M 60.328125 44.99625 
L 167.626563 44.99625 
Q 169.626563 44.99625 169.626563 42.99625 
L 169.626563 29.318125 
Q 169.626563 27.318125 167.626563 27.318125 
L 60.328125 27.318125 
Q 58.328125 27.318125 58.328125 29.318125 
L 58.328125 42.99625 
Q 58.328125 44.99625 60.328125 44.99625 
z
" style="fill: #ffffff; opacity: 0.8; stroke: #cccccc; stroke-linejoin: miter"/>
    </g>
    <g id="line2d_23">
     <path d="M 62.328125 35.416563 
L 72.328125 35.416563 
L 82.328125 35.416563 
" style="fill: none; stroke: #1f77b4; stroke-width: 1.5; stroke-linecap: square"/>
     <g>
      <use xlink:href="#m7653f4868c" x="72.328125" y="35.416563" style="fill: #1f77b4; stroke: #1f77b4"/>
     </g>
    </g>
    <g id="text_17">
     <!-- Discharge (cfs) -->
     <g transform="translate(90.328125 38.916563) scale(0.1 -0.1)">
      <use xlink:href="#DejaVuSans-44"/>
      <use xlink:href="#DejaVuSans-69" transform="translate(77.001953 0)"/>
      <use xlink:href="#DejaVuSans-73" transform="translate(104.785156 0)"/>
      <use xlink:href="#DejaVuSans-63" transform="translate(156.884766 0)"/>
      <use xlink:href="#DejaVuSans-68" transform="translate(211.865234 0)"/>
      <use xlink:href="#DejaVuSans-61" transform="translate(275.244141 0)"/>
      <use xlink:href="#DejaVuSans-72" transform="translate(336.523438 0)"/>
      <use xlink:href="#DejaVuSans-67" transform="translate(375.886719 0)"/>
      <use xlink:href="#DejaVuSans-65" transform="translate(439.363281 0)"/>
      <use xlink:href="#DejaVuSans-20" transform="translate(500.886719 0)"/>
      <use xlink:href="#DejaVuSans-28" transform="translate(532.673828 0)"/>
      <use xlink:href="#DejaVuSans-63" transform="translate(571.6875 0)"/>
      <use xlink:href="#DejaVuSans-66" transform="translate(626.667969 0)"/>
      <use xlink:href="#DejaVuSans-73" transform="translate(661.873047 0)"/>
      <use xlink:href="#DejaVuSans-29" transform="translate(713.972656 0)"/>
     </g>
    </g>
   </g>
  </g>
 </g>
 <defs>
  <clipPath id="pd43f43cfb7">
   <rect x="53.328125" y="22.318125" width="558" height="277.2"/>
  </clipPath>
 </defs>
</svg>
