<?xml version="1.0" encoding="utf-8" standalone="no"?>
<!DOCTYPE svg PUBLIC "-//W3C//DTD SVG 1.1//EN"
  "http://www.w3.org/Graphics/SVG/1.1/DTD/svg11.dtd">
<svg xmlns:xlink="http://www.w3.org/1999/xlink" width="587.620938pt" height="392.514375pt" viewBox="0 0 587.620938 392.514375" xmlns="http://www.w3.org/2000/svg" version="1.1">
 <metadata>
  <rdf:RDF xmlns:dc="http://purl.org/dc/elements/1.1/" xmlns:cc="http://creativecommons.org/ns#" xmlns:rdf="http://www.w3.org/1999/02/22-rdf-syntax-ns#">
   <cc:Work>
    <dc:type rdf:resource="http://purl.org/dc/dcmitype/StillImage"/>
    <dc:date>2025-11-04T18:09:28.488694</dc:date>
    <dc:format>image/svg+xml</dc:format>
    <dc:creator>
     <cc:Agent>
      <dc:title>Matplotlib v3.10.0, https://matplotlib.org/</dc:title>
     </cc:Agent>
    </dc:creator>
   </cc:Work>
  </rdf:RDF>
 </metadata>
 <defs>
  <style type="text/css">*{stroke-linejoin: round; stroke-linecap: butt}</style>
 </defs>
 <g id="figure_1">
  <g id="patch_1">
   <path d="M 0 392.514375 
L 587.620937 392.514375 
L 587.620937 0 
L 0 0 
z
" style="fill: #ffffff"/>
  </g>
  <g id="axes_1">
   <g id="patch_2">
    <path d="M 63.610237 354.958125 
L 395.744138 354.958125 
L 395.744138 22.318125 
L 63.610237 22.318125 
z
" style="fill: #ffffff"/>
   </g>
   <g id="matplotlib.axis_1">
    <g id="xtick_1">
     <g id="line2d_1">
      <defs>
       <path id="m4de86416c2" d="M 0 0 
L 0 3.5 
" style="stroke: #000000; stroke-width: 0.8"/>
      </defs>
      <g>
       <use xlink:href="#m4de86416c2" x="81.098087" y="354.958125" style="stroke: #000000; stroke-width: 0.8"/>
      </g>
     </g>
     <g id="text_1">
      <!-- −0.10 -->
      <g transform="translate(65.77543 369.556562) scale(0.1 -0.1)">
       <defs>
        <path id="DejaVuSans-2212" d="M 678 2272 
L 4684 2272 
L 4684 1741 
L 678 1741 
L 678 2272 
z
" transform="scale(0.015625)"/>
        <path id="DejaVuSans-30" d="M 2034 4250 
Q 1547 4250 1301 3770 
Q 1056 3291 1056 2328 
Q 1056 1369 1301 889 
Q 1547 409 2034 409 
Q 2525 409 2770 889 
Q 3016 1369 3016 2328 
Q 3016 3291 2770 3770 
Q 2525 4250 2034 4250 
z
M 2034 4750 
Q 2819 4750 3233 4129 
Q 3647 3509 3647 2328 
Q 3647 1150 3233 529 
Q 2819 -91 2034 -91 
Q 1250 -91 836 529 
Q 422 1150 422 2328 
Q 422 3509 836 4129 
Q 1250 4750 2034 4750 
z
" transform="scale(0.015625)"/>
        <path id="DejaVuSans-2e" d="M 684 794 
L 1344 794 
L 1344 0 
L 684 0 
L 684 794 
z
" transform="scale(0.015625)"/>
        <path id="DejaVuSans-31" d="M 794 531 
L 1825 531 
L 1825 4091 
L 703 3866 
L 703 4441 
L 1819 4666 
L 2450 4666 
L 2450 531 
L 3481 531 
L 3481 0 
L 794 0 
L 794 531 
z
" transform="scale(0.015625)"/>
       </defs>
       <use xlink:href="#DejaVuSans-2212"/>
       <use xlink:href="#DejaVuSans-30" transform="translate(83.789062 0)"/>
       <use xlink:href="#DejaVuSans-2e" transform="translate(147.412109 0)"/>
       <use xlink:href="#DejaVuSans-31" transform="translate(179.199219 0)"/>
       <use xlink:href="#DejaVuSans-30" transform="translate(242.822266 0)"/>
      </g>
     </g>
    </g>
    <g id="xtick_2">
     <g id="line2d_2">
      <g>
       <use xlink:href="#m4de86416c2" x="123.276861" y="354.958125" style="stroke: #000000; stroke-width: 0.8"/>
      </g>
     </g>
     <g id="text_2">
      <!-- −0.09 -->
      <g transform="translate(107.954205 369.556562) scale(0.1 -0.1)">
       <defs>
        <path id="DejaVuSans-39" d="M 703 97 
L 703 672 
Q 941 559 1184 500 
Q 1428 441 1663 441 
Q 2288 441 2617 861 
Q 2947 1281 2994 2138 
Q 2813 1869 2534 1725 
Q 2256 1581 1919 1581 
Q 1219 1581 811 2004 
Q 403 2428 403 3163 
Q 403 3881 828 4315 
Q 1253 4750 1959 4750 
Q 2769 4750 3195 4129 
Q 3622 3509 3622 2328 
Q 3622 1225 3098 567 
Q 2575 -91 1691 -91 
Q 1453 -91 1209 -44 
Q 966 3 703 97 
z
M 1959 2075 
Q 2384 2075 2632 2365 
Q 2881 2656 2881 3163 
Q 2881 3666 2632 3958 
Q 2384 4250 1959 4250 
Q 1534 4250 1286 3958 
Q 1038 3666 1038 3163 
Q 1038 2656 1286 2365 
Q 1534 2075 1959 2075 
z
" transform="scale(0.015625)"/>
       </defs>
       <use xlink:href="#DejaVuSans-2212"/>
       <use xlink:href="#DejaVuSans-30" transform="translate(83.789062 0)"/>
       <use xlink:href="#DejaVuSans-2e" transform="translate(147.412109 0)"/>
       <use xlink:href="#DejaVuSans-30" transform="translate(179.199219 0)"/>
       <use xlink:href="#DejaVuSans-39" transform="translate(242.822266 0)"/>
      </g>
     </g>
    </g>
    <g id="xtick_3">
     <g id="line2d_3">
      <g>
       <use xlink:href="#m4de86416c2" x="165.455636" y="354.958125" style="stroke: #000000; stroke-width: 0.8"/>
      </g>
     </g>
     <g id="text_3">
      <!-- −0.08 -->
      <g transform="translate(150.13298 369.556562) scale(0.1 -0.1)">
       <defs>
        <path id="DejaVuSans-38" d="M 2034 2216 
Q 1584 2216 1326 1975 
Q 1069 1734 1069 1313 
Q 1069 891 1326 650 
Q 1584 409 2034 409 
Q 2484 409 2743 651 
Q 3003 894 3003 1313 
Q 3003 1734 2745 1975 
Q 2488 2216 2034 2216 
z
M 1403 2484 
Q 997 2584 770 2862 
Q 544 3141 544 3541 
Q 544 4100 942 4425 
Q 1341 4750 2034 4750 
Q 2731 4750 3128 4425 
Q 3525 4100 3525 3541 
Q 3525 3141 3298 2862 
Q 3072 2584 2669 2484 
Q 3125 2378 3379 2068 
Q 3634 1759 3634 1313 
Q 3634 634 3220 271 
Q 2806 -91 2034 -91 
Q 1263 -91 848 271 
Q 434 634 434 1313 
Q 434 1759 690 2068 
Q 947 2378 1403 2484 
z
M 1172 3481 
Q 1172 3119 1398 2916 
Q 1625 2713 2034 2713 
Q 2441 2713 2670 2916 
Q 2900 3119 2900 3481 
Q 2900 3844 2670 4047 
Q 2441 4250 2034 4250 
Q 1625 4250 1398 4047 
Q 1172 3844 1172 3481 
z
" transform="scale(0.015625)"/>
       </defs>
       <use xlink:href="#DejaVuSans-2212"/>
       <use xlink:href="#DejaVuSans-30" transform="translate(83.789062 0)"/>
       <use xlink:href="#DejaVuSans-2e" transform="translate(147.412109 0)"/>
       <use xlink:href="#DejaVuSans-30" transform="translate(179.199219 0)"/>
       <use xlink:href="#DejaVuSans-38" transform="translate(242.822266 0)"/>
      </g>
     </g>
    </g>
    <g id="xtick_4">
     <g id="line2d_4">
      <g>
       <use xlink:href="#m4de86416c2" x="207.634411" y="354.958125" style="stroke: #000000; stroke-width: 0.8"/>
      </g>
     </g>
     <g id="text_4">
      <!-- −0.07 -->
      <g transform="translate(192.311755 369.556562) scale(0.1 -0.1)">
       <defs>
        <path id="DejaVuSans-37" d="M 525 4666 
L 3525 4666 
L 3525 4397 
L 1831 0 
L 1172 0 
L 2766 4134 
L 525 4134 
L 525 4666 
z
" transform="scale(0.015625)"/>
       </defs>
       <use xlink:href="#DejaVuSans-2212"/>
       <use xlink:href="#DejaVuSans-30" transform="translate(83.789062 0)"/>
       <use xlink:href="#DejaVuSans-2e" transform="translate(147.412109 0)"/>
       <use xlink:href="#DejaVuSans-30" transform="translate(179.199219 0)"/>
       <use xlink:href="#DejaVuSans-37" transform="translate(242.822266 0)"/>
      </g>
     </g>
    </g>
    <g id="xtick_5">
     <g id="line2d_5">
      <g>
       <use xlink:href="#m4de86416c2" x="249.813186" y="354.958125" style="stroke: #000000; stroke-width: 0.8"/>
      </g>
     </g>
     <g id="text_5">
      <!-- −0.06 -->
      <g transform="translate(234.49053 369.556562) scale(0.1 -0.1)">
       <defs>
        <path id="DejaVuSans-36" d="M 2113 2584 
Q 1688 2584 1439 2293 
Q 1191 2003 1191 1497 
Q 1191 994 1439 701 
Q 1688 409 2113 409 
Q 2538 409 2786 701 
Q 3034 994 3034 1497 
Q 3034 2003 2786 2293 
Q 2538 2584 2113 2584 
z
M 3366 4563 
L 3366 3988 
Q 3128 4100 2886 4159 
Q 2644 4219 2406 4219 
Q 1781 4219 1451 3797 
Q 1122 3375 1075 2522 
Q 1259 2794 1537 2939 
Q 1816 3084 2150 3084 
Q 2853 3084 3261 2657 
Q 3669 2231 3669 1497 
Q 3669 778 3244 343 
Q 2819 -91 2113 -91 
Q 1303 -91 875 529 
Q 447 1150 447 2328 
Q 447 3434 972 4092 
Q 1497 4750 2381 4750 
Q 2619 4750 2861 4703 
Q 3103 4656 3366 4563 
z
" transform="scale(0.015625)"/>
       </defs>
       <use xlink:href="#DejaVuSans-2212"/>
       <use xlink:href="#DejaVuSans-30" transform="translate(83.789062 0)"/>
       <use xlink:href="#DejaVuSans-2e" transform="translate(147.412109 0)"/>
       <use xlink:href="#DejaVuSans-30" transform="translate(179.199219 0)"/>
       <use xlink:href="#DejaVuSans-36" transform="translate(242.822266 0)"/>
      </g>
     </g>
    </g>
    <g id="xtick_6">
     <g id="line2d_6">
      <g>
       <use xlink:href="#m4de86416c2" x="291.991961" y="354.958125" style="stroke: #000000; stroke-width: 0.8"/>
      </g>
     </g>
     <g id="text_6">
      <!-- −0.05 -->
      <g transform="translate(276.669304 369.556562) scale(0.1 -0.1)">
       <defs>
        <path id="DejaVuSans-35" d="M 691 4666 
L 3169 4666 
L 3169 4134 
L 1269 4134 
L 1269 2991 
Q 1406 3038 1543 3061 
Q 1681 3084 1819 3084 
Q 2600 3084 3056 2656 
Q 3513 2228 3513 1497 
Q 3513 744 3044 326 
Q 2575 -91 1722 -91 
Q 1428 -91 1123 -41 
Q 819 9 494 109 
L 494 744 
Q 775 591 1075 516 
Q 1375 441 1709 441 
Q 2250 441 2565 725 
Q 2881 1009 2881 1497 
Q 2881 1984 2565 2268 
Q 2250 2553 1709 2553 
Q 1456 2553 1204 2497 
Q 953 2441 691 2322 
L 691 4666 
z
" transform="scale(0.015625)"/>
       </defs>
       <use xlink:href="#DejaVuSans-2212"/>
       <use xlink:href="#DejaVuSans-30" transform="translate(83.789062 0)"/>
       <use xlink:href="#DejaVuSans-2e" transform="translate(147.412109 0)"/>
       <use xlink:href="#DejaVuSans-30" transform="translate(179.199219 0)"/>
       <use xlink:href="#DejaVuSans-35" transform="translate(242.822266 0)"/>
      </g>
     </g>
    </g>
    <g id="xtick_7">
     <g id="line2d_7">
      <g>
       <use xlink:href="#m4de86416c2" x="334.170735" y="354.958125" style="stroke: #000000; stroke-width: 0.8"/>
      </g>
     </g>
     <g id="text_7">
      <!-- −0.04 -->
      <g transform="translate(318.848079 369.556562) scale(0.1 -0.1)">
       <defs>
        <path id="DejaVuSans-34" d="M 2419 4116 
L 825 1625 
L 2419 1625 
L 2419 4116 
z
M 2253 4666 
L 3047 4666 
L 3047 1625 
L 3713 1625 
L 3713 1100 
L 3047 1100 
L 3047 0 
L 2419 0 
L 2419 1100 
L 313 1100 
L 313 1709 
L 2253 4666 
z
" transform="scale(0.015625)"/>
       </defs>
       <use xlink:href="#DejaVuSans-2212"/>
       <use xlink:href="#DejaVuSans-30" transform="translate(83.789062 0)"/>
       <use xlink:href="#DejaVuSans-2e" transform="translate(147.412109 0)"/>
       <use xlink:href="#DejaVuSans-30" transform="translate(179.199219 0)"/>
       <use xlink:href="#DejaVuSans-34" transform="translate(242.822266 0)"/>
      </g>
     </g>
    </g>
    <g id="xtick_8">
     <g id="line2d_8">
      <g>
       <use xlink:href="#m4de86416c2" x="376.34951" y="354.958125" style="stroke: #000000; stroke-width: 0.8"/>
      </g>
     </g>
     <g id="text_8">
      <!-- −0.03 -->
      <g transform="translate(361.026854 369.556562) scale(0.1 -0.1)">
       <defs>
        <path id="DejaVuSans-33" d="M 2597 2516 
Q 3050 2419 3304 2112 
Q 3559 1806 3559 1356 
Q 3559 666 3084 287 
Q 2609 -91 1734 -91 
Q 1441 -91 1130 -33 
Q 819 25 488 141 
L 488 750 
Q 750 597 1062 519 
Q 1375 441 1716 441 
Q 2309 441 2620 675 
Q 2931 909 2931 1356 
Q 2931 1769 2642 2001 
Q 2353 2234 1838 2234 
L 1294 2234 
L 1294 2753 
L 1863 2753 
Q 2328 2753 2575 2939 
Q 2822 3125 2822 3475 
Q 2822 3834 2567 4026 
Q 2313 4219 1838 4219 
Q 1578 4219 1281 4162 
Q 984 4106 628 3988 
L 628 4550 
Q 988 4650 1302 4700 
Q 1616 4750 1894 4750 
Q 2613 4750 3031 4423 
Q 3450 4097 3450 3541 
Q 3450 3153 3228 2886 
Q 3006 2619 2597 2516 
z
" transform="scale(0.015625)"/>
       </defs>
       <use xlink:href="#DejaVuSans-2212"/>
       <use xlink:href="#DejaVuSans-30" transform="translate(83.789062 0)"/>
       <use xlink:href="#DejaVuSans-2e" transform="translate(147.412109 0)"/>
       <use xlink:href="#DejaVuSans-30" transform="translate(179.199219 0)"/>
       <use xlink:href="#DejaVuSans-33" transform="translate(242.822266 0)"/>
      </g>
     </g>
    </g>
    <g id="text_9">
     <!-- Longitude -->
     <g transform="translate(204.807656 383.234687) scale(0.1 -0.1)">
      <defs>
       <path id="DejaVuSans-4c" d="M 628 4666 
L 1259 4666 
L 1259 531 
L 3531 531 
L 3531 0 
L 628 0 
L 628 4666 
z
" transform="scale(0.015625)"/>
       <path id="DejaVuSans-6f" d="M 1959 3097 
Q 1497 3097 1228 2736 
Q 959 2375 959 1747 
Q 959 1119 1226 758 
Q 1494 397 1959 397 
Q 2419 397 2687 759 
Q 2956 1122 2956 1747 
Q 2956 2369 2687 2733 
Q 2419 3097 1959 3097 
z
M 1959 3584 
Q 2709 3584 3137 3096 
Q 3566 2609 3566 1747 
Q 3566 888 3137 398 
Q 2709 -91 1959 -91 
Q 1206 -91 779 398 
Q 353 888 353 1747 
Q 353 2609 779 3096 
Q 1206 3584 1959 3584 
z
" transform="scale(0.015625)"/>
       <path id="DejaVuSans-6e" d="M 3513 2113 
L 3513 0 
L 2938 0 
L 2938 2094 
Q 2938 2591 2744 2837 
Q 2550 3084 2163 3084 
Q 1697 3084 1428 2787 
Q 1159 2491 1159 1978 
L 1159 0 
L 581 0 
L 581 3500 
L 1159 3500 
L 1159 2956 
Q 1366 3272 1645 3428 
Q 1925 3584 2291 3584 
Q 2894 3584 3203 3211 
Q 3513 2838 3513 2113 
z
" transform="scale(0.015625)"/>
       <path id="DejaVuSans-67" d="M 2906 1791 
Q 2906 2416 2648 2759 
Q 2391 3103 1925 3103 
Q 1463 3103 1205 2759 
Q 947 2416 947 1791 
Q 947 1169 1205 825 
Q 1463 481 1925 481 
Q 2391 481 2648 825 
Q 2906 1169 2906 1791 
z
M 3481 434 
Q 3481 -459 3084 -895 
Q 2688 -1331 1869 -1331 
Q 1566 -1331 1297 -1286 
Q 1028 -1241 775 -1147 
L 775 -588 
Q 1028 -725 1275 -790 
Q 1522 -856 1778 -856 
Q 2344 -856 2625 -561 
Q 2906 -266 2906 331 
L 2906 616 
Q 2728 306 2450 153 
Q 2172 0 1784 0 
Q 1141 0 747 490 
Q 353 981 353 1791 
Q 353 2603 747 3093 
Q 1141 3584 1784 3584 
Q 2172 3584 2450 3431 
Q 2728 3278 2906 2969 
L 2906 3500 
L 3481 3500 
L 3481 434 
z
" transform="scale(0.015625)"/>
       <path id="DejaVuSans-69" d="M 603 3500 
L 1178 3500 
L 1178 0 
L 603 0 
L 603 3500 
z
M 603 4863 
L 1178 4863 
L 1178 4134 
L 603 4134 
L 603 4863 
z
" transform="scale(0.015625)"/>
       <path id="DejaVuSans-74" d="M 1172 4494 
L 1172 3500 
L 2356 3500 
L 2356 3053 
L 1172 3053 
L 1172 1153 
Q 1172 725 1289 603 
Q 1406 481 1766 481 
L 2356 481 
L 2356 0 
L 1766 0 
Q 1100 0 847 248 
Q 594 497 594 1153 
L 594 3053 
L 172 3053 
L 172 3500 
L 594 3500 
L 594 4494 
L 1172 4494 
z
" transform="scale(0.015625)"/>
       <path id="DejaVuSans-75" d="M 544 1381 
L 544 3500 
L 1119 3500 
L 1119 1403 
Q 1119 906 1312 657 
Q 1506 409 1894 409 
Q 2359 409 2629 706 
Q 2900 1003 2900 1516 
L 2900 3500 
L 3475 3500 
L 3475 0 
L 2900 0 
L 2900 538 
Q 2691 219 2414 64 
Q 2138 -91 1772 -91 
Q 1169 -91 856 284 
Q 544 659 544 1381 
z
M 1991 3584 
L 1991 3584 
z
" transform="scale(0.015625)"/>
       <path id="DejaVuSans-64" d="M 2906 2969 
L 2906 4863 
L 3481 4863 
L 3481 0 
L 2906 0 
L 2906 525 
Q 2725 213 2448 61 
Q 2172 -91 1784 -91 
Q 1150 -91 751 415 
Q 353 922 353 1747 
Q 353 2572 751 3078 
Q 1150 3584 1784 3584 
Q 2172 3584 2448 3432 
Q 2725 3281 2906 2969 
z
M 947 1747 
Q 947 1113 1208 752 
Q 1469 391 1925 391 
Q 2381 391 2643 752 
Q 2906 1113 2906 1747 
Q 2906 2381 2643 2742 
Q 2381 3103 1925 3103 
Q 1469 3103 1208 2742 
Q 947 2381 947 1747 
z
" transform="scale(0.015625)"/>
       <path id="DejaVuSans-65" d="M 3597 1894 
L 3597 1613 
L 953 1613 
Q 991 1019 1311 708 
Q 1631 397 2203 397 
Q 2534 397 2845 478 
Q 3156 559 3463 722 
L 3463 178 
Q 3153 47 2828 -22 
Q 2503 -91 2169 -91 
Q 1331 -91 842 396 
Q 353 884 353 1716 
Q 353 2575 817 3079 
Q 1281 3584 2069 3584 
Q 2775 3584 3186 3129 
Q 3597 2675 3597 1894 
z
M 3022 2063 
Q 3016 2534 2758 2815 
Q 2500 3097 2075 3097 
Q 1594 3097 1305 2825 
Q 1016 2553 972 2059 
L 3022 2063 
z
" transform="scale(0.015625)"/>
      </defs>
      <use xlink:href="#DejaVuSans-4c"/>
      <use xlink:href="#DejaVuSans-6f" transform="translate(53.962891 0)"/>
      <use xlink:href="#DejaVuSans-6e" transform="translate(115.144531 0)"/>
      <use xlink:href="#DejaVuSans-67" transform="translate(178.523438 0)"/>
      <use xlink:href="#DejaVuSans-69" transform="translate(242 0)"/>
      <use xlink:href="#DejaVuSans-74" transform="translate(269.783203 0)"/>
      <use xlink:href="#DejaVuSans-75" transform="translate(308.992188 0)"/>
      <use xlink:href="#DejaVuSans-64" transform="translate(372.371094 0)"/>
      <use xlink:href="#DejaVuSans-65" transform="translate(435.847656 0)"/>
     </g>
    </g>
    <g id="text_10">
     <!-- −1.222e2 -->
     <g transform="translate(346.2207 382.234687) scale(0.1 -0.1)">
      <defs>
       <path id="DejaVuSans-32" d="M 1228 531 
L 3431 531 
L 3431 0 
L 469 0 
L 469 531 
Q 828 903 1448 1529 
Q 2069 2156 2228 2338 
Q 2531 2678 2651 2914 
Q 2772 3150 2772 3378 
Q 2772 3750 2511 3984 
Q 2250 4219 1831 4219 
Q 1534 4219 1204 4116 
Q 875 4013 500 3803 
L 500 4441 
Q 881 4594 1212 4672 
Q 1544 4750 1819 4750 
Q 2544 4750 2975 4387 
Q 3406 4025 3406 3419 
Q 3406 3131 3298 2873 
Q 3191 2616 2906 2266 
Q 2828 2175 2409 1742 
Q 1991 1309 1228 531 
z
" transform="scale(0.015625)"/>
      </defs>
      <use xlink:href="#DejaVuSans-2212"/>
      <use xlink:href="#DejaVuSans-31" transform="translate(83.789062 0)"/>
      <use xlink:href="#DejaVuSans-2e" transform="translate(147.412109 0)"/>
      <use xlink:href="#DejaVuSans-32" transform="translate(179.199219 0)"/>
      <use xlink:href="#DejaVuSans-32" transform="translate(242.822266 0)"/>
      <use xlink:href="#DejaVuSans-32" transform="translate(306.445312 0)"/>
      <use xlink:href="#DejaVuSans-65" transform="translate(370.068359 0)"/>
      <use xlink:href="#DejaVuSans-32" transform="translate(431.591797 0)"/>
     </g>
    </g>
   </g>
   <g id="matplotlib.axis_2">
    <g id="ytick_1">
     <g id="line2d_9">
      <defs>
       <path id="mab0a318e23" d="M 0 0 
L -3.5 0 
" style="stroke: #000000; stroke-width: 0.8"/>
      </defs>
      <g>
       <use xlink:href="#mab0a318e23" x="63.610237" y="326.99023" style="stroke: #000000; stroke-width: 0.8"/>
      </g>
     </g>
     <g id="text_11">
      <!-- 45.68 -->
      <g transform="translate(27.982112 330.789448) scale(0.1 -0.1)">
       <use xlink:href="#DejaVuSans-34"/>
       <use xlink:href="#DejaVuSans-35" transform="translate(63.623047 0)"/>
       <use xlink:href="#DejaVuSans-2e" transform="translate(127.246094 0)"/>
       <use xlink:href="#DejaVuSans-36" transform="translate(159.033203 0)"/>
       <use xlink:href="#DejaVuSans-38" transform="translate(222.65625 0)"/>
      </g>
     </g>
    </g>
    <g id="ytick_2">
     <g id="line2d_10">
      <g>
       <use xlink:href="#mab0a318e23" x="63.610237" y="284.811455" style="stroke: #000000; stroke-width: 0.8"/>
      </g>
     </g>
     <g id="text_12">
      <!-- 45.69 -->
      <g transform="translate(27.982112 288.610673) scale(0.1 -0.1)">
       <use xlink:href="#DejaVuSans-34"/>
       <use xlink:href="#DejaVuSans-35" transform="translate(63.623047 0)"/>
       <use xlink:href="#DejaVuSans-2e" transform="translate(127.246094 0)"/>
       <use xlink:href="#DejaVuSans-36" transform="translate(159.033203 0)"/>
       <use xlink:href="#DejaVuSans-39" transform="translate(222.65625 0)"/>
      </g>
     </g>
    </g>
    <g id="ytick_3">
     <g id="line2d_11">
      <g>
       <use xlink:href="#mab0a318e23" x="63.610237" y="242.63268" style="stroke: #000000; stroke-width: 0.8"/>
      </g>
     </g>
     <g id="text_13">
      <!-- 45.70 -->
      <g transform="translate(27.982112 246.431899) scale(0.1 -0.1)">
       <use xlink:href="#DejaVuSans-34"/>
       <use xlink:href="#DejaVuSans-35" transform="translate(63.623047 0)"/>
       <use xlink:href="#DejaVuSans-2e" transform="translate(127.246094 0)"/>
       <use xlink:href="#DejaVuSans-37" transform="translate(159.033203 0)"/>
       <use xlink:href="#DejaVuSans-30" transform="translate(222.65625 0)"/>
      </g>
     </g>
    </g>
    <g id="ytick_4">
     <g id="line2d_12">
      <g>
       <use xlink:href="#mab0a318e23" x="63.610237" y="200.453905" style="stroke: #000000; stroke-width: 0.8"/>
      </g>
     </g>
     <g id="text_14">
      <!-- 45.71 -->
      <g transform="translate(27.982112 204.253124) scale(0.1 -0.1)">
       <use xlink:href="#DejaVuSans-34"/>
       <use xlink:href="#DejaVuSans-35" transform="translate(63.623047 0)"/>
       <use xlink:href="#DejaVuSans-2e" transform="translate(127.246094 0)"/>
       <use xlink:href="#DejaVuSans-37" transform="translate(159.033203 0)"/>
       <use xlink:href="#DejaVuSans-31" transform="translate(222.65625 0)"/>
      </g>
     </g>
    </g>
    <g id="ytick_5">
     <g id="line2d_13">
      <g>
       <use xlink:href="#mab0a318e23" x="63.610237" y="158.27513" style="stroke: #000000; stroke-width: 0.8"/>
      </g>
     </g>
     <g id="text_15">
      <!-- 45.72 -->
      <g transform="translate(27.982112 162.074349) scale(0.1 -0.1)">
       <use xlink:href="#DejaVuSans-34"/>
       <use xlink:href="#DejaVuSans-35" transform="translate(63.623047 0)"/>
       <use xlink:href="#DejaVuSans-2e" transform="translate(127.246094 0)"/>
       <use xlink:href="#DejaVuSans-37" transform="translate(159.033203 0)"/>
       <use xlink:href="#DejaVuSans-32" transform="translate(222.65625 0)"/>
      </g>
     </g>
    </g>
    <g id="ytick_6">
     <g id="line2d_14">
      <g>
       <use xlink:href="#mab0a318e23" x="63.610237" y="116.096356" style="stroke: #000000; stroke-width: 0.8"/>
      </g>
     </g>
     <g id="text_16">
      <!-- 45.73 -->
      <g transform="translate(27.982112 119.895574) scale(0.1 -0.1)">
       <use xlink:href="#DejaVuSans-34"/>
       <use xlink:href="#DejaVuSans-35" transform="translate(63.623047 0)"/>
       <use xlink:href="#DejaVuSans-2e" transform="translate(127.246094 0)"/>
       <use xlink:href="#DejaVuSans-37" transform="translate(159.033203 0)"/>
       <use xlink:href="#DejaVuSans-33" transform="translate(222.65625 0)"/>
      </g>
     </g>
    </g>
    <g id="ytick_7">
     <g id="line2d_15">
      <g>
       <use xlink:href="#mab0a318e23" x="63.610237" y="73.917581" style="stroke: #000000; stroke-width: 0.8"/>
      </g>
     </g>
     <g id="text_17">
      <!-- 45.74 -->
      <g transform="translate(27.982112 77.716799) scale(0.1 -0.1)">
       <use xlink:href="#DejaVuSans-34"/>
       <use xlink:href="#DejaVuSans-35" transform="translate(63.623047 0)"/>
       <use xlink:href="#DejaVuSans-2e" transform="translate(127.246094 0)"/>
       <use xlink:href="#DejaVuSans-37" transform="translate(159.033203 0)"/>
       <use xlink:href="#DejaVuSans-34" transform="translate(222.65625 0)"/>
      </g>
     </g>
    </g>
    <g id="ytick_8">
     <g id="line2d_16">
      <g>
       <use xlink:href="#mab0a318e23" x="63.610237" y="31.738806" style="stroke: #000000; stroke-width: 0.8"/>
      </g>
     </g>
     <g id="text_18">
      <!-- 45.75 -->
      <g transform="translate(27.982112 35.538025) scale(0.1 -0.1)">
       <use xlink:href="#DejaVuSans-34"/>
       <use xlink:href="#DejaVuSans-35" transform="translate(63.623047 0)"/>
       <use xlink:href="#DejaVuSans-2e" transform="translate(127.246094 0)"/>
       <use xlink:href="#DejaVuSans-37" transform="translate(159.033203 0)"/>
       <use xlink:href="#DejaVuSans-35" transform="translate(222.65625 0)"/>
      </g>
     </g>
    </g>
    <g id="text_19">
     <!-- Latitude -->
     <g transform="translate(21.902425 209.217031) rotate(-90) scale(0.1 -0.1)">
      <defs>
       <path id="DejaVuSans-61" d="M 2194 1759 
Q 1497 1759 1228 1600 
Q 959 1441 959 1056 
Q 959 750 1161 570 
Q 1363 391 1709 391 
Q 2188 391 2477 730 
Q 2766 1069 2766 1631 
L 2766 1759 
L 2194 1759 
z
M 3341 1997 
L 3341 0 
L 2766 0 
L 2766 531 
Q 2569 213 2275 61 
Q 1981 -91 1556 -91 
Q 1019 -91 701 211 
Q 384 513 384 1019 
Q 384 1609 779 1909 
Q 1175 2209 1959 2209 
L 2766 2209 
L 2766 2266 
Q 2766 2663 2505 2880 
Q 2244 3097 1772 3097 
Q 1472 3097 1187 3025 
Q 903 2953 641 2809 
L 641 3341 
Q 956 3463 1253 3523 
Q 1550 3584 1831 3584 
Q 2591 3584 2966 3190 
Q 3341 2797 3341 1997 
z
" transform="scale(0.015625)"/>
      </defs>
      <use xlink:href="#DejaVuSans-4c"/>
      <use xlink:href="#DejaVuSans-61" transform="translate(55.712891 0)"/>
      <use xlink:href="#DejaVuSans-74" transform="translate(116.992188 0)"/>
      <use xlink:href="#DejaVuSans-69" transform="translate(156.201172 0)"/>
      <use xlink:href="#DejaVuSans-74" transform="translate(183.984375 0)"/>
      <use xlink:href="#DejaVuSans-75" transform="translate(223.193359 0)"/>
      <use xlink:href="#DejaVuSans-64" transform="translate(286.572266 0)"/>
      <use xlink:href="#DejaVuSans-65" transform="translate(350.048828 0)"/>
     </g>
    </g>
   </g>
   <g id="patch_3">
    <path d="M 247.602783 300.606446 
L 273.387104 300.606446 
L 273.387104 276.260636 
L 247.602783 276.260636 
z
" clip-path="url(#p4a8525dfde)" style="fill: #ffae42"/>
   </g>
   <g id="patch_4">
    <path d="M 273.387104 300.606446 
L 299.171426 300.606446 
L 299.171426 276.260636 
L 273.387104 276.260636 
z
" clip-path="url(#p4a8525dfde)" style="fill: #ffae42"/>
   </g>
   <g id="patch_5">
    <path d="M 299.171426 300.606446 
L 324.955748 300.606446 
L 324.955748 276.260636 
L 299.171426 276.260636 
z
" clip-path="url(#p4a8525dfde)" style="fill: #ffae42"/>
   </g>
   <g id="patch_6">
    <path d="M 196.034139 276.260636 
L 221.818461 276.260636 
L 221.818461 251.914827 
L 196.034139 251.914827 
z
" clip-path="url(#p4a8525dfde)" style="fill: #ffae42"/>
   </g>
   <g id="patch_7">
    <path d="M 221.818461 276.260636 
L 247.602783 276.260636 
L 247.602783 251.914827 
L 221.818461 251.914827 
z
" clip-path="url(#p4a8525dfde)" style="fill: #ffae42"/>
   </g>
   <g id="patch_8">
    <path d="M 247.602783 276.260636 
L 273.387104 276.260636 
L 273.387104 251.914827 
L 247.602783 251.914827 
z
" clip-path="url(#p4a8525dfde)" style="fill: #ffae42"/>
   </g>
   <g id="patch_9">
    <path d="M 273.387104 276.260636 
L 299.171426 276.260636 
L 299.171426 251.914827 
L 273.387104 251.914827 
z
" clip-path="url(#p4a8525dfde)" style="fill: #ffae42"/>
   </g>
   <g id="patch_10">
    <path d="M 196.034139 251.914827 
L 221.818461 251.914827 
L 221.818461 227.569018 
L 196.034139 227.569018 
z
" clip-path="url(#p4a8525dfde)" style="fill: #ffae42"/>
   </g>
   <g id="patch_11">
    <path d="M 221.818461 251.914827 
L 247.602783 251.914827 
L 247.602783 227.569018 
L 221.818461 227.569018 
z
" clip-path="url(#p4a8525dfde)" style="fill: #ffae42"/>
   </g>
   <g id="patch_12">
    <path d="M 247.602783 251.914827 
L 273.387104 251.914827 
L 273.387104 227.569018 
L 247.602783 227.569018 
z
" clip-path="url(#p4a8525dfde)" style="fill: #ffae42"/>
   </g>
   <g id="patch_13">
    <path d="M 273.387104 251.914827 
L 299.171426 251.914827 
L 299.171426 227.569018 
L 273.387104 227.569018 
z
" clip-path="url(#p4a8525dfde)" style="fill: #ffae42"/>
   </g>
   <g id="patch_14">
    <path d="M 299.171426 251.914827 
L 324.955748 251.914827 
L 324.955748 227.569018 
L 299.171426 227.569018 
z
" clip-path="url(#p4a8525dfde)" style="fill: #ffae42"/>
   </g>
   <g id="patch_15">
    <path d="M 144.465495 227.569018 
L 170.249817 227.569018 
L 170.249817 203.223208 
L 144.465495 203.223208 
z
" clip-path="url(#p4a8525dfde)" style="fill: #ffae42"/>
   </g>
   <g id="patch_16">
    <path d="M 170.249817 227.569018 
L 196.034139 227.569018 
L 196.034139 203.223208 
L 170.249817 203.223208 
z
" clip-path="url(#p4a8525dfde)" style="fill: #ffae42"/>
   </g>
   <g id="patch_17">
    <path d="M 196.034139 227.569018 
L 221.818461 227.569018 
L 221.818461 203.223208 
L 196.034139 203.223208 
z
" clip-path="url(#p4a8525dfde)" style="fill: #ffae42"/>
   </g>
   <g id="patch_18">
    <path d="M 221.818461 227.569018 
L 247.602783 227.569018 
L 247.602783 203.223208 
L 221.818461 203.223208 
z
" clip-path="url(#p4a8525dfde)" style="fill: #ffae42"/>
   </g>
   <g id="patch_19">
    <path d="M 247.602783 227.569018 
L 273.387104 227.569018 
L 273.387104 203.223208 
L 247.602783 203.223208 
z
" clip-path="url(#p4a8525dfde)" style="fill: #ffae42"/>
   </g>
   <g id="patch_20">
    <path d="M 273.387104 227.569018 
L 299.171426 227.569018 
L 299.171426 203.223208 
L 273.387104 203.223208 
z
" clip-path="url(#p4a8525dfde)" style="fill: #ffae42"/>
   </g>
   <g id="patch_21">
    <path d="M 299.171426 227.569018 
L 324.955748 227.569018 
L 324.955748 203.223208 
L 299.171426 203.223208 
z
" clip-path="url(#p4a8525dfde)" style="fill: #ffae42"/>
   </g>
   <g id="patch_22">
    <path d="M 118.681173 203.223208 
L 144.465495 203.223208 
L 144.465495 178.877399 
L 118.681173 178.877399 
z
" clip-path="url(#p4a8525dfde)" style="fill: #ffae42"/>
   </g>
   <g id="patch_23">
    <path d="M 144.465495 203.223208 
L 170.249817 203.223208 
L 170.249817 178.877399 
L 144.465495 178.877399 
z
" clip-path="url(#p4a8525dfde)" style="fill: #ffae42"/>
   </g>
   <g id="patch_24">
    <path d="M 170.249817 203.223208 
L 196.034139 203.223208 
L 196.034139 178.877399 
L 170.249817 178.877399 
z
" clip-path="url(#p4a8525dfde)" style="fill: #ffae42"/>
   </g>
   <g id="patch_25">
    <path d="M 196.034139 203.223208 
L 221.818461 203.223208 
L 221.818461 178.877399 
L 196.034139 178.877399 
z
" clip-path="url(#p4a8525dfde)" style="fill: #ffae42"/>
   </g>
   <g id="patch_26">
    <path d="M 221.818461 203.223208 
L 247.602783 203.223208 
L 247.602783 178.877399 
L 221.818461 178.877399 
z
" clip-path="url(#p4a8525dfde)" style="fill: #ffae42"/>
   </g>
   <g id="patch_27">
    <path d="M 247.602783 203.223208 
L 273.387104 203.223208 
L 273.387104 178.877399 
L 247.602783 178.877399 
z
" clip-path="url(#p4a8525dfde)" style="fill: #ffae42"/>
   </g>
   <g id="patch_28">
    <path d="M 273.387104 203.223208 
L 299.171426 203.223208 
L 299.171426 178.877399 
L 273.387104 178.877399 
z
" clip-path="url(#p4a8525dfde)" style="fill: #ffae42"/>
   </g>
   <g id="patch_29">
    <path d="M 299.171426 203.223208 
L 324.955748 203.223208 
L 324.955748 178.877399 
L 299.171426 178.877399 
z
" clip-path="url(#p4a8525dfde)" style="fill: #ffae42"/>
   </g>
   <g id="patch_30">
    <path d="M 324.955748 203.223208 
L 350.74007 203.223208 
L 350.74007 178.877399 
L 324.955748 178.877399 
z
" clip-path="url(#p4a8525dfde)" style="fill: #ffae42"/>
   </g>
   <g id="patch_31">
    <path d="M 196.034139 178.877399 
L 221.818461 178.877399 
L 221.818461 154.53159 
L 196.034139 154.53159 
z
" clip-path="url(#p4a8525dfde)" style="fill: #ffae42"/>
   </g>
   <g id="patch_32">
    <path d="M 221.818461 178.877399 
L 247.602783 178.877399 
L 247.602783 154.53159 
L 221.818461 154.53159 
z
" clip-path="url(#p4a8525dfde)" style="fill: #ffae42"/>
   </g>
   <g id="patch_33">
    <path d="M 247.602783 178.877399 
L 273.387104 178.877399 
L 273.387104 154.53159 
L 247.602783 154.53159 
z
" clip-path="url(#p4a8525dfde)" style="fill: #ffae42"/>
   </g>
   <g id="patch_34">
    <path d="M 273.387104 178.877399 
L 299.171426 178.877399 
L 299.171426 154.53159 
L 273.387104 154.53159 
z
" clip-path="url(#p4a8525dfde)" style="fill: #ffae42"/>
   </g>
   <g id="patch_35">
    <path d="M 299.171426 178.877399 
L 324.955748 178.877399 
L 324.955748 154.53159 
L 299.171426 154.53159 
z
" clip-path="url(#p4a8525dfde)" style="fill: #ffae42"/>
   </g>
   <g id="patch_36">
    <path d="M 324.955748 178.877399 
L 350.74007 178.877399 
L 350.74007 154.53159 
L 324.955748 154.53159 
z
" clip-path="url(#p4a8525dfde)" style="fill: #ffae42"/>
   </g>
   <g id="patch_37">
    <path d="M 221.818461 154.53159 
L 247.602783 154.53159 
L 247.602783 130.18578 
L 221.818461 130.18578 
z
" clip-path="url(#p4a8525dfde)" style="fill: #ffae42"/>
   </g>
   <g id="patch_38">
    <path d="M 247.602783 154.53159 
L 273.387104 154.53159 
L 273.387104 130.18578 
L 247.602783 130.18578 
z
" clip-path="url(#p4a8525dfde)" style="fill: #ffae42"/>
   </g>
   <g id="patch_39">
    <path d="M 273.387104 154.53159 
L 299.171426 154.53159 
L 299.171426 130.18578 
L 273.387104 130.18578 
z
" clip-path="url(#p4a8525dfde)" style="fill: #ffae42"/>
   </g>
   <g id="patch_40">
    <path d="M 299.171426 154.53159 
L 324.955748 154.53159 
L 324.955748 130.18578 
L 299.171426 130.18578 
z
" clip-path="url(#p4a8525dfde)" style="fill: #ffae42"/>
   </g>
   <g id="patch_41">
    <path d="M 324.955748 154.53159 
L 350.74007 154.53159 
L 350.74007 130.18578 
L 324.955748 130.18578 
z
" clip-path="url(#p4a8525dfde)" style="fill: #ffae42"/>
   </g>
   <g id="patch_42">
    <path d="M 273.387104 130.18578 
L 299.171426 130.18578 
L 299.171426 105.839971 
L 273.387104 105.839971 
z
" clip-path="url(#p4a8525dfde)" style="fill: #ffae42"/>
   </g>
   <g id="patch_43">
    <path d="M 299.171426 130.18578 
L 324.955748 130.18578 
L 324.955748 105.839971 
L 299.171426 105.839971 
z
" clip-path="url(#p4a8525dfde)" style="fill: #ffae42"/>
   </g>
   <g id="patch_44">
    <path d="M 299.171426 105.839971 
L 324.955748 105.839971 
L 324.955748 81.494162 
L 299.171426 81.494162 
z
" clip-path="url(#p4a8525dfde)" style="fill: #ffae42"/>
   </g>
   <g id="patch_45">
    <path d="M 324.955748 105.839971 
L 350.74007 105.839971 
L 350.74007 81.494162 
L 324.955748 81.494162 
z
" clip-path="url(#p4a8525dfde)" style="fill: #ffae42"/>
   </g>
   <g id="patch_46">
    <path d="M 324.955748 81.494162 
L 350.74007 81.494162 
L 350.74007 57.148353 
L 324.955748 57.148353 
z
" clip-path="url(#p4a8525dfde)" style="fill: #ffae42"/>
   </g>
   <g id="patch_47">
    <path d="M 63.610237 354.958125 
L 63.610237 22.318125 
" style="fill: none; stroke: #000000; stroke-width: 0.8; stroke-linejoin: miter; stroke-linecap: square"/>
   </g>
   <g id="patch_48">
    <path d="M 395.744138 354.958125 
L 395.744138 22.318125 
" style="fill: none; stroke: #000000; stroke-width: 0.8; stroke-linejoin: miter; stroke-linecap: square"/>
   </g>
   <g id="patch_49">
    <path d="M 63.610237 354.958125 
L 395.744138 354.958125 
" style="fill: none; stroke: #000000; stroke-width: 0.8; stroke-linejoin: miter; stroke-linecap: square"/>
   </g>
   <g id="patch_50">
    <path d="M 63.610237 22.318125 
L 395.744138 22.318125 
" style="fill: none; stroke: #000000; stroke-width: 0.8; stroke-linejoin: miter; stroke-linecap: square"/>
   </g>
   <g id="LineCollection_1">
    <path d="M 321.616085 309.984105 
L 307.558741 312.77935 
L 307.116057 311.683457 
L 305.554141 311.994062 
L 305.111448 310.89817 
L 297.301895 312.451267 
L 296.85917 311.355381 
L 295.297264 311.666015 
L 294.85453 310.570131 
L 293.292622 310.880769 
L 292.84988 309.784886 
L 291.287969 310.095531 
L 290.845218 308.999649 
L 289.283305 309.310299 
L 288.840545 308.214418 
L 285.716719 308.835733 
L 285.273944 307.739855 
L 283.71203 308.05052 
L 283.269246 306.954643 
L 281.707331 307.265314 
L 281.264537 306.169437 
L 279.70262 306.480114 
L 279.259817 305.384238 
L 277.697897 305.694921 
L 277.255086 304.599046 
L 275.693164 304.909734 
L 272.150502 296.142733 
L 270.588539 296.453437 
L 269.702828 294.261685 
L 268.140857 294.572396 
L 267.697991 293.476521 
L 266.136018 293.787238 
L 265.250264 291.595489 
L 263.688283 291.906213 
L 263.245395 290.81034 
L 261.683412 291.121069 
L 261.240515 290.025196 
L 259.67853 290.335931 
L 259.235624 289.24006 
L 257.673637 289.550801 
L 257.230722 288.45493 
L 255.668733 288.765676 
L 255.225809 287.669807 
L 253.663817 287.980559 
L 253.220884 286.88469 
L 251.65889 287.195448 
L 251.215948 286.099581 
L 249.653952 286.410344 
L 249.211001 285.314477 
L 247.649003 285.625246 
L 246.763079 283.433515 
L 245.201074 283.744291 
L 244.315125 281.552561 
L 242.753111 281.863344 
L 242.310126 280.76748 
L 237.624089 281.699858 
L 237.181084 280.603998 
L 234.057066 281.225607 
L 233.614046 280.129749 
L 232.052036 280.440561 
L 231.609007 279.344705 
L 230.046995 279.655523 
L 229.160915 277.463811 
L 227.598896 277.774636 
L 227.155845 276.678781 
L 225.593824 276.989611 
L 225.150764 275.893757 
L 223.58874 276.204594 
L 223.145671 275.108741 
L 221.583645 275.419582 
L 221.140567 274.32373 
L 216.454494 275.256286 
L 216.011396 274.160438 
L 212.887353 274.782165 
L 212.44424 273.686319 
L 209.3202 274.308066 
L 208.877072 273.212223 
L 201.067004 274.766672 
L 201.510159 275.862508 
L 198.386167 276.484314 
L 195.727116 269.909308 
L 194.165091 270.220226 
L 191.949092 264.74105 
L 190.387043 265.051979 
L 189.057385 261.764473 
L 187.495323 262.07541 
L 186.608856 259.88374 
L 185.046786 260.194685 
L 181.057463 250.332163 
L 182.619583 250.021205 
L 181.73304 247.829526 
L 183.295175 247.51857 
L 182.40863 245.326886 
L 183.970779 245.015931 
L 183.084231 242.824243 
L 184.646395 242.51329 
L 184.203122 241.417444 
L 185.765295 241.106493 
L 185.322023 240.010645 
L 186.884206 239.699697 
L 186.440936 238.603847 
L 184.878748 238.914797 
L 184.43547 237.818948 
L 182.87328 238.129903 
L 182.429992 237.034055 
L 180.8678 237.345016 
L 180.424503 236.249169 
L 178.862309 236.560136 
L 178.419003 235.46429 
L 176.856806 235.775262 
L 175.970174 233.583572 
L 174.407969 233.894551 
L 173.964642 232.798707 
L 172.402436 233.109692 
L 171.072416 229.822161 
L 169.510197 230.133155 
L 169.066844 229.037312 
L 167.504622 229.348311 
L 167.061261 228.252469 
L 165.499037 228.563473 
L 164.612293 226.371791 
L 163.050061 226.682803 
L 162.606678 225.586962 
L 159.482214 226.209001 
L 159.038816 225.113163 
L 157.476583 225.42419 
L 157.033177 224.328353 
L 155.470942 224.639386 
L 155.027526 223.54355 
L 153.465289 223.854588 
L 153.021865 222.758754 
L 151.459626 223.069797 
L 150.572755 220.87813 
L 149.010508 221.189181 
L 148.567062 220.093347 
L 147.004813 220.404404 
L 146.561357 219.308572 
L 144.999106 219.619634 
L 144.555642 218.523803 
L 142.993389 218.834871 
L 142.549915 217.739041 
L 140.98766 218.050114 
L 140.544177 216.954285 
L 137.419666 217.576448 
L 136.976169 216.480621 
L 135.413912 216.79171 
L 134.970406 215.695885 
L 133.408148 216.006979 
L 132.964633 214.911155 
L 131.402372 215.222255 
L 130.958848 214.126431 
L 129.396585 214.437537 
L 128.509515 212.245892 
L 126.947245 212.557005 
L 126.503699 211.461183 
L 123.379157 212.083424 
L 122.935597 210.987605 
L 121.373325 211.298733 
L 120.929756 210.202914 
L 119.367483 210.514049 
L 118.923904 209.418231 
L 117.361628 209.729371 
L 116.918041 208.633554 
L 115.355763 208.9447 
L 114.912166 207.848884 
L 113.349887 208.160035 
L 112.906281 207.064221 
L 111.343999 207.375377 
L 110.900384 206.279564 
L 109.3381 206.590726 
L 105.789012 197.824216 
L 107.351341 197.513042 
L 106.907695 196.417225 
L 108.470033 196.106054 
L 107.582742 193.914416 
L 109.145094 193.603246 
L 108.701449 192.507425 
L 110.263811 192.196259 
L 109.376521 190.004612 
L 110.938898 189.693447 
L 109.607954 186.40597 
L 112.732751 185.783643 
L 113.176391 186.879472 
L 120.988415 185.323736 
L 121.432023 186.419572 
L 122.994433 186.108438 
L 123.438032 187.204275 
L 125.00044 186.893148 
L 125.44403 187.988985 
L 127.006435 187.677864 
L 127.450017 188.773702 
L 130.574826 188.151474 
L 131.018393 189.247315 
L 138.83045 187.691825 
L 138.386911 186.595977 
L 144.636641 185.351655 
L 144.193121 184.255801 
L 145.755568 183.94473 
L 145.31205 182.848873 
L 148.436966 182.226741 
L 147.993456 181.130881 
L 154.24335 179.88666 
L 154.686837 180.982525 
L 168.749251 178.183287 
L 168.305813 177.087409 
L 187.056201 173.355606 
L 186.612827 172.25971 
L 191.300519 171.326849 
L 190.857159 170.230949 
L 193.982315 169.60906 
L 193.538963 168.513157 
L 198.226739 167.580351 
L 197.783401 166.484443 
L 199.346005 166.173514 
L 198.902669 165.077604 
L 200.465282 164.766679 
L 200.021948 163.670767 
L 201.584571 163.359844 
L 201.141238 162.26393 
L 202.70387 161.95301 
L 202.26054 160.857095 
L 205.385825 160.235265 
L 204.942503 159.139346 
L 206.505156 158.828436 
L 206.061836 157.732515 
L 207.624498 157.421607 
L 207.18118 156.325685 
L 208.743852 156.01478 
L 207.413893 152.727006 
L 208.976585 152.416101 
L 208.089939 150.224247 
L 211.215356 149.602444 
L 210.772039 148.506513 
L 213.897481 147.884725 
L 213.454172 146.788791 
L 215.016904 146.477902 
L 214.573597 145.381966 
L 217.699082 144.760197 
L 217.255783 143.664258 
L 218.818536 143.353378 
L 218.375239 142.257437 
L 219.938001 141.946561 
L 219.494707 140.850618 
L 221.057478 140.539744 
L 220.614185 139.443799 
L 222.176966 139.132928 
L 221.733675 138.036981 
L 223.296465 137.726113 
L 222.853176 136.630165 
L 224.415975 136.319299 
L 223.972689 135.223349 
L 225.535496 134.912486 
L 225.092212 133.816534 
L 226.655029 133.505674 
L 226.211747 132.40972 
L 227.774573 132.098863 
L 227.331293 131.002907 
L 228.894128 130.692053 
L 228.45085 129.596095 
L 230.013694 129.285244 
L 229.570419 128.189284 
L 231.133271 127.878435 
L 230.689998 126.782474 
L 235.378594 125.849948 
L 234.935334 124.753982 
L 245.875552 122.578227 
L 245.432328 121.48225 
L 265.750397 117.44209 
L 265.307243 116.346095 
L 268.433163 115.724592 
L 267.990016 114.628593 
L 271.115961 114.007104 
L 270.672821 112.911103 
L 272.235805 112.600363 
L 271.792667 111.504359 
L 273.35566 111.193623 
L 272.912525 110.097617 
L 274.475526 109.786883 
L 274.032393 108.690876 
L 275.595404 108.380145 
L 275.152273 107.284136 
L 276.715293 106.973407 
L 275.829032 104.781385 
L 277.392066 104.470658 
L 276.948937 103.374644 
L 278.51198 103.06392 
L 277.625721 100.871889 
L 279.188779 100.561167 
L 278.74565 99.465149 
L 281.871787 98.843713 
L 281.428666 97.747693 
L 284.554828 97.126271 
L 284.111715 96.030247 
L 285.674807 95.719541 
L 285.231696 94.623515 
L 286.794797 94.312812 
L 286.351688 93.216784 
L 287.914798 92.906083 
L 287.471691 91.810054 
L 290.597933 91.188663 
L 290.154833 90.09263 
L 293.2811 89.471253 
L 292.838009 88.375217 
L 294.401153 88.064533 
L 293.514971 85.872457 
L 295.07813 85.561775 
L 294.191945 83.369694 
L 295.755118 83.059013 
L 295.312026 81.962971 
L 296.875209 81.652292 
L 296.432119 80.556248 
L 297.995311 80.245573 
L 297.552223 79.149527 
L 302.241836 78.217521 
L 301.798761 77.121471 
L 314.304592 74.636297 
L 313.861559 73.540235 
L 321.677843 71.987131 
L 321.234835 70.891061 
L 327.487947 69.648648 
L 327.044958 68.552572 
L 331.734845 67.620802 
L 331.291869 66.524721 
L 334.418489 65.90356 
L 333.975521 64.807476 
L 335.538841 64.4969 
L 336.424763 66.689071 
L 337.988076 66.378502 
L 338.873973 68.570674 
L 340.437278 68.260112 
L 341.32315 70.452285 
L 342.886447 70.141731 
L 343.329372 71.237818 
L 344.892668 70.927269 
L 345.335583 72.023358 
L 346.898877 71.712814 
L 347.784687 73.904993 
L 349.347972 73.594456 
L 350.233758 75.786636 
L 351.797035 75.476107 
L 353.125671 78.764377 
L 351.56241 79.074902 
L 352.005287 80.17099 
L 350.442035 80.481518 
L 350.884915 81.577604 
L 349.321672 81.888135 
L 350.207431 84.080303 
L 348.644203 84.390835 
L 349.972833 87.67908 
L 348.409626 87.989611 
L 348.852501 89.085691 
L 347.289302 89.396225 
L 348.175054 91.58838 
L 346.61187 91.898916 
L 347.497619 94.091066 
L 345.934449 94.401603 
L 346.377324 95.497676 
L 344.814164 95.808216 
L 345.257041 96.904288 
L 343.69389 97.21483 
L 344.136769 98.3109 
L 342.573627 98.621445 
L 343.459386 100.81358 
L 341.896259 101.124127 
L 342.339139 102.220192 
L 340.77602 102.530742 
L 341.661781 104.722868 
L 340.098678 105.03342 
L 340.541559 106.129481 
L 338.978464 106.440035 
L 339.421347 107.536094 
L 337.858261 107.846651 
L 338.301147 108.942708 
L 336.73807 109.253268 
L 337.180957 110.349323 
L 335.61789 110.659886 
L 336.060779 111.755939 
L 334.497721 112.066505 
L 334.940613 113.162556 
L 333.377563 113.473124 
L 333.820457 114.569174 
L 332.257417 114.879745 
L 338.014795 129.128339 
L 339.577763 128.817787 
L 340.46345 131.009875 
L 342.02641 130.69933 
L 342.469243 131.795375 
L 344.032201 131.484835 
L 344.475024 132.580881 
L 346.03798 132.270347 
L 347.809219 136.654532 
L 349.372155 136.344008 
L 351.143316 140.728192 
L 349.580402 141.03871 
L 353.565363 150.903087 
L 352.002503 151.213597 
L 352.445265 152.309635 
L 350.882413 152.620148 
L 351.767938 154.81222 
L 350.205101 155.122734 
L 351.090623 157.314802 
L 349.527801 157.625317 
L 350.413321 159.817381 
L 348.850514 160.127897 
L 349.73603 162.319956 
L 348.173238 162.630474 
L 348.615996 163.726502 
L 345.490433 164.347547 
L 346.818722 167.635619 
L 345.255962 167.946144 
L 347.469736 173.426247 
L 345.907008 173.736769 
L 346.349758 174.832787 
L 344.787039 175.143312 
L 345.67254 177.335344 
L 344.109836 177.64587 
L 344.552587 178.741884 
L 342.989891 179.052413 
L 343.875394 181.244437 
L 342.312713 181.554967 
L 344.083699 185.939004 
L 345.646358 185.62848 
L 347.417266 190.012516 
L 345.85463 190.323035 
L 349.396327 199.091076 
L 347.833739 199.401587 
L 348.276441 200.497589 
L 346.713863 200.808104 
L 347.156567 201.904104 
L 344.031431 202.525142 
L 344.474143 203.621139 
L 335.098853 205.484347 
L 335.541595 206.580335 
L 333.979064 206.890883 
L 336.635478 213.466792 
L 335.072985 213.777336 
L 335.515714 214.873318 
L 333.953229 215.183865 
L 334.395961 216.279845 
L 332.833485 216.590394 
L 333.276219 217.686372 
L 331.713752 217.996924 
L 332.59922 220.188877 
L 331.036768 220.499431 
L 331.479503 221.595405 
L 329.91706 221.905961 
L 330.802529 224.097906 
L 329.240101 224.408463 
L 330.568297 227.696373 
L 329.005889 228.00693 
L 331.219507 233.486764 
L 329.65713 233.797318 
L 330.099849 234.893282 
L 326.975117 235.514401 
L 327.417844 236.610362 
L 324.293138 237.231495 
L 324.735872 238.327453 
L 320.048855 239.259179 
L 320.491603 240.355132 
L 318.929276 240.665715 
L 319.372026 241.761666 
L 317.809709 242.072251 
L 319.580696 246.456045 
L 318.018404 246.766629 
L 318.461148 247.862575 
L 316.898866 248.173162 
L 317.341612 249.269106 
L 315.779338 249.579696 
L 316.222086 250.675638 
L 314.659822 250.98623 
L 315.102572 252.082171 
L 313.540317 252.392766 
L 314.868563 255.680581 
L 313.306328 255.991176 
L 313.749076 257.087112 
L 312.18685 257.39771 
L 313.072346 259.589578 
L 311.510135 259.900177 
L 311.952883 260.996109 
L 310.390681 261.306711 
L 310.833431 262.402641 
L 303.022499 263.955707 
L 305.236341 269.435316 
L 306.798492 269.124702 
L 308.126739 272.412466 
L 309.688877 272.101861 
L 311.459801 276.485547 
L 313.021921 276.174951 
L 314.792768 280.558637 
L 313.230671 280.869227 
L 313.67338 281.965146 
L 315.235471 281.654557 
L 315.678171 282.750477 
L 317.24026 282.439894 
L 317.68295 283.535815 
L 319.245037 283.225237 
L 319.687719 284.321159 
L 321.249804 284.010587 
L 321.692476 285.10651 
L 323.254559 284.795944 
L 325.025192 289.179637 
L 323.463132 289.490198 
L 323.905787 290.586119 
L 322.343736 290.896682 
L 324.114345 295.280356 
L 322.55232 295.590918 
L 323.437615 297.78275 
L 321.875604 298.093313 
L 322.760896 300.28514 
L 321.1989 300.595705 
L 322.08419 302.787528 
L 320.522209 303.098094 
L 322.292769 307.481729 
L 320.730814 307.792293 
L 321.616085 309.984105 
L 321.616085 309.984105 
" clip-path="url(#p4a8525dfde)" style="fill: none; stroke: #000000"/>
   </g>
   <g id="text_20">
    <!-- Hagen_abv_WF_Shoug_WA — Basin cumulative precipitation (fine grid x4) -->
    <g transform="translate(7.2 16.318125) scale(0.12 -0.12)">
     <defs>
      <path id="DejaVuSans-48" d="M 628 4666 
L 1259 4666 
L 1259 2753 
L 3553 2753 
L 3553 4666 
L 4184 4666 
L 4184 0 
L 3553 0 
L 3553 2222 
L 1259 2222 
L 1259 0 
L 628 0 
L 628 4666 
z
" transform="scale(0.015625)"/>
      <path id="DejaVuSans-5f" d="M 3263 -1063 
L 3263 -1509 
L -63 -1509 
L -63 -1063 
L 3263 -1063 
z
" transform="scale(0.015625)"/>
      <path id="DejaVuSans-62" d="M 3116 1747 
Q 3116 2381 2855 2742 
Q 2594 3103 2138 3103 
Q 1681 3103 1420 2742 
Q 1159 2381 1159 1747 
Q 1159 1113 1420 752 
Q 1681 391 2138 391 
Q 2594 391 2855 752 
Q 3116 1113 3116 1747 
z
M 1159 2969 
Q 1341 3281 1617 3432 
Q 1894 3584 2278 3584 
Q 2916 3584 3314 3078 
Q 3713 2572 3713 1747 
Q 3713 922 3314 415 
Q 2916 -91 2278 -91 
Q 1894 -91 1617 61 
Q 1341 213 1159 525 
L 1159 0 
L 581 0 
L 581 4863 
L 1159 4863 
L 1159 2969 
z
" transform="scale(0.015625)"/>
      <path id="DejaVuSans-76" d="M 191 3500 
L 800 3500 
L 1894 563 
L 2988 3500 
L 3597 3500 
L 2284 0 
L 1503 0 
L 191 3500 
z
" transform="scale(0.015625)"/>
      <path id="DejaVuSans-57" d="M 213 4666 
L 850 4666 
L 1831 722 
L 2809 4666 
L 3519 4666 
L 4500 722 
L 5478 4666 
L 6119 4666 
L 4947 0 
L 4153 0 
L 3169 4050 
L 2175 0 
L 1381 0 
L 213 4666 
z
" transform="scale(0.015625)"/>
      <path id="DejaVuSans-46" d="M 628 4666 
L 3309 4666 
L 3309 4134 
L 1259 4134 
L 1259 2759 
L 3109 2759 
L 3109 2228 
L 1259 2228 
L 1259 0 
L 628 0 
L 628 4666 
z
" transform="scale(0.015625)"/>
      <path id="DejaVuSans-53" d="M 3425 4513 
L 3425 3897 
Q 3066 4069 2747 4153 
Q 2428 4238 2131 4238 
Q 1616 4238 1336 4038 
Q 1056 3838 1056 3469 
Q 1056 3159 1242 3001 
Q 1428 2844 1947 2747 
L 2328 2669 
Q 3034 2534 3370 2195 
Q 3706 1856 3706 1288 
Q 3706 609 3251 259 
Q 2797 -91 1919 -91 
Q 1588 -91 1214 -16 
Q 841 59 441 206 
L 441 856 
Q 825 641 1194 531 
Q 1563 422 1919 422 
Q 2459 422 2753 634 
Q 3047 847 3047 1241 
Q 3047 1584 2836 1778 
Q 2625 1972 2144 2069 
L 1759 2144 
Q 1053 2284 737 2584 
Q 422 2884 422 3419 
Q 422 4038 858 4394 
Q 1294 4750 2059 4750 
Q 2388 4750 2728 4690 
Q 3069 4631 3425 4513 
z
" transform="scale(0.015625)"/>
      <path id="DejaVuSans-68" d="M 3513 2113 
L 3513 0 
L 2938 0 
L 2938 2094 
Q 2938 2591 2744 2837 
Q 2550 3084 2163 3084 
Q 1697 3084 1428 2787 
Q 1159 2491 1159 1978 
L 1159 0 
L 581 0 
L 581 4863 
L 1159 4863 
L 1159 2956 
Q 1366 3272 1645 3428 
Q 1925 3584 2291 3584 
Q 2894 3584 3203 3211 
Q 3513 2838 3513 2113 
z
" transform="scale(0.015625)"/>
      <path id="DejaVuSans-41" d="M 2188 4044 
L 1331 1722 
L 3047 1722 
L 2188 4044 
z
M 1831 4666 
L 2547 4666 
L 4325 0 
L 3669 0 
L 3244 1197 
L 1141 1197 
L 716 0 
L 50 0 
L 1831 4666 
z
" transform="scale(0.015625)"/>
      <path id="DejaVuSans-20" transform="scale(0.015625)"/>
      <path id="DejaVuSans-2014" d="M 313 1978 
L 6088 1978 
L 6088 1528 
L 313 1528 
L 313 1978 
z
" transform="scale(0.015625)"/>
      <path id="DejaVuSans-42" d="M 1259 2228 
L 1259 519 
L 2272 519 
Q 2781 519 3026 730 
Q 3272 941 3272 1375 
Q 3272 1813 3026 2020 
Q 2781 2228 2272 2228 
L 1259 2228 
z
M 1259 4147 
L 1259 2741 
L 2194 2741 
Q 2656 2741 2882 2914 
Q 3109 3088 3109 3444 
Q 3109 3797 2882 3972 
Q 2656 4147 2194 4147 
L 1259 4147 
z
M 628 4666 
L 2241 4666 
Q 2963 4666 3353 4366 
Q 3744 4066 3744 3513 
Q 3744 3084 3544 2831 
Q 3344 2578 2956 2516 
Q 3422 2416 3680 2098 
Q 3938 1781 3938 1306 
Q 3938 681 3513 340 
Q 3088 0 2303 0 
L 628 0 
L 628 4666 
z
" transform="scale(0.015625)"/>
      <path id="DejaVuSans-73" d="M 2834 3397 
L 2834 2853 
Q 2591 2978 2328 3040 
Q 2066 3103 1784 3103 
Q 1356 3103 1142 2972 
Q 928 2841 928 2578 
Q 928 2378 1081 2264 
Q 1234 2150 1697 2047 
L 1894 2003 
Q 2506 1872 2764 1633 
Q 3022 1394 3022 966 
Q 3022 478 2636 193 
Q 2250 -91 1575 -91 
Q 1294 -91 989 -36 
Q 684 19 347 128 
L 347 722 
Q 666 556 975 473 
Q 1284 391 1588 391 
Q 1994 391 2212 530 
Q 2431 669 2431 922 
Q 2431 1156 2273 1281 
Q 2116 1406 1581 1522 
L 1381 1569 
Q 847 1681 609 1914 
Q 372 2147 372 2553 
Q 372 3047 722 3315 
Q 1072 3584 1716 3584 
Q 2034 3584 2315 3537 
Q 2597 3491 2834 3397 
z
" transform="scale(0.015625)"/>
      <path id="DejaVuSans-63" d="M 3122 3366 
L 3122 2828 
Q 2878 2963 2633 3030 
Q 2388 3097 2138 3097 
Q 1578 3097 1268 2742 
Q 959 2388 959 1747 
Q 959 1106 1268 751 
Q 1578 397 2138 397 
Q 2388 397 2633 464 
Q 2878 531 3122 666 
L 3122 134 
Q 2881 22 2623 -34 
Q 2366 -91 2075 -91 
Q 1284 -91 818 406 
Q 353 903 353 1747 
Q 353 2603 823 3093 
Q 1294 3584 2113 3584 
Q 2378 3584 2631 3529 
Q 2884 3475 3122 3366 
z
" transform="scale(0.015625)"/>
      <path id="DejaVuSans-6d" d="M 3328 2828 
Q 3544 3216 3844 3400 
Q 4144 3584 4550 3584 
Q 5097 3584 5394 3201 
Q 5691 2819 5691 2113 
L 5691 0 
L 5113 0 
L 5113 2094 
Q 5113 2597 4934 2840 
Q 4756 3084 4391 3084 
Q 3944 3084 3684 2787 
Q 3425 2491 3425 1978 
L 3425 0 
L 2847 0 
L 2847 2094 
Q 2847 2600 2669 2842 
Q 2491 3084 2119 3084 
Q 1678 3084 1418 2786 
Q 1159 2488 1159 1978 
L 1159 0 
L 581 0 
L 581 3500 
L 1159 3500 
L 1159 2956 
Q 1356 3278 1631 3431 
Q 1906 3584 2284 3584 
Q 2666 3584 2933 3390 
Q 3200 3197 3328 2828 
z
" transform="scale(0.015625)"/>
      <path id="DejaVuSans-6c" d="M 603 4863 
L 1178 4863 
L 1178 0 
L 603 0 
L 603 4863 
z
" transform="scale(0.015625)"/>
      <path id="DejaVuSans-70" d="M 1159 525 
L 1159 -1331 
L 581 -1331 
L 581 3500 
L 1159 3500 
L 1159 2969 
Q 1341 3281 1617 3432 
Q 1894 3584 2278 3584 
Q 2916 3584 3314 3078 
Q 3713 2572 3713 1747 
Q 3713 922 3314 415 
Q 2916 -91 2278 -91 
Q 1894 -91 1617 61 
Q 1341 213 1159 525 
z
M 3116 1747 
Q 3116 2381 2855 2742 
Q 2594 3103 2138 3103 
Q 1681 3103 1420 2742 
Q 1159 2381 1159 1747 
Q 1159 1113 1420 752 
Q 1681 391 2138 391 
Q 2594 391 2855 752 
Q 3116 1113 3116 1747 
z
" transform="scale(0.015625)"/>
      <path id="DejaVuSans-72" d="M 2631 2963 
Q 2534 3019 2420 3045 
Q 2306 3072 2169 3072 
Q 1681 3072 1420 2755 
Q 1159 2438 1159 1844 
L 1159 0 
L 581 0 
L 581 3500 
L 1159 3500 
L 1159 2956 
Q 1341 3275 1631 3429 
Q 1922 3584 2338 3584 
Q 2397 3584 2469 3576 
Q 2541 3569 2628 3553 
L 2631 2963 
z
" transform="scale(0.015625)"/>
      <path id="DejaVuSans-28" d="M 1984 4856 
Q 1566 4138 1362 3434 
Q 1159 2731 1159 2009 
Q 1159 1288 1364 580 
Q 1569 -128 1984 -844 
L 1484 -844 
Q 1016 -109 783 600 
Q 550 1309 550 2009 
Q 550 2706 781 3412 
Q 1013 4119 1484 4856 
L 1984 4856 
z
" transform="scale(0.015625)"/>
      <path id="DejaVuSans-66" d="M 2375 4863 
L 2375 4384 
L 1825 4384 
Q 1516 4384 1395 4259 
Q 1275 4134 1275 3809 
L 1275 3500 
L 2222 3500 
L 2222 3053 
L 1275 3053 
L 1275 0 
L 697 0 
L 697 3053 
L 147 3053 
L 147 3500 
L 697 3500 
L 697 3744 
Q 697 4328 969 4595 
Q 1241 4863 1831 4863 
L 2375 4863 
z
" transform="scale(0.015625)"/>
      <path id="DejaVuSans-78" d="M 3513 3500 
L 2247 1797 
L 3578 0 
L 2900 0 
L 1881 1375 
L 863 0 
L 184 0 
L 1544 1831 
L 300 3500 
L 978 3500 
L 1906 2253 
L 2834 3500 
L 3513 3500 
z
" transform="scale(0.015625)"/>
      <path id="DejaVuSans-29" d="M 513 4856 
L 1013 4856 
Q 1481 4119 1714 3412 
Q 1947 2706 1947 2009 
Q 1947 1309 1714 600 
Q 1481 -109 1013 -844 
L 513 -844 
Q 928 -128 1133 580 
Q 1338 1288 1338 2009 
Q 1338 2731 1133 3434 
Q 928 4138 513 4856 
z
" transform="scale(0.015625)"/>
     </defs>
     <use xlink:href="#DejaVuSans-48"/>
     <use xlink:href="#DejaVuSans-61" transform="translate(75.195312 0)"/>
     <use xlink:href="#DejaVuSans-67" transform="translate(136.474609 0)"/>
     <use xlink:href="#DejaVuSans-65" transform="translate(199.951172 0)"/>
     <use xlink:href="#DejaVuSans-6e" transform="translate(261.474609 0)"/>
     <use xlink:href="#DejaVuSans-5f" transform="translate(324.853516 0)"/>
     <use xlink:href="#DejaVuSans-61" transform="translate(374.853516 0)"/>
     <use xlink:href="#DejaVuSans-62" transform="translate(436.132812 0)"/>
     <use xlink:href="#DejaVuSans-76" transform="translate(499.609375 0)"/>
     <use xlink:href="#DejaVuSans-5f" transform="translate(558.789062 0)"/>
     <use xlink:href="#DejaVuSans-57" transform="translate(608.789062 0)"/>
     <use xlink:href="#DejaVuSans-46" transform="translate(707.666016 0)"/>
     <use xlink:href="#DejaVuSans-5f" transform="translate(765.185547 0)"/>
     <use xlink:href="#DejaVuSans-53" transform="translate(815.185547 0)"/>
     <use xlink:href="#DejaVuSans-68" transform="translate(878.662109 0)"/>
     <use xlink:href="#DejaVuSans-6f" transform="translate(942.041016 0)"/>
     <use xlink:href="#DejaVuSans-75" transform="translate(1003.222656 0)"/>
     <use xlink:href="#DejaVuSans-67" transform="translate(1066.601562 0)"/>
     <use xlink:href="#DejaVuSans-5f" transform="translate(1130.078125 0)"/>
     <use xlink:href="#DejaVuSans-57" transform="translate(1180.078125 0)"/>
     <use xlink:href="#DejaVuSans-41" transform="translate(1273.455078 0)"/>
     <use xlink:href="#DejaVuSans-20" transform="translate(1341.863281 0)"/>
     <use xlink:href="#DejaVuSans-2014" transform="translate(1373.650391 0)"/>
     <use xlink:href="#DejaVuSans-20" transform="translate(1473.650391 0)"/>
     <use xlink:href="#DejaVuSans-42" transform="translate(1505.4375 0)"/>
     <use xlink:href="#DejaVuSans-61" transform="translate(1574.041016 0)"/>
     <use xlink:href="#DejaVuSans-73" transform="translate(1635.320312 0)"/>
     <use xlink:href="#DejaVuSans-69" transform="translate(1687.419922 0)"/>
     <use xlink:href="#DejaVuSans-6e" transform="translate(1715.203125 0)"/>
     <use xlink:href="#DejaVuSans-20" transform="translate(1778.582031 0)"/>
     <use xlink:href="#DejaVuSans-63" transform="translate(1810.369141 0)"/>
     <use xlink:href="#DejaVuSans-75" transform="translate(1865.349609 0)"/>
     <use xlink:href="#DejaVuSans-6d" transform="translate(1928.728516 0)"/>
     <use xlink:href="#DejaVuSans-75" transform="translate(2026.140625 0)"/>
     <use xlink:href="#DejaVuSans-6c" transform="translate(2089.519531 0)"/>
     <use xlink:href="#DejaVuSans-61" transform="translate(2117.302734 0)"/>
     <use xlink:href="#DejaVuSans-74" transform="translate(2178.582031 0)"/>
     <use xlink:href="#DejaVuSans-69" transform="translate(2217.791016 0)"/>
     <use xlink:href="#DejaVuSans-76" transform="translate(2245.574219 0)"/>
     <use xlink:href="#DejaVuSans-65" transform="translate(2304.753906 0)"/>
     <use xlink:href="#DejaVuSans-20" transform="translate(2366.277344 0)"/>
     <use xlink:href="#DejaVuSans-70" transform="translate(2398.064453 0)"/>
     <use xlink:href="#DejaVuSans-72" transform="translate(2461.541016 0)"/>
     <use xlink:href="#DejaVuSans-65" transform="translate(2500.404297 0)"/>
     <use xlink:href="#DejaVuSans-63" transform="translate(2561.927734 0)"/>
     <use xlink:href="#DejaVuSans-69" transform="translate(2616.908203 0)"/>
     <use xlink:href="#DejaVuSans-70" transform="translate(2644.691406 0)"/>
     <use xlink:href="#DejaVuSans-69" transform="translate(2708.167969 0)"/>
     <use xlink:href="#DejaVuSans-74" transform="translate(2735.951172 0)"/>
     <use xlink:href="#DejaVuSans-61" transform="translate(2775.160156 0)"/>
     <use xlink:href="#DejaVuSans-74" transform="translate(2836.439453 0)"/>
     <use xlink:href="#DejaVuSans-69" transform="translate(2875.648438 0)"/>
     <use xlink:href="#DejaVuSans-6f" transform="translate(2903.431641 0)"/>
     <use xlink:href="#DejaVuSans-6e" transform="translate(2964.613281 0)"/>
     <use xlink:href="#DejaVuSans-20" transform="translate(3027.992188 0)"/>
     <use xlink:href="#DejaVuSans-28" transform="translate(3059.779297 0)"/>
     <use xlink:href="#DejaVuSans-66" transform="translate(3098.792969 0)"/>
     <use xlink:href="#DejaVuSans-69" transform="translate(3133.998047 0)"/>
     <use xlink:href="#DejaVuSans-6e" transform="translate(3161.78125 0)"/>
     <use xlink:href="#DejaVuSans-65" transform="translate(3225.160156 0)"/>
     <use xlink:href="#DejaVuSans-20" transform="translate(3286.683594 0)"/>
     <use xlink:href="#DejaVuSans-67" transform="translate(3318.470703 0)"/>
     <use xlink:href="#DejaVuSans-72" transform="translate(3381.947266 0)"/>
     <use xlink:href="#DejaVuSans-69" transform="translate(3423.060547 0)"/>
     <use xlink:href="#DejaVuSans-64" transform="translate(3450.84375 0)"/>
     <use xlink:href="#DejaVuSans-20" transform="translate(3514.320312 0)"/>
     <use xlink:href="#DejaVuSans-78" transform="translate(3546.107422 0)"/>
     <use xlink:href="#DejaVuSans-34" transform="translate(3605.287109 0)"/>
     <use xlink:href="#DejaVuSans-29" transform="translate(3668.910156 0)"/>
    </g>
   </g>
   <g id="PatchCollection_1">
    <path d="M 321.616085 309.984105 
L 307.558741 312.77935 
L 307.116057 311.683457 
L 305.554141 311.994062 
L 305.111448 310.89817 
L 297.301895 312.451267 
L 296.85917 311.355381 
L 295.297264 311.666015 
L 294.85453 310.570131 
L 293.292622 310.880769 
L 292.84988 309.784886 
L 291.287969 310.095531 
L 290.845218 308.999649 
L 289.283305 309.310299 
L 288.840545 308.214418 
L 285.716719 308.835733 
L 285.273944 307.739855 
L 283.71203 308.05052 
L 283.269246 306.954643 
L 281.707331 307.265314 
L 281.264537 306.169437 
L 279.70262 306.480114 
L 279.259817 305.384238 
L 277.697897 305.694921 
L 277.255086 304.599046 
L 275.693164 304.909734 
L 272.150502 296.142733 
L 270.588539 296.453437 
L 269.702828 294.261685 
L 268.140857 294.572396 
L 267.697991 293.476521 
L 266.136018 293.787238 
L 265.250264 291.595489 
L 263.688283 291.906213 
L 263.245395 290.81034 
L 261.683412 291.121069 
L 261.240515 290.025196 
L 259.67853 290.335931 
L 259.235624 289.24006 
L 257.673637 289.550801 
L 257.230722 288.45493 
L 255.668733 288.765676 
L 255.225809 287.669807 
L 253.663817 287.980559 
L 253.220884 286.88469 
L 251.65889 287.195448 
L 251.215948 286.099581 
L 249.653952 286.410344 
L 249.211001 285.314477 
L 247.649003 285.625246 
L 246.763079 283.433515 
L 245.201074 283.744291 
L 244.315125 281.552561 
L 242.753111 281.863344 
L 242.310126 280.76748 
L 237.624089 281.699858 
L 237.181084 280.603998 
L 234.057066 281.225607 
L 233.614046 280.129749 
L 232.052036 280.440561 
L 231.609007 279.344705 
L 230.046995 279.655523 
L 229.160915 277.463811 
L 227.598896 277.774636 
L 227.155845 276.678781 
L 225.593824 276.989611 
L 225.150764 275.893757 
L 223.58874 276.204594 
L 223.145671 275.108741 
L 221.583645 275.419582 
L 221.140567 274.32373 
L 216.454494 275.256286 
L 216.011396 274.160438 
L 212.887353 274.782165 
L 212.44424 273.686319 
L 209.3202 274.308066 
L 208.877072 273.212223 
L 201.067004 274.766672 
L 201.510159 275.862508 
L 198.386167 276.484314 
L 195.727116 269.909308 
L 194.165091 270.220226 
L 191.949092 264.74105 
L 190.387043 265.051979 
L 189.057385 261.764473 
L 187.495323 262.07541 
L 186.608856 259.88374 
L 185.046786 260.194685 
L 181.057463 250.332163 
L 182.619583 250.021205 
L 181.73304 247.829526 
L 183.295175 247.51857 
L 182.40863 245.326886 
L 183.970779 245.015931 
L 183.084231 242.824243 
L 184.646395 242.51329 
L 184.203122 241.417444 
L 185.765295 241.106493 
L 185.322023 240.010645 
L 186.884206 239.699697 
L 186.440936 238.603847 
L 184.878748 238.914797 
L 184.43547 237.818948 
L 182.87328 238.129903 
L 182.429992 237.034055 
L 180.8678 237.345016 
L 180.424503 236.249169 
L 178.862309 236.560136 
L 178.419003 235.46429 
L 176.856806 235.775262 
L 175.970174 233.583572 
L 174.407969 233.894551 
L 173.964642 232.798707 
L 172.402436 233.109692 
L 171.072416 229.822161 
L 169.510197 230.133155 
L 169.066844 229.037312 
L 167.504622 229.348311 
L 167.061261 228.252469 
L 165.499037 228.563473 
L 164.612293 226.371791 
L 163.050061 226.682803 
L 162.606678 225.586962 
L 159.482214 226.209001 
L 159.038816 225.113163 
L 157.476583 225.42419 
L 157.033177 224.328353 
L 155.470942 224.639386 
L 155.027526 223.54355 
L 153.465289 223.854588 
L 153.021865 222.758754 
L 151.459626 223.069797 
L 150.572755 220.87813 
L 149.010508 221.189181 
L 148.567062 220.093347 
L 147.004813 220.404404 
L 146.561357 219.308572 
L 144.999106 219.619634 
L 144.555642 218.523803 
L 142.993389 218.834871 
L 142.549915 217.739041 
L 140.98766 218.050114 
L 140.544177 216.954285 
L 137.419666 217.576448 
L 136.976169 216.480621 
L 135.413912 216.79171 
L 134.970406 215.695885 
L 133.408148 216.006979 
L 132.964633 214.911155 
L 131.402372 215.222255 
L 130.958848 214.126431 
L 129.396585 214.437537 
L 128.509515 212.245892 
L 126.947245 212.557005 
L 126.503699 211.461183 
L 123.379157 212.083424 
L 122.935597 210.987605 
L 121.373325 211.298733 
L 120.929756 210.202914 
L 119.367483 210.514049 
L 118.923904 209.418231 
L 117.361628 209.729371 
L 116.918041 208.633554 
L 115.355763 208.9447 
L 114.912166 207.848884 
L 113.349887 208.160035 
L 112.906281 207.064221 
L 111.343999 207.375377 
L 110.900384 206.279564 
L 109.3381 206.590726 
L 105.789012 197.824216 
L 107.351341 197.513042 
L 106.907695 196.417225 
L 108.470033 196.106054 
L 107.582742 193.914416 
L 109.145094 193.603246 
L 108.701449 192.507425 
L 110.263811 192.196259 
L 109.376521 190.004612 
L 110.938898 189.693447 
L 109.607954 186.40597 
L 112.732751 185.783643 
L 113.176391 186.879472 
L 120.988415 185.323736 
L 121.432023 186.419572 
L 122.994433 186.108438 
L 123.438032 187.204275 
L 125.00044 186.893148 
L 125.44403 187.988985 
L 127.006435 187.677864 
L 127.450017 188.773702 
L 130.574826 188.151474 
L 131.018393 189.247315 
L 138.83045 187.691825 
L 138.386911 186.595977 
L 144.636641 185.351655 
L 144.193121 184.255801 
L 145.755568 183.94473 
L 145.31205 182.848873 
L 148.436966 182.226741 
L 147.993456 181.130881 
L 154.24335 179.88666 
L 154.686837 180.982525 
L 168.749251 178.183287 
L 168.305813 177.087409 
L 187.056201 173.355606 
L 186.612827 172.25971 
L 191.300519 171.326849 
L 190.857159 170.230949 
L 193.982315 169.60906 
L 193.538963 168.513157 
L 198.226739 167.580351 
L 197.783401 166.484443 
L 199.346005 166.173514 
L 198.902669 165.077604 
L 200.465282 164.766679 
L 200.021948 163.670767 
L 201.584571 163.359844 
L 201.141238 162.26393 
L 202.70387 161.95301 
L 202.26054 160.857095 
L 205.385825 160.235265 
L 204.942503 159.139346 
L 206.505156 158.828436 
L 206.061836 157.732515 
L 207.624498 157.421607 
L 207.18118 156.325685 
L 208.743852 156.01478 
L 207.413893 152.727006 
L 208.976585 152.416101 
L 208.089939 150.224247 
L 211.215356 149.602444 
L 210.772039 148.506513 
L 213.897481 147.884725 
L 213.454172 146.788791 
L 215.016904 146.477902 
L 214.573597 145.381966 
L 217.699082 144.760197 
L 217.255783 143.664258 
L 218.818536 143.353378 
L 218.375239 142.257437 
L 219.938001 141.946561 
L 219.494707 140.850618 
L 221.057478 140.539744 
L 220.614185 139.443799 
L 222.176966 139.132928 
L 221.733675 138.036981 
L 223.296465 137.726113 
L 222.853176 136.630165 
L 224.415975 136.319299 
L 223.972689 135.223349 
L 225.535496 134.912486 
L 225.092212 133.816534 
L 226.655029 133.505674 
L 226.211747 132.40972 
L 227.774573 132.098863 
L 227.331293 131.002907 
L 228.894128 130.692053 
L 228.45085 129.596095 
L 230.013694 129.285244 
L 229.570419 128.189284 
L 231.133271 127.878435 
L 230.689998 126.782474 
L 235.378594 125.849948 
L 234.935334 124.753982 
L 245.875552 122.578227 
L 245.432328 121.48225 
L 265.750397 117.44209 
L 265.307243 116.346095 
L 268.433163 115.724592 
L 267.990016 114.628593 
L 271.115961 114.007104 
L 270.672821 112.911103 
L 272.235805 112.600363 
L 271.792667 111.504359 
L 273.35566 111.193623 
L 272.912525 110.097617 
L 274.475526 109.786883 
L 274.032393 108.690876 
L 275.595404 108.380145 
L 275.152273 107.284136 
L 276.715293 106.973407 
L 275.829032 104.781385 
L 277.392066 104.470658 
L 276.948937 103.374644 
L 278.51198 103.06392 
L 277.625721 100.871889 
L 279.188779 100.561167 
L 278.74565 99.465149 
L 281.871787 98.843713 
L 281.428666 97.747693 
L 284.554828 97.126271 
L 284.111715 96.030247 
L 285.674807 95.719541 
L 285.231696 94.623515 
L 286.794797 94.312812 
L 286.351688 93.216784 
L 287.914798 92.906083 
L 287.471691 91.810054 
L 290.597933 91.188663 
L 290.154833 90.09263 
L 293.2811 89.471253 
L 292.838009 88.375217 
L 294.401153 88.064533 
L 293.514971 85.872457 
L 295.07813 85.561775 
L 294.191945 83.369694 
L 295.755118 83.059013 
L 295.312026 81.962971 
L 296.875209 81.652292 
L 296.432119 80.556248 
L 297.995311 80.245573 
L 297.552223 79.149527 
L 302.241836 78.217521 
L 301.798761 77.121471 
L 314.304592 74.636297 
L 313.861559 73.540235 
L 321.677843 71.987131 
L 321.234835 70.891061 
L 327.487947 69.648648 
L 327.044958 68.552572 
L 331.734845 67.620802 
L 331.291869 66.524721 
L 334.418489 65.90356 
L 333.975521 64.807476 
L 335.538841 64.4969 
L 336.424763 66.689071 
L 337.988076 66.378502 
L 338.873973 68.570674 
L 340.437278 68.260112 
L 341.32315 70.452285 
L 342.886447 70.141731 
L 343.329372 71.237818 
L 344.892668 70.927269 
L 345.335583 72.023358 
L 346.898877 71.712814 
L 347.784687 73.904993 
L 349.347972 73.594456 
L 350.233758 75.786636 
L 351.797035 75.476107 
L 353.125671 78.764377 
L 351.56241 79.074902 
L 352.005287 80.17099 
L 350.442035 80.481518 
L 350.884915 81.577604 
L 349.321672 81.888135 
L 350.207431 84.080303 
L 348.644203 84.390835 
L 349.972833 87.67908 
L 348.409626 87.989611 
L 348.852501 89.085691 
L 347.289302 89.396225 
L 348.175054 91.58838 
L 346.61187 91.898916 
L 347.497619 94.091066 
L 345.934449 94.401603 
L 346.377324 95.497676 
L 344.814164 95.808216 
L 345.257041 96.904288 
L 343.69389 97.21483 
L 344.136769 98.3109 
L 342.573627 98.621445 
L 343.459386 100.81358 
L 341.896259 101.124127 
L 342.339139 102.220192 
L 340.77602 102.530742 
L 341.661781 104.722868 
L 340.098678 105.03342 
L 340.541559 106.129481 
L 338.978464 106.440035 
L 339.421347 107.536094 
L 337.858261 107.846651 
L 338.301147 108.942708 
L 336.73807 109.253268 
L 337.180957 110.349323 
L 335.61789 110.659886 
L 336.060779 111.755939 
L 334.497721 112.066505 
L 334.940613 113.162556 
L 333.377563 113.473124 
L 333.820457 114.569174 
L 332.257417 114.879745 
L 338.014795 129.128339 
L 339.577763 128.817787 
L 340.46345 131.009875 
L 342.02641 130.69933 
L 342.469243 131.795375 
L 344.032201 131.484835 
L 344.475024 132.580881 
L 346.03798 132.270347 
L 347.809219 136.654532 
L 349.372155 136.344008 
L 351.143316 140.728192 
L 349.580402 141.03871 
L 353.565363 150.903087 
L 352.002503 151.213597 
L 352.445265 152.309635 
L 350.882413 152.620148 
L 351.767938 154.81222 
L 350.205101 155.122734 
L 351.090623 157.314802 
L 349.527801 157.625317 
L 350.413321 159.817381 
L 348.850514 160.127897 
L 349.73603 162.319956 
L 348.173238 162.630474 
L 348.615996 163.726502 
L 345.490433 164.347547 
L 346.818722 167.635619 
L 345.255962 167.946144 
L 347.469736 173.426247 
L 345.907008 173.736769 
L 346.349758 174.832787 
L 344.787039 175.143312 
L 345.67254 177.335344 
L 344.109836 177.64587 
L 344.552587 178.741884 
L 342.989891 179.052413 
L 343.875394 181.244437 
L 342.312713 181.554967 
L 344.083699 185.939004 
L 345.646358 185.62848 
L 347.417266 190.012516 
L 345.85463 190.323035 
L 349.396327 199.091076 
L 347.833739 199.401587 
L 348.276441 200.497589 
L 346.713863 200.808104 
L 347.156567 201.904104 
L 344.031431 202.525142 
L 344.474143 203.621139 
L 335.098853 205.484347 
L 335.541595 206.580335 
L 333.979064 206.890883 
L 336.635478 213.466792 
L 335.072985 213.777336 
L 335.515714 214.873318 
L 333.953229 215.183865 
L 334.395961 216.279845 
L 332.833485 216.590394 
L 333.276219 217.686372 
L 331.713752 217.996924 
L 332.59922 220.188877 
L 331.036768 220.499431 
L 331.479503 221.595405 
L 329.91706 221.905961 
L 330.802529 224.097906 
L 329.240101 224.408463 
L 330.568297 227.696373 
L 329.005889 228.00693 
L 331.219507 233.486764 
L 329.65713 233.797318 
L 330.099849 234.893282 
L 326.975117 235.514401 
L 327.417844 236.610362 
L 324.293138 237.231495 
L 324.735872 238.327453 
L 320.048855 239.259179 
L 320.491603 240.355132 
L 318.929276 240.665715 
L 319.372026 241.761666 
L 317.809709 242.072251 
L 319.580696 246.456045 
L 318.018404 246.766629 
L 318.461148 247.862575 
L 316.898866 248.173162 
L 317.341612 249.269106 
L 315.779338 249.579696 
L 316.222086 250.675638 
L 314.659822 250.98623 
L 315.102572 252.082171 
L 313.540317 252.392766 
L 314.868563 255.680581 
L 313.306328 255.991176 
L 313.749076 257.087112 
L 312.18685 257.39771 
L 313.072346 259.589578 
L 311.510135 259.900177 
L 311.952883 260.996109 
L 310.390681 261.306711 
L 310.833431 262.402641 
L 303.022499 263.955707 
L 305.236341 269.435316 
L 306.798492 269.124702 
L 308.126739 272.412466 
L 309.688877 272.101861 
L 311.459801 276.485547 
L 313.021921 276.174951 
L 314.792768 280.558637 
L 313.230671 280.869227 
L 313.67338 281.965146 
L 315.235471 281.654557 
L 315.678171 282.750477 
L 317.24026 282.439894 
L 317.68295 283.535815 
L 319.245037 283.225237 
L 319.687719 284.321159 
L 321.249804 284.010587 
L 321.692476 285.10651 
L 323.254559 284.795944 
L 325.025192 289.179637 
L 323.463132 289.490198 
L 323.905787 290.586119 
L 322.343736 290.896682 
L 324.114345 295.280356 
L 322.55232 295.590918 
L 323.437615 297.78275 
L 321.875604 298.093313 
L 322.760896 300.28514 
L 321.1989 300.595705 
L 322.08419 302.787528 
L 320.522209 303.098094 
L 322.292769 307.481729 
L 320.730814 307.792293 
L 321.616085 309.984105 
L 321.616085 309.984105 
" clip-path="url(#p4a8525dfde)" style="fill: none; stroke: #000000"/>
   </g>
  </g>
  <g id="axes_2">
   <g id="patch_51">
    <path d="M 523.077188 337.678125 
L 537.477188 337.678125 
L 537.477188 49.678125 
L 523.077188 49.678125 
z
" style="fill: #ffffff"/>
   </g>
   <g id="patch_52">
    <path d="M 523.077188 49.678125 
L 530.277188 35.278125 
L 537.477188 49.678125 
" style="fill: #1a237e"/>
   </g>
   <g id="QuadMesh_1">
    <path d="M 523.077188 337.678125 
L 537.477188 337.678125 
L 537.477188 313.678125 
L 523.077188 313.678125 
L 523.077188 337.678125 
" clip-path="url(#pa697b7a84e)" style="fill: #ffffff"/>
    <path d="M 523.077188 313.678125 
L 537.477188 313.678125 
L 537.477188 289.678125 
L 523.077188 289.678125 
L 523.077188 313.678125 
" clip-path="url(#pa697b7a84e)" style="fill: #c8facc"/>
    <path d="M 523.077188 289.678125 
L 537.477188 289.678125 
L 537.477188 265.678125 
L 523.077188 265.678125 
L 523.077188 289.678125 
" clip-path="url(#pa697b7a84e)" style="fill: #7be37c"/>
    <path d="M 523.077188 265.678125 
L 537.477188 265.678125 
L 537.477188 241.678125 
L 523.077188 241.678125 
L 523.077188 265.678125 
" clip-path="url(#pa697b7a84e)" style="fill: #c7f266"/>
    <path d="M 523.077188 241.678125 
L 537.477188 241.678125 
L 537.477188 217.678125 
L 523.077188 217.678125 
L 523.077188 241.678125 
" clip-path="url(#pa697b7a84e)" style="fill: #ffe66b"/>
    <path d="M 523.077188 217.678125 
L 537.477188 217.678125 
L 537.477188 193.678125 
L 523.077188 193.678125 
L 523.077188 217.678125 
" clip-path="url(#pa697b7a84e)" style="fill: #ffae42"/>
    <path d="M 523.077188 193.678125 
L 537.477188 193.678125 
L 537.477188 169.678125 
L 523.077188 169.678125 
L 523.077188 193.678125 
" clip-path="url(#pa697b7a84e)" style="fill: #ff6d3a"/>
    <path d="M 523.077188 169.678125 
L 537.477188 169.678125 
L 537.477188 145.678125 
L 523.077188 145.678125 
L 523.077188 169.678125 
" clip-path="url(#pa697b7a84e)" style="fill: #e53228"/>
    <path d="M 523.077188 145.678125 
L 537.477188 145.678125 
L 537.477188 121.678125 
L 523.077188 121.678125 
L 523.077188 145.678125 
" clip-path="url(#pa697b7a84e)" style="fill: #b3175b"/>
    <path d="M 523.077188 121.678125 
L 537.477188 121.678125 
L 537.477188 97.678125 
L 523.077188 97.678125 
L 523.077188 121.678125 
" clip-path="url(#pa697b7a84e)" style="fill: #6a1b9a"/>
    <path d="M 523.077188 97.678125 
L 537.477188 97.678125 
L 537.477188 73.678125 
L 523.077188 73.678125 
L 523.077188 97.678125 
" clip-path="url(#pa697b7a84e)" style="fill: #4a148c"/>
    <path d="M 523.077188 73.678125 
L 537.477188 73.678125 
L 537.477188 49.678125 
L 523.077188 49.678125 
L 523.077188 73.678125 
" clip-path="url(#pa697b7a84e)" style="fill: #311b92"/>
   </g>
   <g id="matplotlib.axis_3"/>
   <g id="matplotlib.axis_4">
    <g id="ytick_9">
     <g id="line2d_17">
      <defs>
       <path id="m398cc7ff63" d="M 0 0 
L 3.5 0 
" style="stroke: #000000; stroke-width: 0.8"/>
      </defs>
      <g>
       <use xlink:href="#m398cc7ff63" x="537.477188" y="337.678125" style="stroke: #000000; stroke-width: 0.8"/>
      </g>
     </g>
     <g id="text_21">
      <!-- 0 -->
      <g transform="translate(544.477188 341.477344) scale(0.1 -0.1)">
       <use xlink:href="#DejaVuSans-30"/>
      </g>
     </g>
    </g>
    <g id="ytick_10">
     <g id="line2d_18">
      <g>
       <use xlink:href="#m398cc7ff63" x="537.477188" y="313.678125" style="stroke: #000000; stroke-width: 0.8"/>
      </g>
     </g>
     <g id="text_22">
      <!-- 0.01 -->
      <g transform="translate(544.477188 317.477344) scale(0.1 -0.1)">
       <use xlink:href="#DejaVuSans-30"/>
       <use xlink:href="#DejaVuSans-2e" transform="translate(63.623047 0)"/>
       <use xlink:href="#DejaVuSans-30" transform="translate(95.410156 0)"/>
       <use xlink:href="#DejaVuSans-31" transform="translate(159.033203 0)"/>
      </g>
     </g>
    </g>
    <g id="ytick_11">
     <g id="line2d_19">
      <g>
       <use xlink:href="#m398cc7ff63" x="537.477188" y="289.678125" style="stroke: #000000; stroke-width: 0.8"/>
      </g>
     </g>
     <g id="text_23">
      <!-- 0.1 -->
      <g transform="translate(544.477188 293.477344) scale(0.1 -0.1)">
       <use xlink:href="#DejaVuSans-30"/>
       <use xlink:href="#DejaVuSans-2e" transform="translate(63.623047 0)"/>
       <use xlink:href="#DejaVuSans-31" transform="translate(95.410156 0)"/>
      </g>
     </g>
    </g>
    <g id="ytick_12">
     <g id="line2d_20">
      <g>
       <use xlink:href="#m398cc7ff63" x="537.477188" y="265.678125" style="stroke: #000000; stroke-width: 0.8"/>
      </g>
     </g>
     <g id="text_24">
      <!-- 0.25 -->
      <g transform="translate(544.477188 269.477344) scale(0.1 -0.1)">
       <use xlink:href="#DejaVuSans-30"/>
       <use xlink:href="#DejaVuSans-2e" transform="translate(63.623047 0)"/>
       <use xlink:href="#DejaVuSans-32" transform="translate(95.410156 0)"/>
       <use xlink:href="#DejaVuSans-35" transform="translate(159.033203 0)"/>
      </g>
     </g>
    </g>
    <g id="ytick_13">
     <g id="line2d_21">
      <g>
       <use xlink:href="#m398cc7ff63" x="537.477188" y="241.678125" style="stroke: #000000; stroke-width: 0.8"/>
      </g>
     </g>
     <g id="text_25">
      <!-- 0.5 -->
      <g transform="translate(544.477188 245.477344) scale(0.1 -0.1)">
       <use xlink:href="#DejaVuSans-30"/>
       <use xlink:href="#DejaVuSans-2e" transform="translate(63.623047 0)"/>
       <use xlink:href="#DejaVuSans-35" transform="translate(95.410156 0)"/>
      </g>
     </g>
    </g>
    <g id="ytick_14">
     <g id="line2d_22">
      <g>
       <use xlink:href="#m398cc7ff63" x="537.477188" y="217.678125" style="stroke: #000000; stroke-width: 0.8"/>
      </g>
     </g>
     <g id="text_26">
      <!-- 1 -->
      <g transform="translate(544.477188 221.477344) scale(0.1 -0.1)">
       <use xlink:href="#DejaVuSans-31"/>
      </g>
     </g>
    </g>
    <g id="ytick_15">
     <g id="line2d_23">
      <g>
       <use xlink:href="#m398cc7ff63" x="537.477188" y="193.678125" style="stroke: #000000; stroke-width: 0.8"/>
      </g>
     </g>
     <g id="text_27">
      <!-- 2 -->
      <g transform="translate(544.477188 197.477344) scale(0.1 -0.1)">
       <use xlink:href="#DejaVuSans-32"/>
      </g>
     </g>
    </g>
    <g id="ytick_16">
     <g id="line2d_24">
      <g>
       <use xlink:href="#m398cc7ff63" x="537.477188" y="169.678125" style="stroke: #000000; stroke-width: 0.8"/>
      </g>
     </g>
     <g id="text_28">
      <!-- 3 -->
      <g transform="translate(544.477188 173.477344) scale(0.1 -0.1)">
       <use xlink:href="#DejaVuSans-33"/>
      </g>
     </g>
    </g>
    <g id="ytick_17">
     <g id="line2d_25">
      <g>
       <use xlink:href="#m398cc7ff63" x="537.477188" y="145.678125" style="stroke: #000000; stroke-width: 0.8"/>
      </g>
     </g>
     <g id="text_29">
      <!-- 4 -->
      <g transform="translate(544.477188 149.477344) scale(0.1 -0.1)">
       <use xlink:href="#DejaVuSans-34"/>
      </g>
     </g>
    </g>
    <g id="ytick_18">
     <g id="line2d_26">
      <g>
       <use xlink:href="#m398cc7ff63" x="537.477188" y="121.678125" style="stroke: #000000; stroke-width: 0.8"/>
      </g>
     </g>
     <g id="text_30">
      <!-- 5 -->
      <g transform="translate(544.477188 125.477344) scale(0.1 -0.1)">
       <use xlink:href="#DejaVuSans-35"/>
      </g>
     </g>
    </g>
    <g id="ytick_19">
     <g id="line2d_27">
      <g>
       <use xlink:href="#m398cc7ff63" x="537.477188" y="97.678125" style="stroke: #000000; stroke-width: 0.8"/>
      </g>
     </g>
     <g id="text_31">
      <!-- 6 -->
      <g transform="translate(544.477188 101.477344) scale(0.1 -0.1)">
       <use xlink:href="#DejaVuSans-36"/>
      </g>
     </g>
    </g>
    <g id="ytick_20">
     <g id="line2d_28">
      <g>
       <use xlink:href="#m398cc7ff63" x="537.477188" y="73.678125" style="stroke: #000000; stroke-width: 0.8"/>
      </g>
     </g>
     <g id="text_32">
      <!-- 8 -->
      <g transform="translate(544.477188 77.477344) scale(0.1 -0.1)">
       <use xlink:href="#DejaVuSans-38"/>
      </g>
     </g>
    </g>
    <g id="ytick_21">
     <g id="line2d_29">
      <g>
       <use xlink:href="#m398cc7ff63" x="537.477188" y="49.678125" style="stroke: #000000; stroke-width: 0.8"/>
      </g>
     </g>
     <g id="text_33">
      <!-- 10 -->
      <g transform="translate(544.477188 53.477344) scale(0.1 -0.1)">
       <use xlink:href="#DejaVuSans-31"/>
       <use xlink:href="#DejaVuSans-30" transform="translate(63.623047 0)"/>
      </g>
     </g>
    </g>
    <g id="text_34">
     <!-- Cumulative precipitation (in) -->
     <g transform="translate(578.34125 265.35) rotate(-90) scale(0.1 -0.1)">
      <defs>
       <path id="DejaVuSans-43" d="M 4122 4306 
L 4122 3641 
Q 3803 3938 3442 4084 
Q 3081 4231 2675 4231 
Q 1875 4231 1450 3742 
Q 1025 3253 1025 2328 
Q 1025 1406 1450 917 
Q 1875 428 2675 428 
Q 3081 428 3442 575 
Q 3803 722 4122 1019 
L 4122 359 
Q 3791 134 3420 21 
Q 3050 -91 2638 -91 
Q 1578 -91 968 557 
Q 359 1206 359 2328 
Q 359 3453 968 4101 
Q 1578 4750 2638 4750 
Q 3056 4750 3426 4639 
Q 3797 4528 4122 4306 
z
" transform="scale(0.015625)"/>
      </defs>
      <use xlink:href="#DejaVuSans-43"/>
      <use xlink:href="#DejaVuSans-75" transform="translate(69.824219 0)"/>
      <use xlink:href="#DejaVuSans-6d" transform="translate(133.203125 0)"/>
      <use xlink:href="#DejaVuSans-75" transform="translate(230.615234 0)"/>
      <use xlink:href="#DejaVuSans-6c" transform="translate(293.994141 0)"/>
      <use xlink:href="#DejaVuSans-61" transform="translate(321.777344 0)"/>
      <use xlink:href="#DejaVuSans-74" transform="translate(383.056641 0)"/>
      <use xlink:href="#DejaVuSans-69" transform="translate(422.265625 0)"/>
      <use xlink:href="#DejaVuSans-76" transform="translate(450.048828 0)"/>
      <use xlink:href="#DejaVuSans-65" transform="translate(509.228516 0)"/>
      <use xlink:href="#DejaVuSans-20" transform="translate(570.751953 0)"/>
      <use xlink:href="#DejaVuSans-70" transform="translate(602.539062 0)"/>
      <use xlink:href="#DejaVuSans-72" transform="translate(666.015625 0)"/>
      <use xlink:href="#DejaVuSans-65" transform="translate(704.878906 0)"/>
      <use xlink:href="#DejaVuSans-63" transform="translate(766.402344 0)"/>
      <use xlink:href="#DejaVuSans-69" transform="translate(821.382812 0)"/>
      <use xlink:href="#DejaVuSans-70" transform="translate(849.166016 0)"/>
      <use xlink:href="#DejaVuSans-69" transform="translate(912.642578 0)"/>
      <use xlink:href="#DejaVuSans-74" transform="translate(940.425781 0)"/>
      <use xlink:href="#DejaVuSans-61" transform="translate(979.634766 0)"/>
      <use xlink:href="#DejaVuSans-74" transform="translate(1040.914062 0)"/>
      <use xlink:href="#DejaVuSans-69" transform="translate(1080.123047 0)"/>
      <use xlink:href="#DejaVuSans-6f" transform="translate(1107.90625 0)"/>
      <use xlink:href="#DejaVuSans-6e" transform="translate(1169.087891 0)"/>
      <use xlink:href="#DejaVuSans-20" transform="translate(1232.466797 0)"/>
      <use xlink:href="#DejaVuSans-28" transform="translate(1264.253906 0)"/>
      <use xlink:href="#DejaVuSans-69" transform="translate(1303.267578 0)"/>
      <use xlink:href="#DejaVuSans-6e" transform="translate(1331.050781 0)"/>
      <use xlink:href="#DejaVuSans-29" transform="translate(1394.429688 0)"/>
     </g>
    </g>
   </g>
   <g id="LineCollection_2"/>
   <g id="patch_53">
    <path d="M 523.077188 337.678125 
L 530.277188 337.678125 
L 537.477188 337.678125 
L 537.477188 49.678125 
L 530.277188 35.278125 
L 523.077188 49.678125 
L 523.077188 337.678125 
z
" style="fill: none; stroke: #000000; stroke-width: 0.8; stroke-linejoin: miter; stroke-linecap: square"/>
   </g>
  </g>
 </g>
 <defs>
  <clipPath id="p4a8525dfde">
   <rect x="63.610237" y="22.318125" width="332.133901" height="332.64"/>
  </clipPath>
  <clipPath id="pa697b7a84e">
   <rect x="523.077188" y="49.678125" width="14.4" height="288"/>
  </clipPath>
 </defs>
</svg>
