<?xml version="1.0" encoding="utf-8" standalone="no"?>
<!DOCTYPE svg PUBLIC "-//W3C//DTD SVG 1.1//EN"
  "http://www.w3.org/Graphics/SVG/1.1/DTD/svg11.dtd">
<svg xmlns:xlink="http://www.w3.org/1999/xlink" width="643.246562pt" height="392.514375pt" viewBox="0 0 643.246562 392.514375" xmlns="http://www.w3.org/2000/svg" version="1.1">
 <metadata>
  <rdf:RDF xmlns:dc="http://purl.org/dc/elements/1.1/" xmlns:cc="http://creativecommons.org/ns#" xmlns:rdf="http://www.w3.org/1999/02/22-rdf-syntax-ns#">
   <cc:Work>
    <dc:type rdf:resource="http://purl.org/dc/dcmitype/StillImage"/>
    <dc:date>2025-11-06T18:06:13.567093</dc:date>
    <dc:format>image/svg+xml</dc:format>
    <dc:creator>
     <cc:Agent>
      <dc:title>Matplotlib v3.10.0, https://matplotlib.org/</dc:title>
     </cc:Agent>
    </dc:creator>
   </cc:Work>
  </rdf:RDF>
 </metadata>
 <defs>
  <style type="text/css">*{stroke-linejoin: round; stroke-linecap: butt}</style>
 </defs>
 <g id="figure_1">
  <g id="patch_1">
   <path d="M 0 392.514375 
L 643.246562 392.514375 
L 643.246562 0 
L 0 0 
z
" style="fill: #ffffff"/>
  </g>
  <g id="axes_1">
   <g id="patch_2">
    <path d="M 84.20034 354.958125 
L 486.405285 354.958125 
L 486.405285 22.318125 
L 84.20034 22.318125 
z
" style="fill: #ffffff"/>
   </g>
   <g id="patch_3">
    <path d="M 189.73728 301.168435 
L 215.254996 301.168435 
L 215.254996 277.074358 
L 189.73728 277.074358 
z
" clip-path="url(#pc7f0349b7d)" style="fill: #ffae42"/>
   </g>
   <g id="patch_4">
    <path d="M 215.254996 301.168435 
L 240.772711 301.168435 
L 240.772711 277.074358 
L 215.254996 277.074358 
z
" clip-path="url(#pc7f0349b7d)" style="fill: #ffae42"/>
   </g>
   <g id="patch_5">
    <path d="M 240.772711 301.168435 
L 266.290426 301.168435 
L 266.290426 277.074358 
L 240.772711 277.074358 
z
" clip-path="url(#pc7f0349b7d)" style="fill: #ffae42"/>
   </g>
   <g id="patch_6">
    <path d="M 266.290426 301.168435 
L 291.808142 301.168435 
L 291.808142 277.074358 
L 266.290426 277.074358 
z
" clip-path="url(#pc7f0349b7d)" style="fill: #ffae42"/>
   </g>
   <g id="patch_7">
    <path d="M 291.808142 301.168435 
L 317.325857 301.168435 
L 317.325857 277.074358 
L 291.808142 277.074358 
z
" clip-path="url(#pc7f0349b7d)" style="fill: #ffae42"/>
   </g>
   <g id="patch_8">
    <path d="M 317.325857 301.168435 
L 342.843572 301.168435 
L 342.843572 277.074358 
L 317.325857 277.074358 
z
" clip-path="url(#pc7f0349b7d)" style="fill: #ffae42"/>
   </g>
   <g id="patch_9">
    <path d="M 342.843572 301.168435 
L 368.361288 301.168435 
L 368.361288 277.074358 
L 342.843572 277.074358 
z
" clip-path="url(#pc7f0349b7d)" style="fill: #ffae42"/>
   </g>
   <g id="patch_10">
    <path d="M 138.701849 277.074358 
L 164.219565 277.074358 
L 164.219565 252.980281 
L 138.701849 252.980281 
z
" clip-path="url(#pc7f0349b7d)" style="fill: #ffae42"/>
   </g>
   <g id="patch_11">
    <path d="M 164.219565 277.074358 
L 189.73728 277.074358 
L 189.73728 252.980281 
L 164.219565 252.980281 
z
" clip-path="url(#pc7f0349b7d)" style="fill: #ffae42"/>
   </g>
   <g id="patch_12">
    <path d="M 189.73728 277.074358 
L 215.254996 277.074358 
L 215.254996 252.980281 
L 189.73728 252.980281 
z
" clip-path="url(#pc7f0349b7d)" style="fill: #ffae42"/>
   </g>
   <g id="patch_13">
    <path d="M 215.254996 277.074358 
L 240.772711 277.074358 
L 240.772711 252.980281 
L 215.254996 252.980281 
z
" clip-path="url(#pc7f0349b7d)" style="fill: #ffae42"/>
   </g>
   <g id="patch_14">
    <path d="M 240.772711 277.074358 
L 266.290426 277.074358 
L 266.290426 252.980281 
L 240.772711 252.980281 
z
" clip-path="url(#pc7f0349b7d)" style="fill: #ffae42"/>
   </g>
   <g id="patch_15">
    <path d="M 266.290426 277.074358 
L 291.808142 277.074358 
L 291.808142 252.980281 
L 266.290426 252.980281 
z
" clip-path="url(#pc7f0349b7d)" style="fill: #ffae42"/>
   </g>
   <g id="patch_16">
    <path d="M 291.808142 277.074358 
L 317.325857 277.074358 
L 317.325857 252.980281 
L 291.808142 252.980281 
z
" clip-path="url(#pc7f0349b7d)" style="fill: #ffae42"/>
   </g>
   <g id="patch_17">
    <path d="M 317.325857 277.074358 
L 342.843572 277.074358 
L 342.843572 252.980281 
L 317.325857 252.980281 
z
" clip-path="url(#pc7f0349b7d)" style="fill: #ffae42"/>
   </g>
   <g id="patch_18">
    <path d="M 342.843572 277.074358 
L 368.361288 277.074358 
L 368.361288 252.980281 
L 342.843572 252.980281 
z
" clip-path="url(#pc7f0349b7d)" style="fill: #ffae42"/>
   </g>
   <g id="patch_19">
    <path d="M 138.701849 252.980281 
L 164.219565 252.980281 
L 164.219565 228.886204 
L 138.701849 228.886204 
z
" clip-path="url(#pc7f0349b7d)" style="fill: #ffae42"/>
   </g>
   <g id="patch_20">
    <path d="M 164.219565 252.980281 
L 189.73728 252.980281 
L 189.73728 228.886204 
L 164.219565 228.886204 
z
" clip-path="url(#pc7f0349b7d)" style="fill: #ffae42"/>
   </g>
   <g id="patch_21">
    <path d="M 189.73728 252.980281 
L 215.254996 252.980281 
L 215.254996 228.886204 
L 189.73728 228.886204 
z
" clip-path="url(#pc7f0349b7d)" style="fill: #ffae42"/>
   </g>
   <g id="patch_22">
    <path d="M 215.254996 252.980281 
L 240.772711 252.980281 
L 240.772711 228.886204 
L 215.254996 228.886204 
z
" clip-path="url(#pc7f0349b7d)" style="fill: #ffae42"/>
   </g>
   <g id="patch_23">
    <path d="M 240.772711 252.980281 
L 266.290426 252.980281 
L 266.290426 228.886204 
L 240.772711 228.886204 
z
" clip-path="url(#pc7f0349b7d)" style="fill: #ffae42"/>
   </g>
   <g id="patch_24">
    <path d="M 266.290426 252.980281 
L 291.808142 252.980281 
L 291.808142 228.886204 
L 266.290426 228.886204 
z
" clip-path="url(#pc7f0349b7d)" style="fill: #ffae42"/>
   </g>
   <g id="patch_25">
    <path d="M 291.808142 252.980281 
L 317.325857 252.980281 
L 317.325857 228.886204 
L 291.808142 228.886204 
z
" clip-path="url(#pc7f0349b7d)" style="fill: #ffae42"/>
   </g>
   <g id="patch_26">
    <path d="M 317.325857 252.980281 
L 342.843572 252.980281 
L 342.843572 228.886204 
L 317.325857 228.886204 
z
" clip-path="url(#pc7f0349b7d)" style="fill: #ffae42"/>
   </g>
   <g id="patch_27">
    <path d="M 342.843572 252.980281 
L 368.361288 252.980281 
L 368.361288 228.886204 
L 342.843572 228.886204 
z
" clip-path="url(#pc7f0349b7d)" style="fill: #ffae42"/>
   </g>
   <g id="patch_28">
    <path d="M 164.219565 228.886204 
L 189.73728 228.886204 
L 189.73728 204.792128 
L 164.219565 204.792128 
z
" clip-path="url(#pc7f0349b7d)" style="fill: #ffae42"/>
   </g>
   <g id="patch_29">
    <path d="M 189.73728 228.886204 
L 215.254996 228.886204 
L 215.254996 204.792128 
L 189.73728 204.792128 
z
" clip-path="url(#pc7f0349b7d)" style="fill: #ffae42"/>
   </g>
   <g id="patch_30">
    <path d="M 215.254996 228.886204 
L 240.772711 228.886204 
L 240.772711 204.792128 
L 215.254996 204.792128 
z
" clip-path="url(#pc7f0349b7d)" style="fill: #ffae42"/>
   </g>
   <g id="patch_31">
    <path d="M 240.772711 228.886204 
L 266.290426 228.886204 
L 266.290426 204.792128 
L 240.772711 204.792128 
z
" clip-path="url(#pc7f0349b7d)" style="fill: #ffae42"/>
   </g>
   <g id="patch_32">
    <path d="M 266.290426 228.886204 
L 291.808142 228.886204 
L 291.808142 204.792128 
L 266.290426 204.792128 
z
" clip-path="url(#pc7f0349b7d)" style="fill: #ffae42"/>
   </g>
   <g id="patch_33">
    <path d="M 291.808142 228.886204 
L 317.325857 228.886204 
L 317.325857 204.792128 
L 291.808142 204.792128 
z
" clip-path="url(#pc7f0349b7d)" style="fill: #ffae42"/>
   </g>
   <g id="patch_34">
    <path d="M 317.325857 228.886204 
L 342.843572 228.886204 
L 342.843572 204.792128 
L 317.325857 204.792128 
z
" clip-path="url(#pc7f0349b7d)" style="fill: #ffae42"/>
   </g>
   <g id="patch_35">
    <path d="M 342.843572 228.886204 
L 368.361288 228.886204 
L 368.361288 204.792128 
L 342.843572 204.792128 
z
" clip-path="url(#pc7f0349b7d)" style="fill: #ffae42"/>
   </g>
   <g id="patch_36">
    <path d="M 368.361288 228.886204 
L 393.879003 228.886204 
L 393.879003 204.792128 
L 368.361288 204.792128 
z
" clip-path="url(#pc7f0349b7d)" style="fill: #ffae42"/>
   </g>
   <g id="patch_37">
    <path d="M 189.73728 204.792128 
L 215.254996 204.792128 
L 215.254996 180.698051 
L 189.73728 180.698051 
z
" clip-path="url(#pc7f0349b7d)" style="fill: #ffae42"/>
   </g>
   <g id="patch_38">
    <path d="M 215.254996 204.792128 
L 240.772711 204.792128 
L 240.772711 180.698051 
L 215.254996 180.698051 
z
" clip-path="url(#pc7f0349b7d)" style="fill: #ffae42"/>
   </g>
   <g id="patch_39">
    <path d="M 240.772711 204.792128 
L 266.290426 204.792128 
L 266.290426 180.698051 
L 240.772711 180.698051 
z
" clip-path="url(#pc7f0349b7d)" style="fill: #ffae42"/>
   </g>
   <g id="patch_40">
    <path d="M 266.290426 204.792128 
L 291.808142 204.792128 
L 291.808142 180.698051 
L 266.290426 180.698051 
z
" clip-path="url(#pc7f0349b7d)" style="fill: #ffae42"/>
   </g>
   <g id="patch_41">
    <path d="M 291.808142 204.792128 
L 317.325857 204.792128 
L 317.325857 180.698051 
L 291.808142 180.698051 
z
" clip-path="url(#pc7f0349b7d)" style="fill: #ffae42"/>
   </g>
   <g id="patch_42">
    <path d="M 317.325857 204.792128 
L 342.843572 204.792128 
L 342.843572 180.698051 
L 317.325857 180.698051 
z
" clip-path="url(#pc7f0349b7d)" style="fill: #ffae42"/>
   </g>
   <g id="patch_43">
    <path d="M 342.843572 204.792128 
L 368.361288 204.792128 
L 368.361288 180.698051 
L 342.843572 180.698051 
z
" clip-path="url(#pc7f0349b7d)" style="fill: #ffae42"/>
   </g>
   <g id="patch_44">
    <path d="M 368.361288 204.792128 
L 393.879003 204.792128 
L 393.879003 180.698051 
L 368.361288 180.698051 
z
" clip-path="url(#pc7f0349b7d)" style="fill: #ffae42"/>
   </g>
   <g id="patch_45">
    <path d="M 215.254996 180.698051 
L 240.772711 180.698051 
L 240.772711 156.603974 
L 215.254996 156.603974 
z
" clip-path="url(#pc7f0349b7d)" style="fill: #ffae42"/>
   </g>
   <g id="patch_46">
    <path d="M 240.772711 180.698051 
L 266.290426 180.698051 
L 266.290426 156.603974 
L 240.772711 156.603974 
z
" clip-path="url(#pc7f0349b7d)" style="fill: #ffae42"/>
   </g>
   <g id="patch_47">
    <path d="M 266.290426 180.698051 
L 291.808142 180.698051 
L 291.808142 156.603974 
L 266.290426 156.603974 
z
" clip-path="url(#pc7f0349b7d)" style="fill: #ffae42"/>
   </g>
   <g id="patch_48">
    <path d="M 291.808142 180.698051 
L 317.325857 180.698051 
L 317.325857 156.603974 
L 291.808142 156.603974 
z
" clip-path="url(#pc7f0349b7d)" style="fill: #ffae42"/>
   </g>
   <g id="patch_49">
    <path d="M 317.325857 180.698051 
L 342.843572 180.698051 
L 342.843572 156.603974 
L 317.325857 156.603974 
z
" clip-path="url(#pc7f0349b7d)" style="fill: #ffae42"/>
   </g>
   <g id="patch_50">
    <path d="M 342.843572 180.698051 
L 368.361288 180.698051 
L 368.361288 156.603974 
L 342.843572 156.603974 
z
" clip-path="url(#pc7f0349b7d)" style="fill: #ffae42"/>
   </g>
   <g id="patch_51">
    <path d="M 368.361288 180.698051 
L 393.879003 180.698051 
L 393.879003 156.603974 
L 368.361288 156.603974 
z
" clip-path="url(#pc7f0349b7d)" style="fill: #ffae42"/>
   </g>
   <g id="patch_52">
    <path d="M 393.879003 180.698051 
L 419.396719 180.698051 
L 419.396719 156.603974 
L 393.879003 156.603974 
z
" clip-path="url(#pc7f0349b7d)" style="fill: #ffae42"/>
   </g>
   <g id="patch_53">
    <path d="M 266.290426 156.603974 
L 291.808142 156.603974 
L 291.808142 132.509897 
L 266.290426 132.509897 
z
" clip-path="url(#pc7f0349b7d)" style="fill: #ffae42"/>
   </g>
   <g id="patch_54">
    <path d="M 291.808142 156.603974 
L 317.325857 156.603974 
L 317.325857 132.509897 
L 291.808142 132.509897 
z
" clip-path="url(#pc7f0349b7d)" style="fill: #ffae42"/>
   </g>
   <g id="patch_55">
    <path d="M 317.325857 156.603974 
L 342.843572 156.603974 
L 342.843572 132.509897 
L 317.325857 132.509897 
z
" clip-path="url(#pc7f0349b7d)" style="fill: #ffae42"/>
   </g>
   <g id="patch_56">
    <path d="M 342.843572 156.603974 
L 368.361288 156.603974 
L 368.361288 132.509897 
L 342.843572 132.509897 
z
" clip-path="url(#pc7f0349b7d)" style="fill: #ffae42"/>
   </g>
   <g id="patch_57">
    <path d="M 368.361288 156.603974 
L 393.879003 156.603974 
L 393.879003 132.509897 
L 368.361288 132.509897 
z
" clip-path="url(#pc7f0349b7d)" style="fill: #ffae42"/>
   </g>
   <g id="patch_58">
    <path d="M 393.879003 156.603974 
L 419.396719 156.603974 
L 419.396719 132.509897 
L 393.879003 132.509897 
z
" clip-path="url(#pc7f0349b7d)" style="fill: #ffae42"/>
   </g>
   <g id="patch_59">
    <path d="M 266.290426 132.509897 
L 291.808142 132.509897 
L 291.808142 108.41582 
L 266.290426 108.41582 
z
" clip-path="url(#pc7f0349b7d)" style="fill: #ffae42"/>
   </g>
   <g id="patch_60">
    <path d="M 291.808142 132.509897 
L 317.325857 132.509897 
L 317.325857 108.41582 
L 291.808142 108.41582 
z
" clip-path="url(#pc7f0349b7d)" style="fill: #ffae42"/>
   </g>
   <g id="patch_61">
    <path d="M 317.325857 132.509897 
L 342.843572 132.509897 
L 342.843572 108.41582 
L 317.325857 108.41582 
z
" clip-path="url(#pc7f0349b7d)" style="fill: #ffae42"/>
   </g>
   <g id="patch_62">
    <path d="M 342.843572 132.509897 
L 368.361288 132.509897 
L 368.361288 108.41582 
L 342.843572 108.41582 
z
" clip-path="url(#pc7f0349b7d)" style="fill: #ffae42"/>
   </g>
   <g id="patch_63">
    <path d="M 368.361288 132.509897 
L 393.879003 132.509897 
L 393.879003 108.41582 
L 368.361288 108.41582 
z
" clip-path="url(#pc7f0349b7d)" style="fill: #ffae42"/>
   </g>
   <g id="patch_64">
    <path d="M 393.879003 132.509897 
L 419.396719 132.509897 
L 419.396719 108.41582 
L 393.879003 108.41582 
z
" clip-path="url(#pc7f0349b7d)" style="fill: #ffae42"/>
   </g>
   <g id="patch_65">
    <path d="M 419.396719 132.509897 
L 444.914434 132.509897 
L 444.914434 108.41582 
L 419.396719 108.41582 
z
" clip-path="url(#pc7f0349b7d)" style="fill: #ffae42"/>
   </g>
   <g id="patch_66">
    <path d="M 291.808142 108.41582 
L 317.325857 108.41582 
L 317.325857 84.321743 
L 291.808142 84.321743 
z
" clip-path="url(#pc7f0349b7d)" style="fill: #ffae42"/>
   </g>
   <g id="patch_67">
    <path d="M 317.325857 108.41582 
L 342.843572 108.41582 
L 342.843572 84.321743 
L 317.325857 84.321743 
z
" clip-path="url(#pc7f0349b7d)" style="fill: #ffae42"/>
   </g>
   <g id="patch_68">
    <path d="M 342.843572 108.41582 
L 368.361288 108.41582 
L 368.361288 84.321743 
L 342.843572 84.321743 
z
" clip-path="url(#pc7f0349b7d)" style="fill: #ffae42"/>
   </g>
   <g id="patch_69">
    <path d="M 368.361288 108.41582 
L 393.879003 108.41582 
L 393.879003 84.321743 
L 368.361288 84.321743 
z
" clip-path="url(#pc7f0349b7d)" style="fill: #ffae42"/>
   </g>
   <g id="patch_70">
    <path d="M 393.879003 108.41582 
L 419.396719 108.41582 
L 419.396719 84.321743 
L 393.879003 84.321743 
z
" clip-path="url(#pc7f0349b7d)" style="fill: #ffae42"/>
   </g>
   <g id="patch_71">
    <path d="M 342.843572 84.321743 
L 368.361288 84.321743 
L 368.361288 60.227667 
L 342.843572 60.227667 
z
" clip-path="url(#pc7f0349b7d)" style="fill: #ffae42"/>
   </g>
   <g id="patch_72">
    <path d="M 368.361288 84.321743 
L 393.879003 84.321743 
L 393.879003 60.227667 
L 368.361288 60.227667 
z
" clip-path="url(#pc7f0349b7d)" style="fill: #ffae42"/>
   </g>
   <g id="matplotlib.axis_1">
    <g id="xtick_1">
     <g id="line2d_1">
      <defs>
       <path id="m1cf9ff02df" d="M 0 0 
L 0 3.5 
" style="stroke: #000000; stroke-width: 0.8"/>
      </defs>
      <g>
       <use xlink:href="#m1cf9ff02df" x="135.926825" y="354.958125" style="stroke: #000000; stroke-width: 0.8"/>
      </g>
     </g>
     <g id="text_1">
      <!-- −122.12 -->
      <g transform="translate(114.241668 369.556562) scale(0.1 -0.1)">
       <defs>
        <path id="DejaVuSans-2212" d="M 678 2272 
L 4684 2272 
L 4684 1741 
L 678 1741 
L 678 2272 
z
" transform="scale(0.015625)"/>
        <path id="DejaVuSans-31" d="M 794 531 
L 1825 531 
L 1825 4091 
L 703 3866 
L 703 4441 
L 1819 4666 
L 2450 4666 
L 2450 531 
L 3481 531 
L 3481 0 
L 794 0 
L 794 531 
z
" transform="scale(0.015625)"/>
        <path id="DejaVuSans-32" d="M 1228 531 
L 3431 531 
L 3431 0 
L 469 0 
L 469 531 
Q 828 903 1448 1529 
Q 2069 2156 2228 2338 
Q 2531 2678 2651 2914 
Q 2772 3150 2772 3378 
Q 2772 3750 2511 3984 
Q 2250 4219 1831 4219 
Q 1534 4219 1204 4116 
Q 875 4013 500 3803 
L 500 4441 
Q 881 4594 1212 4672 
Q 1544 4750 1819 4750 
Q 2544 4750 2975 4387 
Q 3406 4025 3406 3419 
Q 3406 3131 3298 2873 
Q 3191 2616 2906 2266 
Q 2828 2175 2409 1742 
Q 1991 1309 1228 531 
z
" transform="scale(0.015625)"/>
        <path id="DejaVuSans-2e" d="M 684 794 
L 1344 794 
L 1344 0 
L 684 0 
L 684 794 
z
" transform="scale(0.015625)"/>
       </defs>
       <use xlink:href="#DejaVuSans-2212"/>
       <use xlink:href="#DejaVuSans-31" transform="translate(83.789062 0)"/>
       <use xlink:href="#DejaVuSans-32" transform="translate(147.412109 0)"/>
       <use xlink:href="#DejaVuSans-32" transform="translate(211.035156 0)"/>
       <use xlink:href="#DejaVuSans-2e" transform="translate(274.658203 0)"/>
       <use xlink:href="#DejaVuSans-31" transform="translate(306.445312 0)"/>
       <use xlink:href="#DejaVuSans-32" transform="translate(370.068359 0)"/>
      </g>
     </g>
    </g>
    <g id="xtick_2">
     <g id="line2d_2">
      <g>
       <use xlink:href="#m1cf9ff02df" x="219.412128" y="354.958125" style="stroke: #000000; stroke-width: 0.8"/>
      </g>
     </g>
     <g id="text_2">
      <!-- −122.10 -->
      <g transform="translate(197.726972 369.556562) scale(0.1 -0.1)">
       <defs>
        <path id="DejaVuSans-30" d="M 2034 4250 
Q 1547 4250 1301 3770 
Q 1056 3291 1056 2328 
Q 1056 1369 1301 889 
Q 1547 409 2034 409 
Q 2525 409 2770 889 
Q 3016 1369 3016 2328 
Q 3016 3291 2770 3770 
Q 2525 4250 2034 4250 
z
M 2034 4750 
Q 2819 4750 3233 4129 
Q 3647 3509 3647 2328 
Q 3647 1150 3233 529 
Q 2819 -91 2034 -91 
Q 1250 -91 836 529 
Q 422 1150 422 2328 
Q 422 3509 836 4129 
Q 1250 4750 2034 4750 
z
" transform="scale(0.015625)"/>
       </defs>
       <use xlink:href="#DejaVuSans-2212"/>
       <use xlink:href="#DejaVuSans-31" transform="translate(83.789062 0)"/>
       <use xlink:href="#DejaVuSans-32" transform="translate(147.412109 0)"/>
       <use xlink:href="#DejaVuSans-32" transform="translate(211.035156 0)"/>
       <use xlink:href="#DejaVuSans-2e" transform="translate(274.658203 0)"/>
       <use xlink:href="#DejaVuSans-31" transform="translate(306.445312 0)"/>
       <use xlink:href="#DejaVuSans-30" transform="translate(370.068359 0)"/>
      </g>
     </g>
    </g>
    <g id="xtick_3">
     <g id="line2d_3">
      <g>
       <use xlink:href="#m1cf9ff02df" x="302.897432" y="354.958125" style="stroke: #000000; stroke-width: 0.8"/>
      </g>
     </g>
     <g id="text_3">
      <!-- −122.08 -->
      <g transform="translate(281.212276 369.556562) scale(0.1 -0.1)">
       <defs>
        <path id="DejaVuSans-38" d="M 2034 2216 
Q 1584 2216 1326 1975 
Q 1069 1734 1069 1313 
Q 1069 891 1326 650 
Q 1584 409 2034 409 
Q 2484 409 2743 651 
Q 3003 894 3003 1313 
Q 3003 1734 2745 1975 
Q 2488 2216 2034 2216 
z
M 1403 2484 
Q 997 2584 770 2862 
Q 544 3141 544 3541 
Q 544 4100 942 4425 
Q 1341 4750 2034 4750 
Q 2731 4750 3128 4425 
Q 3525 4100 3525 3541 
Q 3525 3141 3298 2862 
Q 3072 2584 2669 2484 
Q 3125 2378 3379 2068 
Q 3634 1759 3634 1313 
Q 3634 634 3220 271 
Q 2806 -91 2034 -91 
Q 1263 -91 848 271 
Q 434 634 434 1313 
Q 434 1759 690 2068 
Q 947 2378 1403 2484 
z
M 1172 3481 
Q 1172 3119 1398 2916 
Q 1625 2713 2034 2713 
Q 2441 2713 2670 2916 
Q 2900 3119 2900 3481 
Q 2900 3844 2670 4047 
Q 2441 4250 2034 4250 
Q 1625 4250 1398 4047 
Q 1172 3844 1172 3481 
z
" transform="scale(0.015625)"/>
       </defs>
       <use xlink:href="#DejaVuSans-2212"/>
       <use xlink:href="#DejaVuSans-31" transform="translate(83.789062 0)"/>
       <use xlink:href="#DejaVuSans-32" transform="translate(147.412109 0)"/>
       <use xlink:href="#DejaVuSans-32" transform="translate(211.035156 0)"/>
       <use xlink:href="#DejaVuSans-2e" transform="translate(274.658203 0)"/>
       <use xlink:href="#DejaVuSans-30" transform="translate(306.445312 0)"/>
       <use xlink:href="#DejaVuSans-38" transform="translate(370.068359 0)"/>
      </g>
     </g>
    </g>
    <g id="xtick_4">
     <g id="line2d_4">
      <g>
       <use xlink:href="#m1cf9ff02df" x="386.382735" y="354.958125" style="stroke: #000000; stroke-width: 0.8"/>
      </g>
     </g>
     <g id="text_4">
      <!-- −122.06 -->
      <g transform="translate(364.697579 369.556562) scale(0.1 -0.1)">
       <defs>
        <path id="DejaVuSans-36" d="M 2113 2584 
Q 1688 2584 1439 2293 
Q 1191 2003 1191 1497 
Q 1191 994 1439 701 
Q 1688 409 2113 409 
Q 2538 409 2786 701 
Q 3034 994 3034 1497 
Q 3034 2003 2786 2293 
Q 2538 2584 2113 2584 
z
M 3366 4563 
L 3366 3988 
Q 3128 4100 2886 4159 
Q 2644 4219 2406 4219 
Q 1781 4219 1451 3797 
Q 1122 3375 1075 2522 
Q 1259 2794 1537 2939 
Q 1816 3084 2150 3084 
Q 2853 3084 3261 2657 
Q 3669 2231 3669 1497 
Q 3669 778 3244 343 
Q 2819 -91 2113 -91 
Q 1303 -91 875 529 
Q 447 1150 447 2328 
Q 447 3434 972 4092 
Q 1497 4750 2381 4750 
Q 2619 4750 2861 4703 
Q 3103 4656 3366 4563 
z
" transform="scale(0.015625)"/>
       </defs>
       <use xlink:href="#DejaVuSans-2212"/>
       <use xlink:href="#DejaVuSans-31" transform="translate(83.789062 0)"/>
       <use xlink:href="#DejaVuSans-32" transform="translate(147.412109 0)"/>
       <use xlink:href="#DejaVuSans-32" transform="translate(211.035156 0)"/>
       <use xlink:href="#DejaVuSans-2e" transform="translate(274.658203 0)"/>
       <use xlink:href="#DejaVuSans-30" transform="translate(306.445312 0)"/>
       <use xlink:href="#DejaVuSans-36" transform="translate(370.068359 0)"/>
      </g>
     </g>
    </g>
    <g id="xtick_5">
     <g id="line2d_5">
      <g>
       <use xlink:href="#m1cf9ff02df" x="469.868039" y="354.958125" style="stroke: #000000; stroke-width: 0.8"/>
      </g>
     </g>
     <g id="text_5">
      <!-- −122.04 -->
      <g transform="translate(448.182883 369.556562) scale(0.1 -0.1)">
       <defs>
        <path id="DejaVuSans-34" d="M 2419 4116 
L 825 1625 
L 2419 1625 
L 2419 4116 
z
M 2253 4666 
L 3047 4666 
L 3047 1625 
L 3713 1625 
L 3713 1100 
L 3047 1100 
L 3047 0 
L 2419 0 
L 2419 1100 
L 313 1100 
L 313 1709 
L 2253 4666 
z
" transform="scale(0.015625)"/>
       </defs>
       <use xlink:href="#DejaVuSans-2212"/>
       <use xlink:href="#DejaVuSans-31" transform="translate(83.789062 0)"/>
       <use xlink:href="#DejaVuSans-32" transform="translate(147.412109 0)"/>
       <use xlink:href="#DejaVuSans-32" transform="translate(211.035156 0)"/>
       <use xlink:href="#DejaVuSans-2e" transform="translate(274.658203 0)"/>
       <use xlink:href="#DejaVuSans-30" transform="translate(306.445312 0)"/>
       <use xlink:href="#DejaVuSans-34" transform="translate(370.068359 0)"/>
      </g>
     </g>
    </g>
    <g id="text_6">
     <!-- Longitude -->
     <g transform="translate(260.433281 383.234687) scale(0.1 -0.1)">
      <defs>
       <path id="DejaVuSans-4c" d="M 628 4666 
L 1259 4666 
L 1259 531 
L 3531 531 
L 3531 0 
L 628 0 
L 628 4666 
z
" transform="scale(0.015625)"/>
       <path id="DejaVuSans-6f" d="M 1959 3097 
Q 1497 3097 1228 2736 
Q 959 2375 959 1747 
Q 959 1119 1226 758 
Q 1494 397 1959 397 
Q 2419 397 2687 759 
Q 2956 1122 2956 1747 
Q 2956 2369 2687 2733 
Q 2419 3097 1959 3097 
z
M 1959 3584 
Q 2709 3584 3137 3096 
Q 3566 2609 3566 1747 
Q 3566 888 3137 398 
Q 2709 -91 1959 -91 
Q 1206 -91 779 398 
Q 353 888 353 1747 
Q 353 2609 779 3096 
Q 1206 3584 1959 3584 
z
" transform="scale(0.015625)"/>
       <path id="DejaVuSans-6e" d="M 3513 2113 
L 3513 0 
L 2938 0 
L 2938 2094 
Q 2938 2591 2744 2837 
Q 2550 3084 2163 3084 
Q 1697 3084 1428 2787 
Q 1159 2491 1159 1978 
L 1159 0 
L 581 0 
L 581 3500 
L 1159 3500 
L 1159 2956 
Q 1366 3272 1645 3428 
Q 1925 3584 2291 3584 
Q 2894 3584 3203 3211 
Q 3513 2838 3513 2113 
z
" transform="scale(0.015625)"/>
       <path id="DejaVuSans-67" d="M 2906 1791 
Q 2906 2416 2648 2759 
Q 2391 3103 1925 3103 
Q 1463 3103 1205 2759 
Q 947 2416 947 1791 
Q 947 1169 1205 825 
Q 1463 481 1925 481 
Q 2391 481 2648 825 
Q 2906 1169 2906 1791 
z
M 3481 434 
Q 3481 -459 3084 -895 
Q 2688 -1331 1869 -1331 
Q 1566 -1331 1297 -1286 
Q 1028 -1241 775 -1147 
L 775 -588 
Q 1028 -725 1275 -790 
Q 1522 -856 1778 -856 
Q 2344 -856 2625 -561 
Q 2906 -266 2906 331 
L 2906 616 
Q 2728 306 2450 153 
Q 2172 0 1784 0 
Q 1141 0 747 490 
Q 353 981 353 1791 
Q 353 2603 747 3093 
Q 1141 3584 1784 3584 
Q 2172 3584 2450 3431 
Q 2728 3278 2906 2969 
L 2906 3500 
L 3481 3500 
L 3481 434 
z
" transform="scale(0.015625)"/>
       <path id="DejaVuSans-69" d="M 603 3500 
L 1178 3500 
L 1178 0 
L 603 0 
L 603 3500 
z
M 603 4863 
L 1178 4863 
L 1178 4134 
L 603 4134 
L 603 4863 
z
" transform="scale(0.015625)"/>
       <path id="DejaVuSans-74" d="M 1172 4494 
L 1172 3500 
L 2356 3500 
L 2356 3053 
L 1172 3053 
L 1172 1153 
Q 1172 725 1289 603 
Q 1406 481 1766 481 
L 2356 481 
L 2356 0 
L 1766 0 
Q 1100 0 847 248 
Q 594 497 594 1153 
L 594 3053 
L 172 3053 
L 172 3500 
L 594 3500 
L 594 4494 
L 1172 4494 
z
" transform="scale(0.015625)"/>
       <path id="DejaVuSans-75" d="M 544 1381 
L 544 3500 
L 1119 3500 
L 1119 1403 
Q 1119 906 1312 657 
Q 1506 409 1894 409 
Q 2359 409 2629 706 
Q 2900 1003 2900 1516 
L 2900 3500 
L 3475 3500 
L 3475 0 
L 2900 0 
L 2900 538 
Q 2691 219 2414 64 
Q 2138 -91 1772 -91 
Q 1169 -91 856 284 
Q 544 659 544 1381 
z
M 1991 3584 
L 1991 3584 
z
" transform="scale(0.015625)"/>
       <path id="DejaVuSans-64" d="M 2906 2969 
L 2906 4863 
L 3481 4863 
L 3481 0 
L 2906 0 
L 2906 525 
Q 2725 213 2448 61 
Q 2172 -91 1784 -91 
Q 1150 -91 751 415 
Q 353 922 353 1747 
Q 353 2572 751 3078 
Q 1150 3584 1784 3584 
Q 2172 3584 2448 3432 
Q 2725 3281 2906 2969 
z
M 947 1747 
Q 947 1113 1208 752 
Q 1469 391 1925 391 
Q 2381 391 2643 752 
Q 2906 1113 2906 1747 
Q 2906 2381 2643 2742 
Q 2381 3103 1925 3103 
Q 1469 3103 1208 2742 
Q 947 2381 947 1747 
z
" transform="scale(0.015625)"/>
       <path id="DejaVuSans-65" d="M 3597 1894 
L 3597 1613 
L 953 1613 
Q 991 1019 1311 708 
Q 1631 397 2203 397 
Q 2534 397 2845 478 
Q 3156 559 3463 722 
L 3463 178 
Q 3153 47 2828 -22 
Q 2503 -91 2169 -91 
Q 1331 -91 842 396 
Q 353 884 353 1716 
Q 353 2575 817 3079 
Q 1281 3584 2069 3584 
Q 2775 3584 3186 3129 
Q 3597 2675 3597 1894 
z
M 3022 2063 
Q 3016 2534 2758 2815 
Q 2500 3097 2075 3097 
Q 1594 3097 1305 2825 
Q 1016 2553 972 2059 
L 3022 2063 
z
" transform="scale(0.015625)"/>
      </defs>
      <use xlink:href="#DejaVuSans-4c"/>
      <use xlink:href="#DejaVuSans-6f" transform="translate(53.962891 0)"/>
      <use xlink:href="#DejaVuSans-6e" transform="translate(115.144531 0)"/>
      <use xlink:href="#DejaVuSans-67" transform="translate(178.523438 0)"/>
      <use xlink:href="#DejaVuSans-69" transform="translate(242 0)"/>
      <use xlink:href="#DejaVuSans-74" transform="translate(269.783203 0)"/>
      <use xlink:href="#DejaVuSans-75" transform="translate(308.992188 0)"/>
      <use xlink:href="#DejaVuSans-64" transform="translate(372.371094 0)"/>
      <use xlink:href="#DejaVuSans-65" transform="translate(435.847656 0)"/>
     </g>
    </g>
   </g>
   <g id="matplotlib.axis_2">
    <g id="ytick_1">
     <g id="line2d_6">
      <defs>
       <path id="mffd324148c" d="M 0 0 
L -3.5 0 
" style="stroke: #000000; stroke-width: 0.8"/>
      </defs>
      <g>
       <use xlink:href="#mffd324148c" x="84.20034" y="316.053908" style="stroke: #000000; stroke-width: 0.8"/>
      </g>
     </g>
     <g id="text_7">
      <!-- 45.68 -->
      <g transform="translate(48.572215 319.853126) scale(0.1 -0.1)">
       <defs>
        <path id="DejaVuSans-35" d="M 691 4666 
L 3169 4666 
L 3169 4134 
L 1269 4134 
L 1269 2991 
Q 1406 3038 1543 3061 
Q 1681 3084 1819 3084 
Q 2600 3084 3056 2656 
Q 3513 2228 3513 1497 
Q 3513 744 3044 326 
Q 2575 -91 1722 -91 
Q 1428 -91 1123 -41 
Q 819 9 494 109 
L 494 744 
Q 775 591 1075 516 
Q 1375 441 1709 441 
Q 2250 441 2565 725 
Q 2881 1009 2881 1497 
Q 2881 1984 2565 2268 
Q 2250 2553 1709 2553 
Q 1456 2553 1204 2497 
Q 953 2441 691 2322 
L 691 4666 
z
" transform="scale(0.015625)"/>
       </defs>
       <use xlink:href="#DejaVuSans-34"/>
       <use xlink:href="#DejaVuSans-35" transform="translate(63.623047 0)"/>
       <use xlink:href="#DejaVuSans-2e" transform="translate(127.246094 0)"/>
       <use xlink:href="#DejaVuSans-36" transform="translate(159.033203 0)"/>
       <use xlink:href="#DejaVuSans-38" transform="translate(222.65625 0)"/>
      </g>
     </g>
    </g>
    <g id="ytick_2">
     <g id="line2d_7">
      <g>
       <use xlink:href="#mffd324148c" x="84.20034" y="274.311256" style="stroke: #000000; stroke-width: 0.8"/>
      </g>
     </g>
     <g id="text_8">
      <!-- 45.69 -->
      <g transform="translate(48.572215 278.110475) scale(0.1 -0.1)">
       <defs>
        <path id="DejaVuSans-39" d="M 703 97 
L 703 672 
Q 941 559 1184 500 
Q 1428 441 1663 441 
Q 2288 441 2617 861 
Q 2947 1281 2994 2138 
Q 2813 1869 2534 1725 
Q 2256 1581 1919 1581 
Q 1219 1581 811 2004 
Q 403 2428 403 3163 
Q 403 3881 828 4315 
Q 1253 4750 1959 4750 
Q 2769 4750 3195 4129 
Q 3622 3509 3622 2328 
Q 3622 1225 3098 567 
Q 2575 -91 1691 -91 
Q 1453 -91 1209 -44 
Q 966 3 703 97 
z
M 1959 2075 
Q 2384 2075 2632 2365 
Q 2881 2656 2881 3163 
Q 2881 3666 2632 3958 
Q 2384 4250 1959 4250 
Q 1534 4250 1286 3958 
Q 1038 3666 1038 3163 
Q 1038 2656 1286 2365 
Q 1534 2075 1959 2075 
z
" transform="scale(0.015625)"/>
       </defs>
       <use xlink:href="#DejaVuSans-34"/>
       <use xlink:href="#DejaVuSans-35" transform="translate(63.623047 0)"/>
       <use xlink:href="#DejaVuSans-2e" transform="translate(127.246094 0)"/>
       <use xlink:href="#DejaVuSans-36" transform="translate(159.033203 0)"/>
       <use xlink:href="#DejaVuSans-39" transform="translate(222.65625 0)"/>
      </g>
     </g>
    </g>
    <g id="ytick_3">
     <g id="line2d_8">
      <g>
       <use xlink:href="#mffd324148c" x="84.20034" y="232.568604" style="stroke: #000000; stroke-width: 0.8"/>
      </g>
     </g>
     <g id="text_9">
      <!-- 45.70 -->
      <g transform="translate(48.572215 236.367823) scale(0.1 -0.1)">
       <defs>
        <path id="DejaVuSans-37" d="M 525 4666 
L 3525 4666 
L 3525 4397 
L 1831 0 
L 1172 0 
L 2766 4134 
L 525 4134 
L 525 4666 
z
" transform="scale(0.015625)"/>
       </defs>
       <use xlink:href="#DejaVuSans-34"/>
       <use xlink:href="#DejaVuSans-35" transform="translate(63.623047 0)"/>
       <use xlink:href="#DejaVuSans-2e" transform="translate(127.246094 0)"/>
       <use xlink:href="#DejaVuSans-37" transform="translate(159.033203 0)"/>
       <use xlink:href="#DejaVuSans-30" transform="translate(222.65625 0)"/>
      </g>
     </g>
    </g>
    <g id="ytick_4">
     <g id="line2d_9">
      <g>
       <use xlink:href="#mffd324148c" x="84.20034" y="190.825952" style="stroke: #000000; stroke-width: 0.8"/>
      </g>
     </g>
     <g id="text_10">
      <!-- 45.71 -->
      <g transform="translate(48.572215 194.625171) scale(0.1 -0.1)">
       <use xlink:href="#DejaVuSans-34"/>
       <use xlink:href="#DejaVuSans-35" transform="translate(63.623047 0)"/>
       <use xlink:href="#DejaVuSans-2e" transform="translate(127.246094 0)"/>
       <use xlink:href="#DejaVuSans-37" transform="translate(159.033203 0)"/>
       <use xlink:href="#DejaVuSans-31" transform="translate(222.65625 0)"/>
      </g>
     </g>
    </g>
    <g id="ytick_5">
     <g id="line2d_10">
      <g>
       <use xlink:href="#mffd324148c" x="84.20034" y="149.0833" style="stroke: #000000; stroke-width: 0.8"/>
      </g>
     </g>
     <g id="text_11">
      <!-- 45.72 -->
      <g transform="translate(48.572215 152.882519) scale(0.1 -0.1)">
       <use xlink:href="#DejaVuSans-34"/>
       <use xlink:href="#DejaVuSans-35" transform="translate(63.623047 0)"/>
       <use xlink:href="#DejaVuSans-2e" transform="translate(127.246094 0)"/>
       <use xlink:href="#DejaVuSans-37" transform="translate(159.033203 0)"/>
       <use xlink:href="#DejaVuSans-32" transform="translate(222.65625 0)"/>
      </g>
     </g>
    </g>
    <g id="ytick_6">
     <g id="line2d_11">
      <g>
       <use xlink:href="#mffd324148c" x="84.20034" y="107.340649" style="stroke: #000000; stroke-width: 0.8"/>
      </g>
     </g>
     <g id="text_12">
      <!-- 45.73 -->
      <g transform="translate(48.572215 111.139867) scale(0.1 -0.1)">
       <defs>
        <path id="DejaVuSans-33" d="M 2597 2516 
Q 3050 2419 3304 2112 
Q 3559 1806 3559 1356 
Q 3559 666 3084 287 
Q 2609 -91 1734 -91 
Q 1441 -91 1130 -33 
Q 819 25 488 141 
L 488 750 
Q 750 597 1062 519 
Q 1375 441 1716 441 
Q 2309 441 2620 675 
Q 2931 909 2931 1356 
Q 2931 1769 2642 2001 
Q 2353 2234 1838 2234 
L 1294 2234 
L 1294 2753 
L 1863 2753 
Q 2328 2753 2575 2939 
Q 2822 3125 2822 3475 
Q 2822 3834 2567 4026 
Q 2313 4219 1838 4219 
Q 1578 4219 1281 4162 
Q 984 4106 628 3988 
L 628 4550 
Q 988 4650 1302 4700 
Q 1616 4750 1894 4750 
Q 2613 4750 3031 4423 
Q 3450 4097 3450 3541 
Q 3450 3153 3228 2886 
Q 3006 2619 2597 2516 
z
" transform="scale(0.015625)"/>
       </defs>
       <use xlink:href="#DejaVuSans-34"/>
       <use xlink:href="#DejaVuSans-35" transform="translate(63.623047 0)"/>
       <use xlink:href="#DejaVuSans-2e" transform="translate(127.246094 0)"/>
       <use xlink:href="#DejaVuSans-37" transform="translate(159.033203 0)"/>
       <use xlink:href="#DejaVuSans-33" transform="translate(222.65625 0)"/>
      </g>
     </g>
    </g>
    <g id="ytick_7">
     <g id="line2d_12">
      <g>
       <use xlink:href="#mffd324148c" x="84.20034" y="65.597997" style="stroke: #000000; stroke-width: 0.8"/>
      </g>
     </g>
     <g id="text_13">
      <!-- 45.74 -->
      <g transform="translate(48.572215 69.397216) scale(0.1 -0.1)">
       <use xlink:href="#DejaVuSans-34"/>
       <use xlink:href="#DejaVuSans-35" transform="translate(63.623047 0)"/>
       <use xlink:href="#DejaVuSans-2e" transform="translate(127.246094 0)"/>
       <use xlink:href="#DejaVuSans-37" transform="translate(159.033203 0)"/>
       <use xlink:href="#DejaVuSans-34" transform="translate(222.65625 0)"/>
      </g>
     </g>
    </g>
    <g id="ytick_8">
     <g id="line2d_13">
      <g>
       <use xlink:href="#mffd324148c" x="84.20034" y="23.855345" style="stroke: #000000; stroke-width: 0.8"/>
      </g>
     </g>
     <g id="text_14">
      <!-- 45.75 -->
      <g transform="translate(48.572215 27.654564) scale(0.1 -0.1)">
       <use xlink:href="#DejaVuSans-34"/>
       <use xlink:href="#DejaVuSans-35" transform="translate(63.623047 0)"/>
       <use xlink:href="#DejaVuSans-2e" transform="translate(127.246094 0)"/>
       <use xlink:href="#DejaVuSans-37" transform="translate(159.033203 0)"/>
       <use xlink:href="#DejaVuSans-35" transform="translate(222.65625 0)"/>
      </g>
     </g>
    </g>
    <g id="text_15">
     <!-- Latitude -->
     <g transform="translate(42.492527 209.217031) rotate(-90) scale(0.1 -0.1)">
      <defs>
       <path id="DejaVuSans-61" d="M 2194 1759 
Q 1497 1759 1228 1600 
Q 959 1441 959 1056 
Q 959 750 1161 570 
Q 1363 391 1709 391 
Q 2188 391 2477 730 
Q 2766 1069 2766 1631 
L 2766 1759 
L 2194 1759 
z
M 3341 1997 
L 3341 0 
L 2766 0 
L 2766 531 
Q 2569 213 2275 61 
Q 1981 -91 1556 -91 
Q 1019 -91 701 211 
Q 384 513 384 1019 
Q 384 1609 779 1909 
Q 1175 2209 1959 2209 
L 2766 2209 
L 2766 2266 
Q 2766 2663 2505 2880 
Q 2244 3097 1772 3097 
Q 1472 3097 1187 3025 
Q 903 2953 641 2809 
L 641 3341 
Q 956 3463 1253 3523 
Q 1550 3584 1831 3584 
Q 2591 3584 2966 3190 
Q 3341 2797 3341 1997 
z
" transform="scale(0.015625)"/>
      </defs>
      <use xlink:href="#DejaVuSans-4c"/>
      <use xlink:href="#DejaVuSans-61" transform="translate(55.712891 0)"/>
      <use xlink:href="#DejaVuSans-74" transform="translate(116.992188 0)"/>
      <use xlink:href="#DejaVuSans-69" transform="translate(156.201172 0)"/>
      <use xlink:href="#DejaVuSans-74" transform="translate(183.984375 0)"/>
      <use xlink:href="#DejaVuSans-75" transform="translate(223.193359 0)"/>
      <use xlink:href="#DejaVuSans-64" transform="translate(286.572266 0)"/>
      <use xlink:href="#DejaVuSans-65" transform="translate(350.048828 0)"/>
     </g>
    </g>
   </g>
   <g id="patch_73">
    <path d="M 84.20034 354.958125 
L 84.20034 22.318125 
" style="fill: none; stroke: #000000; stroke-width: 0.8; stroke-linejoin: miter; stroke-linecap: square"/>
   </g>
   <g id="patch_74">
    <path d="M 486.405285 354.958125 
L 486.405285 22.318125 
" style="fill: none; stroke: #000000; stroke-width: 0.8; stroke-linejoin: miter; stroke-linecap: square"/>
   </g>
   <g id="patch_75">
    <path d="M 84.20034 354.958125 
L 486.405285 354.958125 
" style="fill: none; stroke: #000000; stroke-width: 0.8; stroke-linejoin: miter; stroke-linecap: square"/>
   </g>
   <g id="patch_76">
    <path d="M 84.20034 22.318125 
L 486.405285 22.318125 
" style="fill: none; stroke: #000000; stroke-width: 0.8; stroke-linejoin: miter; stroke-linecap: square"/>
   </g>
   <g id="text_16">
    <!-- Washougal_at_Hathaway_WA/Stebbins_Creek — Basin cumulative precipitation (fine grid x4) -->
    <g transform="translate(7.2 16.318125) scale(0.12 -0.12)">
     <defs>
      <path id="DejaVuSans-57" d="M 213 4666 
L 850 4666 
L 1831 722 
L 2809 4666 
L 3519 4666 
L 4500 722 
L 5478 4666 
L 6119 4666 
L 4947 0 
L 4153 0 
L 3169 4050 
L 2175 0 
L 1381 0 
L 213 4666 
z
" transform="scale(0.015625)"/>
      <path id="DejaVuSans-73" d="M 2834 3397 
L 2834 2853 
Q 2591 2978 2328 3040 
Q 2066 3103 1784 3103 
Q 1356 3103 1142 2972 
Q 928 2841 928 2578 
Q 928 2378 1081 2264 
Q 1234 2150 1697 2047 
L 1894 2003 
Q 2506 1872 2764 1633 
Q 3022 1394 3022 966 
Q 3022 478 2636 193 
Q 2250 -91 1575 -91 
Q 1294 -91 989 -36 
Q 684 19 347 128 
L 347 722 
Q 666 556 975 473 
Q 1284 391 1588 391 
Q 1994 391 2212 530 
Q 2431 669 2431 922 
Q 2431 1156 2273 1281 
Q 2116 1406 1581 1522 
L 1381 1569 
Q 847 1681 609 1914 
Q 372 2147 372 2553 
Q 372 3047 722 3315 
Q 1072 3584 1716 3584 
Q 2034 3584 2315 3537 
Q 2597 3491 2834 3397 
z
" transform="scale(0.015625)"/>
      <path id="DejaVuSans-68" d="M 3513 2113 
L 3513 0 
L 2938 0 
L 2938 2094 
Q 2938 2591 2744 2837 
Q 2550 3084 2163 3084 
Q 1697 3084 1428 2787 
Q 1159 2491 1159 1978 
L 1159 0 
L 581 0 
L 581 4863 
L 1159 4863 
L 1159 2956 
Q 1366 3272 1645 3428 
Q 1925 3584 2291 3584 
Q 2894 3584 3203 3211 
Q 3513 2838 3513 2113 
z
" transform="scale(0.015625)"/>
      <path id="DejaVuSans-6c" d="M 603 4863 
L 1178 4863 
L 1178 0 
L 603 0 
L 603 4863 
z
" transform="scale(0.015625)"/>
      <path id="DejaVuSans-5f" d="M 3263 -1063 
L 3263 -1509 
L -63 -1509 
L -63 -1063 
L 3263 -1063 
z
" transform="scale(0.015625)"/>
      <path id="DejaVuSans-48" d="M 628 4666 
L 1259 4666 
L 1259 2753 
L 3553 2753 
L 3553 4666 
L 4184 4666 
L 4184 0 
L 3553 0 
L 3553 2222 
L 1259 2222 
L 1259 0 
L 628 0 
L 628 4666 
z
" transform="scale(0.015625)"/>
      <path id="DejaVuSans-77" d="M 269 3500 
L 844 3500 
L 1563 769 
L 2278 3500 
L 2956 3500 
L 3675 769 
L 4391 3500 
L 4966 3500 
L 4050 0 
L 3372 0 
L 2619 2869 
L 1863 0 
L 1184 0 
L 269 3500 
z
" transform="scale(0.015625)"/>
      <path id="DejaVuSans-79" d="M 2059 -325 
Q 1816 -950 1584 -1140 
Q 1353 -1331 966 -1331 
L 506 -1331 
L 506 -850 
L 844 -850 
Q 1081 -850 1212 -737 
Q 1344 -625 1503 -206 
L 1606 56 
L 191 3500 
L 800 3500 
L 1894 763 
L 2988 3500 
L 3597 3500 
L 2059 -325 
z
" transform="scale(0.015625)"/>
      <path id="DejaVuSans-41" d="M 2188 4044 
L 1331 1722 
L 3047 1722 
L 2188 4044 
z
M 1831 4666 
L 2547 4666 
L 4325 0 
L 3669 0 
L 3244 1197 
L 1141 1197 
L 716 0 
L 50 0 
L 1831 4666 
z
" transform="scale(0.015625)"/>
      <path id="DejaVuSans-2f" d="M 1625 4666 
L 2156 4666 
L 531 -594 
L 0 -594 
L 1625 4666 
z
" transform="scale(0.015625)"/>
      <path id="DejaVuSans-53" d="M 3425 4513 
L 3425 3897 
Q 3066 4069 2747 4153 
Q 2428 4238 2131 4238 
Q 1616 4238 1336 4038 
Q 1056 3838 1056 3469 
Q 1056 3159 1242 3001 
Q 1428 2844 1947 2747 
L 2328 2669 
Q 3034 2534 3370 2195 
Q 3706 1856 3706 1288 
Q 3706 609 3251 259 
Q 2797 -91 1919 -91 
Q 1588 -91 1214 -16 
Q 841 59 441 206 
L 441 856 
Q 825 641 1194 531 
Q 1563 422 1919 422 
Q 2459 422 2753 634 
Q 3047 847 3047 1241 
Q 3047 1584 2836 1778 
Q 2625 1972 2144 2069 
L 1759 2144 
Q 1053 2284 737 2584 
Q 422 2884 422 3419 
Q 422 4038 858 4394 
Q 1294 4750 2059 4750 
Q 2388 4750 2728 4690 
Q 3069 4631 3425 4513 
z
" transform="scale(0.015625)"/>
      <path id="DejaVuSans-62" d="M 3116 1747 
Q 3116 2381 2855 2742 
Q 2594 3103 2138 3103 
Q 1681 3103 1420 2742 
Q 1159 2381 1159 1747 
Q 1159 1113 1420 752 
Q 1681 391 2138 391 
Q 2594 391 2855 752 
Q 3116 1113 3116 1747 
z
M 1159 2969 
Q 1341 3281 1617 3432 
Q 1894 3584 2278 3584 
Q 2916 3584 3314 3078 
Q 3713 2572 3713 1747 
Q 3713 922 3314 415 
Q 2916 -91 2278 -91 
Q 1894 -91 1617 61 
Q 1341 213 1159 525 
L 1159 0 
L 581 0 
L 581 4863 
L 1159 4863 
L 1159 2969 
z
" transform="scale(0.015625)"/>
      <path id="DejaVuSans-43" d="M 4122 4306 
L 4122 3641 
Q 3803 3938 3442 4084 
Q 3081 4231 2675 4231 
Q 1875 4231 1450 3742 
Q 1025 3253 1025 2328 
Q 1025 1406 1450 917 
Q 1875 428 2675 428 
Q 3081 428 3442 575 
Q 3803 722 4122 1019 
L 4122 359 
Q 3791 134 3420 21 
Q 3050 -91 2638 -91 
Q 1578 -91 968 557 
Q 359 1206 359 2328 
Q 359 3453 968 4101 
Q 1578 4750 2638 4750 
Q 3056 4750 3426 4639 
Q 3797 4528 4122 4306 
z
" transform="scale(0.015625)"/>
      <path id="DejaVuSans-72" d="M 2631 2963 
Q 2534 3019 2420 3045 
Q 2306 3072 2169 3072 
Q 1681 3072 1420 2755 
Q 1159 2438 1159 1844 
L 1159 0 
L 581 0 
L 581 3500 
L 1159 3500 
L 1159 2956 
Q 1341 3275 1631 3429 
Q 1922 3584 2338 3584 
Q 2397 3584 2469 3576 
Q 2541 3569 2628 3553 
L 2631 2963 
z
" transform="scale(0.015625)"/>
      <path id="DejaVuSans-6b" d="M 581 4863 
L 1159 4863 
L 1159 1991 
L 2875 3500 
L 3609 3500 
L 1753 1863 
L 3688 0 
L 2938 0 
L 1159 1709 
L 1159 0 
L 581 0 
L 581 4863 
z
" transform="scale(0.015625)"/>
      <path id="DejaVuSans-20" transform="scale(0.015625)"/>
      <path id="DejaVuSans-2014" d="M 313 1978 
L 6088 1978 
L 6088 1528 
L 313 1528 
L 313 1978 
z
" transform="scale(0.015625)"/>
      <path id="DejaVuSans-42" d="M 1259 2228 
L 1259 519 
L 2272 519 
Q 2781 519 3026 730 
Q 3272 941 3272 1375 
Q 3272 1813 3026 2020 
Q 2781 2228 2272 2228 
L 1259 2228 
z
M 1259 4147 
L 1259 2741 
L 2194 2741 
Q 2656 2741 2882 2914 
Q 3109 3088 3109 3444 
Q 3109 3797 2882 3972 
Q 2656 4147 2194 4147 
L 1259 4147 
z
M 628 4666 
L 2241 4666 
Q 2963 4666 3353 4366 
Q 3744 4066 3744 3513 
Q 3744 3084 3544 2831 
Q 3344 2578 2956 2516 
Q 3422 2416 3680 2098 
Q 3938 1781 3938 1306 
Q 3938 681 3513 340 
Q 3088 0 2303 0 
L 628 0 
L 628 4666 
z
" transform="scale(0.015625)"/>
      <path id="DejaVuSans-63" d="M 3122 3366 
L 3122 2828 
Q 2878 2963 2633 3030 
Q 2388 3097 2138 3097 
Q 1578 3097 1268 2742 
Q 959 2388 959 1747 
Q 959 1106 1268 751 
Q 1578 397 2138 397 
Q 2388 397 2633 464 
Q 2878 531 3122 666 
L 3122 134 
Q 2881 22 2623 -34 
Q 2366 -91 2075 -91 
Q 1284 -91 818 406 
Q 353 903 353 1747 
Q 353 2603 823 3093 
Q 1294 3584 2113 3584 
Q 2378 3584 2631 3529 
Q 2884 3475 3122 3366 
z
" transform="scale(0.015625)"/>
      <path id="DejaVuSans-6d" d="M 3328 2828 
Q 3544 3216 3844 3400 
Q 4144 3584 4550 3584 
Q 5097 3584 5394 3201 
Q 5691 2819 5691 2113 
L 5691 0 
L 5113 0 
L 5113 2094 
Q 5113 2597 4934 2840 
Q 4756 3084 4391 3084 
Q 3944 3084 3684 2787 
Q 3425 2491 3425 1978 
L 3425 0 
L 2847 0 
L 2847 2094 
Q 2847 2600 2669 2842 
Q 2491 3084 2119 3084 
Q 1678 3084 1418 2786 
Q 1159 2488 1159 1978 
L 1159 0 
L 581 0 
L 581 3500 
L 1159 3500 
L 1159 2956 
Q 1356 3278 1631 3431 
Q 1906 3584 2284 3584 
Q 2666 3584 2933 3390 
Q 3200 3197 3328 2828 
z
" transform="scale(0.015625)"/>
      <path id="DejaVuSans-76" d="M 191 3500 
L 800 3500 
L 1894 563 
L 2988 3500 
L 3597 3500 
L 2284 0 
L 1503 0 
L 191 3500 
z
" transform="scale(0.015625)"/>
      <path id="DejaVuSans-70" d="M 1159 525 
L 1159 -1331 
L 581 -1331 
L 581 3500 
L 1159 3500 
L 1159 2969 
Q 1341 3281 1617 3432 
Q 1894 3584 2278 3584 
Q 2916 3584 3314 3078 
Q 3713 2572 3713 1747 
Q 3713 922 3314 415 
Q 2916 -91 2278 -91 
Q 1894 -91 1617 61 
Q 1341 213 1159 525 
z
M 3116 1747 
Q 3116 2381 2855 2742 
Q 2594 3103 2138 3103 
Q 1681 3103 1420 2742 
Q 1159 2381 1159 1747 
Q 1159 1113 1420 752 
Q 1681 391 2138 391 
Q 2594 391 2855 752 
Q 3116 1113 3116 1747 
z
" transform="scale(0.015625)"/>
      <path id="DejaVuSans-28" d="M 1984 4856 
Q 1566 4138 1362 3434 
Q 1159 2731 1159 2009 
Q 1159 1288 1364 580 
Q 1569 -128 1984 -844 
L 1484 -844 
Q 1016 -109 783 600 
Q 550 1309 550 2009 
Q 550 2706 781 3412 
Q 1013 4119 1484 4856 
L 1984 4856 
z
" transform="scale(0.015625)"/>
      <path id="DejaVuSans-66" d="M 2375 4863 
L 2375 4384 
L 1825 4384 
Q 1516 4384 1395 4259 
Q 1275 4134 1275 3809 
L 1275 3500 
L 2222 3500 
L 2222 3053 
L 1275 3053 
L 1275 0 
L 697 0 
L 697 3053 
L 147 3053 
L 147 3500 
L 697 3500 
L 697 3744 
Q 697 4328 969 4595 
Q 1241 4863 1831 4863 
L 2375 4863 
z
" transform="scale(0.015625)"/>
      <path id="DejaVuSans-78" d="M 3513 3500 
L 2247 1797 
L 3578 0 
L 2900 0 
L 1881 1375 
L 863 0 
L 184 0 
L 1544 1831 
L 300 3500 
L 978 3500 
L 1906 2253 
L 2834 3500 
L 3513 3500 
z
" transform="scale(0.015625)"/>
      <path id="DejaVuSans-29" d="M 513 4856 
L 1013 4856 
Q 1481 4119 1714 3412 
Q 1947 2706 1947 2009 
Q 1947 1309 1714 600 
Q 1481 -109 1013 -844 
L 513 -844 
Q 928 -128 1133 580 
Q 1338 1288 1338 2009 
Q 1338 2731 1133 3434 
Q 928 4138 513 4856 
z
" transform="scale(0.015625)"/>
     </defs>
     <use xlink:href="#DejaVuSans-57"/>
     <use xlink:href="#DejaVuSans-61" transform="translate(92.501953 0)"/>
     <use xlink:href="#DejaVuSans-73" transform="translate(153.78125 0)"/>
     <use xlink:href="#DejaVuSans-68" transform="translate(205.880859 0)"/>
     <use xlink:href="#DejaVuSans-6f" transform="translate(269.259766 0)"/>
     <use xlink:href="#DejaVuSans-75" transform="translate(330.441406 0)"/>
     <use xlink:href="#DejaVuSans-67" transform="translate(393.820312 0)"/>
     <use xlink:href="#DejaVuSans-61" transform="translate(457.296875 0)"/>
     <use xlink:href="#DejaVuSans-6c" transform="translate(518.576172 0)"/>
     <use xlink:href="#DejaVuSans-5f" transform="translate(546.359375 0)"/>
     <use xlink:href="#DejaVuSans-61" transform="translate(596.359375 0)"/>
     <use xlink:href="#DejaVuSans-74" transform="translate(657.638672 0)"/>
     <use xlink:href="#DejaVuSans-5f" transform="translate(696.847656 0)"/>
     <use xlink:href="#DejaVuSans-48" transform="translate(746.847656 0)"/>
     <use xlink:href="#DejaVuSans-61" transform="translate(822.042969 0)"/>
     <use xlink:href="#DejaVuSans-74" transform="translate(883.322266 0)"/>
     <use xlink:href="#DejaVuSans-68" transform="translate(922.53125 0)"/>
     <use xlink:href="#DejaVuSans-61" transform="translate(985.910156 0)"/>
     <use xlink:href="#DejaVuSans-77" transform="translate(1047.189453 0)"/>
     <use xlink:href="#DejaVuSans-61" transform="translate(1128.976562 0)"/>
     <use xlink:href="#DejaVuSans-79" transform="translate(1190.255859 0)"/>
     <use xlink:href="#DejaVuSans-5f" transform="translate(1249.435547 0)"/>
     <use xlink:href="#DejaVuSans-57" transform="translate(1299.435547 0)"/>
     <use xlink:href="#DejaVuSans-41" transform="translate(1392.8125 0)"/>
     <use xlink:href="#DejaVuSans-2f" transform="translate(1461.220703 0)"/>
     <use xlink:href="#DejaVuSans-53" transform="translate(1494.912109 0)"/>
     <use xlink:href="#DejaVuSans-74" transform="translate(1558.388672 0)"/>
     <use xlink:href="#DejaVuSans-65" transform="translate(1597.597656 0)"/>
     <use xlink:href="#DejaVuSans-62" transform="translate(1659.121094 0)"/>
     <use xlink:href="#DejaVuSans-62" transform="translate(1722.597656 0)"/>
     <use xlink:href="#DejaVuSans-69" transform="translate(1786.074219 0)"/>
     <use xlink:href="#DejaVuSans-6e" transform="translate(1813.857422 0)"/>
     <use xlink:href="#DejaVuSans-73" transform="translate(1877.236328 0)"/>
     <use xlink:href="#DejaVuSans-5f" transform="translate(1929.335938 0)"/>
     <use xlink:href="#DejaVuSans-43" transform="translate(1979.335938 0)"/>
     <use xlink:href="#DejaVuSans-72" transform="translate(2049.160156 0)"/>
     <use xlink:href="#DejaVuSans-65" transform="translate(2088.023438 0)"/>
     <use xlink:href="#DejaVuSans-65" transform="translate(2149.546875 0)"/>
     <use xlink:href="#DejaVuSans-6b" transform="translate(2211.070312 0)"/>
     <use xlink:href="#DejaVuSans-20" transform="translate(2268.980469 0)"/>
     <use xlink:href="#DejaVuSans-2014" transform="translate(2300.767578 0)"/>
     <use xlink:href="#DejaVuSans-20" transform="translate(2400.767578 0)"/>
     <use xlink:href="#DejaVuSans-42" transform="translate(2432.554688 0)"/>
     <use xlink:href="#DejaVuSans-61" transform="translate(2501.158203 0)"/>
     <use xlink:href="#DejaVuSans-73" transform="translate(2562.4375 0)"/>
     <use xlink:href="#DejaVuSans-69" transform="translate(2614.537109 0)"/>
     <use xlink:href="#DejaVuSans-6e" transform="translate(2642.320312 0)"/>
     <use xlink:href="#DejaVuSans-20" transform="translate(2705.699219 0)"/>
     <use xlink:href="#DejaVuSans-63" transform="translate(2737.486328 0)"/>
     <use xlink:href="#DejaVuSans-75" transform="translate(2792.466797 0)"/>
     <use xlink:href="#DejaVuSans-6d" transform="translate(2855.845703 0)"/>
     <use xlink:href="#DejaVuSans-75" transform="translate(2953.257812 0)"/>
     <use xlink:href="#DejaVuSans-6c" transform="translate(3016.636719 0)"/>
     <use xlink:href="#DejaVuSans-61" transform="translate(3044.419922 0)"/>
     <use xlink:href="#DejaVuSans-74" transform="translate(3105.699219 0)"/>
     <use xlink:href="#DejaVuSans-69" transform="translate(3144.908203 0)"/>
     <use xlink:href="#DejaVuSans-76" transform="translate(3172.691406 0)"/>
     <use xlink:href="#DejaVuSans-65" transform="translate(3231.871094 0)"/>
     <use xlink:href="#DejaVuSans-20" transform="translate(3293.394531 0)"/>
     <use xlink:href="#DejaVuSans-70" transform="translate(3325.181641 0)"/>
     <use xlink:href="#DejaVuSans-72" transform="translate(3388.658203 0)"/>
     <use xlink:href="#DejaVuSans-65" transform="translate(3427.521484 0)"/>
     <use xlink:href="#DejaVuSans-63" transform="translate(3489.044922 0)"/>
     <use xlink:href="#DejaVuSans-69" transform="translate(3544.025391 0)"/>
     <use xlink:href="#DejaVuSans-70" transform="translate(3571.808594 0)"/>
     <use xlink:href="#DejaVuSans-69" transform="translate(3635.285156 0)"/>
     <use xlink:href="#DejaVuSans-74" transform="translate(3663.068359 0)"/>
     <use xlink:href="#DejaVuSans-61" transform="translate(3702.277344 0)"/>
     <use xlink:href="#DejaVuSans-74" transform="translate(3763.556641 0)"/>
     <use xlink:href="#DejaVuSans-69" transform="translate(3802.765625 0)"/>
     <use xlink:href="#DejaVuSans-6f" transform="translate(3830.548828 0)"/>
     <use xlink:href="#DejaVuSans-6e" transform="translate(3891.730469 0)"/>
     <use xlink:href="#DejaVuSans-20" transform="translate(3955.109375 0)"/>
     <use xlink:href="#DejaVuSans-28" transform="translate(3986.896484 0)"/>
     <use xlink:href="#DejaVuSans-66" transform="translate(4025.910156 0)"/>
     <use xlink:href="#DejaVuSans-69" transform="translate(4061.115234 0)"/>
     <use xlink:href="#DejaVuSans-6e" transform="translate(4088.898438 0)"/>
     <use xlink:href="#DejaVuSans-65" transform="translate(4152.277344 0)"/>
     <use xlink:href="#DejaVuSans-20" transform="translate(4213.800781 0)"/>
     <use xlink:href="#DejaVuSans-67" transform="translate(4245.587891 0)"/>
     <use xlink:href="#DejaVuSans-72" transform="translate(4309.064453 0)"/>
     <use xlink:href="#DejaVuSans-69" transform="translate(4350.177734 0)"/>
     <use xlink:href="#DejaVuSans-64" transform="translate(4377.960938 0)"/>
     <use xlink:href="#DejaVuSans-20" transform="translate(4441.4375 0)"/>
     <use xlink:href="#DejaVuSans-78" transform="translate(4473.224609 0)"/>
     <use xlink:href="#DejaVuSans-34" transform="translate(4532.404297 0)"/>
     <use xlink:href="#DejaVuSans-29" transform="translate(4596.027344 0)"/>
    </g>
   </g>
   <g id="PatchCollection_1">
    <path d="M 323.22908 310.317167 
L 321.68258 310.622604 
L 319.941303 306.282176 
L 318.394784 306.587622 
L 317.524113 304.417408 
L 315.977587 304.722861 
L 315.542241 303.637755 
L 313.995712 303.943214 
L 313.560357 302.858109 
L 312.013826 303.163573 
L 311.578463 302.078469 
L 310.031929 302.383939 
L 309.596557 301.298836 
L 308.050021 301.604312 
L 307.61464 300.519209 
L 293.695924 303.26869 
L 293.260489 302.1836 
L 290.167467 302.794644 
L 289.732018 301.709556 
L 277.360022 304.153912 
L 276.924525 303.068835 
L 270.738586 304.291118 
L 271.174105 305.376189 
L 268.081168 305.987353 
L 268.516695 307.072421 
L 263.87733 307.989194 
L 264.31287 309.074257 
L 262.766428 309.379855 
L 263.20197 310.464917 
L 249.28419 313.215473 
L 248.848598 312.130424 
L 247.302189 312.436064 
L 246.430983 310.265968 
L 244.884567 310.571614 
L 244.448953 309.486567 
L 242.902535 309.792219 
L 241.595657 306.537079 
L 240.049225 306.842739 
L 239.613587 305.757693 
L 238.067153 306.063359 
L 237.631505 304.978314 
L 236.085069 305.283986 
L 235.649413 304.198942 
L 234.102975 304.504619 
L 233.66731 303.419576 
L 230.574432 304.030945 
L 230.138753 302.945905 
L 228.592314 303.251597 
L 228.156625 302.166557 
L 226.610184 302.472256 
L 226.174486 301.387217 
L 224.628043 301.69292 
L 224.192336 300.607883 
L 222.645891 300.913592 
L 221.774456 298.743518 
L 220.228003 299.049234 
L 219.792275 297.964198 
L 218.24582 298.26992 
L 217.810083 297.184884 
L 216.263626 297.490612 
L 215.392131 295.320543 
L 213.845665 295.626277 
L 213.409907 294.541244 
L 211.86344 294.846983 
L 211.427673 293.761951 
L 209.881203 294.067696 
L 209.445427 292.982665 
L 207.898956 293.288416 
L 207.463171 292.203385 
L 205.916697 292.509142 
L 205.480903 291.424112 
L 203.934427 291.729874 
L 203.062818 289.559816 
L 198.423377 290.477137 
L 197.987551 289.392111 
L 193.348124 290.309473 
L 192.912277 289.224452 
L 189.819332 289.83605 
L 186.768235 282.240907 
L 185.221728 282.546722 
L 184.785838 281.461702 
L 183.23933 281.767523 
L 182.80343 280.682503 
L 181.25692 280.988329 
L 180.821012 279.903311 
L 174.63498 281.126663 
L 175.070911 282.211676 
L 168.884956 283.43509 
L 169.320905 284.520097 
L 167.77443 284.82596 
L 167.338476 283.740954 
L 159.606126 285.270336 
L 159.17014 284.185337 
L 154.530754 285.103021 
L 154.094749 284.018025 
L 149.455377 284.935751 
L 149.019351 283.850759 
L 147.472895 284.156677 
L 147.03686 283.071687 
L 145.490402 283.377611 
L 144.618311 281.207631 
L 143.071845 281.513562 
L 142.19973 279.343584 
L 140.653256 279.649522 
L 140.217187 278.564533 
L 138.670712 278.870477 
L 138.234634 277.785489 
L 136.688156 278.091438 
L 134.943791 273.751491 
L 133.397294 274.057449 
L 132.52508 271.887476 
L 130.978575 272.193442 
L 130.542457 271.108456 
L 128.995951 271.414427 
L 125.942992 263.819524 
L 127.489537 263.513543 
L 126.617243 261.343564 
L 128.163803 261.037584 
L 127.727657 259.952593 
L 129.274226 259.646616 
L 128.838082 258.561623 
L 130.384659 258.255649 
L 129.948517 257.170654 
L 133.041694 256.558715 
L 132.60556 255.473717 
L 134.152159 255.167753 
L 133.279891 252.997752 
L 134.826505 252.691789 
L 133.518094 249.436781 
L 135.064728 249.130818 
L 134.62859 248.045813 
L 136.175232 247.739853 
L 135.739097 246.654846 
L 137.285748 246.348889 
L 136.849614 245.26388 
L 138.396275 244.957925 
L 137.960143 243.872915 
L 139.506813 243.566963 
L 139.070683 242.481951 
L 142.164043 241.870057 
L 141.727921 240.785041 
L 143.274612 240.479099 
L 142.838493 239.394082 
L 144.385192 239.088142 
L 143.949075 238.003123 
L 145.495783 237.697186 
L 145.059668 236.612165 
L 146.606386 236.306232 
L 146.170272 235.221209 
L 149.263729 234.609351 
L 148.827623 233.524325 
L 150.374362 233.2184 
L 149.938259 232.133373 
L 151.485007 231.827451 
L 150.176693 228.572362 
L 151.723461 228.26644 
L 151.287355 227.181408 
L 152.834132 226.875489 
L 152.398028 225.790455 
L 153.944814 225.484539 
L 153.508713 224.399503 
L 155.055507 224.09359 
L 154.619408 223.008553 
L 157.713019 222.396736 
L 156.840832 220.226654 
L 158.387654 219.920749 
L 157.951561 218.835706 
L 159.498391 218.529804 
L 159.062301 217.444759 
L 160.60914 217.138859 
L 160.173052 216.053813 
L 161.7199 215.747916 
L 161.283814 214.662868 
L 162.830671 214.356974 
L 162.394587 213.271923 
L 163.941453 212.966032 
L 163.505371 211.88098 
L 165.052246 211.575092 
L 164.616166 210.490038 
L 166.163051 210.184152 
L 165.726973 209.099097 
L 167.273866 208.793214 
L 166.83779 207.708156 
L 168.384692 207.402276 
L 167.076462 204.147097 
L 168.623384 203.841217 
L 167.751224 201.671092 
L 169.298161 201.365214 
L 168.862081 200.28015 
L 170.409027 199.974274 
L 169.97295 198.889208 
L 171.519904 198.583334 
L 171.083829 197.498267 
L 175.72473 196.580668 
L 175.288668 195.495595 
L 176.835648 195.189736 
L 176.399588 194.104662 
L 177.946576 193.798805 
L 177.074458 191.628653 
L 178.621461 191.322797 
L 178.185402 190.237719 
L 184.373469 189.014335 
L 183.937429 187.92925 
L 196.313772 185.48267 
L 195.877773 184.397574 
L 198.971904 183.785968 
L 198.535913 182.700869 
L 200.082989 182.395071 
L 199.647 181.30997 
L 201.194085 181.004174 
L 200.758098 179.919071 
L 202.305192 179.613279 
L 201.869207 178.528174 
L 203.41631 178.222384 
L 202.980327 177.137278 
L 204.527439 176.831491 
L 204.091459 175.746382 
L 207.185704 175.134818 
L 206.749731 174.049706 
L 208.296864 173.743929 
L 207.860893 172.658815 
L 210.955181 172.04727 
L 210.519218 170.962154 
L 212.066373 170.656386 
L 211.630412 169.571268 
L 213.177575 169.265503 
L 212.741617 168.180383 
L 215.835965 167.568862 
L 215.400014 166.483739 
L 216.947199 166.177984 
L 216.51125 165.092859 
L 247.455771 158.978603 
L 247.01993 157.893449 
L 250.114468 157.282112 
L 249.678635 156.196955 
L 251.225914 155.891292 
L 250.790083 154.806133 
L 252.337372 154.500473 
L 251.901543 153.415312 
L 253.44884 153.109654 
L 253.013013 152.024492 
L 254.56032 151.718836 
L 254.124495 150.633672 
L 255.671811 150.32802 
L 255.235988 149.242854 
L 256.783313 148.937204 
L 256.347492 147.852036 
L 257.894826 147.54639 
L 257.459007 146.46122 
L 259.00635 146.155576 
L 258.570534 145.070404 
L 261.66524 144.459126 
L 261.229431 143.373951 
L 262.776795 143.068317 
L 262.340989 141.98314 
L 263.888361 141.677509 
L 263.452557 140.59233 
L 264.999939 140.286702 
L 264.564137 139.201521 
L 267.658921 138.590273 
L 266.78733 136.419906 
L 268.334738 136.114286 
L 267.027342 132.858728 
L 268.57477 132.553107 
L 267.703167 130.38273 
L 269.25061 130.077111 
L 268.814808 128.99192 
L 270.36226 128.686304 
L 269.926461 127.601112 
L 273.021386 126.989889 
L 272.585595 125.904693 
L 274.133068 125.599086 
L 273.261486 123.428691 
L 274.808974 123.123086 
L 273.93739 120.952686 
L 275.484892 120.647082 
L 275.0491 119.56188 
L 276.596611 119.256279 
L 275.289232 116.000667 
L 276.836764 115.695066 
L 275.965172 113.524653 
L 277.512718 113.219053 
L 277.076922 112.133844 
L 278.624477 111.828247 
L 277.752887 109.657826 
L 279.300456 109.35223 
L 278.864662 108.267018 
L 280.41224 107.961425 
L 279.976448 106.87621 
L 281.524035 106.57062 
L 281.088245 105.485404 
L 282.635841 105.179816 
L 281.328467 101.924161 
L 282.876083 101.618574 
L 282.004494 99.448132 
L 283.552125 99.142546 
L 282.680533 96.972099 
L 285.775828 96.360934 
L 285.340038 95.275708 
L 286.887696 94.97013 
L 286.451908 93.884901 
L 287.999575 93.579326 
L 287.128001 91.408865 
L 288.675682 91.103292 
L 287.804105 88.932826 
L 289.351801 88.627254 
L 288.480222 86.456784 
L 291.575646 85.845647 
L 292.011426 86.930885 
L 302.845478 84.792045 
L 303.281215 85.877292 
L 304.828945 85.571761 
L 305.264674 86.65701 
L 306.812402 86.351485 
L 307.248121 87.436734 
L 310.343576 86.8257 
L 310.779281 87.910951 
L 313.874738 87.299936 
L 314.310428 88.38519 
L 315.858156 88.079691 
L 316.293838 89.164946 
L 317.841564 88.859451 
L 318.712906 91.029963 
L 321.808346 90.418993 
L 321.372687 89.333734 
L 322.920418 89.028254 
L 322.484762 87.942994 
L 325.580244 87.332043 
L 325.144595 86.246779 
L 326.692347 85.941309 
L 326.2567 84.856043 
L 327.804461 84.550575 
L 327.368817 83.465308 
L 328.916586 83.159843 
L 328.480944 82.074574 
L 330.028723 81.769112 
L 329.593083 80.683841 
L 332.688661 80.072926 
L 332.253029 78.987652 
L 333.800829 78.6822 
L 333.365199 77.596924 
L 336.46082 76.986028 
L 336.025198 75.900749 
L 340.668672 74.984433 
L 340.233063 73.899149 
L 341.7809 73.593718 
L 341.345293 72.508432 
L 353.728155 70.065117 
L 353.29259 68.97982 
L 357.936236 68.063642 
L 357.500683 66.97834 
L 363.692282 65.756822 
L 363.256748 64.671514 
L 366.352579 64.060777 
L 366.788101 65.146087 
L 368.336016 64.840727 
L 368.771529 65.926038 
L 370.319442 65.620683 
L 370.754947 66.705996 
L 372.302857 66.400646 
L 372.738353 67.48596 
L 374.286261 67.180615 
L 375.157231 69.351244 
L 378.253035 68.740574 
L 378.688504 69.825891 
L 380.236406 69.520563 
L 380.671866 70.605881 
L 385.315575 69.689928 
L 384.880132 68.604606 
L 391.071814 67.383389 
L 391.507235 68.468716 
L 393.055158 68.163424 
L 393.49057 69.248752 
L 395.038491 68.943465 
L 395.473894 70.028794 
L 397.021813 69.723513 
L 397.457207 70.808843 
L 399.005124 70.503568 
L 399.440509 71.588899 
L 400.988424 71.283629 
L 401.4238 72.368961 
L 402.971713 72.063696 
L 403.842443 74.234362 
L 405.390348 73.929105 
L 406.696402 77.185105 
L 408.244294 76.879856 
L 409.114968 79.050523 
L 410.662852 78.745281 
L 411.098179 79.830615 
L 412.646061 79.525379 
L 413.952003 82.781384 
L 415.499872 82.476156 
L 416.805767 85.732162 
L 418.353622 85.426942 
L 419.659471 88.682948 
L 421.207312 88.377736 
L 421.642583 89.463072 
L 423.190422 89.157866 
L 424.931448 93.499212 
L 426.479269 93.194015 
L 427.34975 95.364688 
L 428.897563 95.059499 
L 429.768019 97.230173 
L 431.315825 96.924991 
L 431.751042 98.010329 
L 433.298845 97.705152 
L 434.169259 99.875829 
L 435.717055 99.57066 
L 437.022633 102.826677 
L 438.570415 102.521515 
L 440.746284 107.948209 
L 442.294042 107.643059 
L 444.469798 113.069749 
L 442.922068 113.374892 
L 444.662633 117.716231 
L 443.114929 118.021373 
L 444.420334 121.277368 
L 442.87265 121.58251 
L 444.178042 124.838498 
L 442.630377 125.143639 
L 443.935755 128.399619 
L 437.745199 129.62021 
L 438.18034 130.70553 
L 427.347037 132.841716 
L 427.782213 133.927026 
L 426.234618 134.232211 
L 427.975313 138.573441 
L 426.427743 138.878624 
L 426.862914 139.963929 
L 425.315353 140.269115 
L 425.750526 141.354418 
L 424.202974 141.659607 
L 424.63815 142.744909 
L 423.090607 143.0501 
L 423.525784 144.1354 
L 421.97825 144.440594 
L 422.413429 145.525892 
L 420.865904 145.831089 
L 421.301086 146.916385 
L 419.75357 147.221585 
L 420.188754 148.306879 
L 418.641246 148.612082 
L 419.076432 149.697374 
L 417.528934 150.002579 
L 417.964122 151.08787 
L 414.869147 151.698291 
L 415.304343 152.783578 
L 413.756866 153.088793 
L 415.06245 156.344648 
L 413.514993 156.649863 
L 415.255747 160.990992 
L 416.803182 160.685782 
L 422.025051 173.709146 
L 420.477683 174.014338 
L 420.912822 175.099615 
L 419.365463 175.40481 
L 420.235742 177.575358 
L 418.688398 177.880555 
L 419.558675 180.051099 
L 418.011345 180.356297 
L 418.446484 181.441567 
L 416.899163 181.746768 
L 417.334304 182.832036 
L 411.145075 184.052876 
L 411.580235 185.138139 
L 408.485653 185.748581 
L 408.92082 186.83384 
L 404.278988 187.74953 
L 404.714169 188.834785 
L 403.166904 189.140022 
L 403.602087 190.225274 
L 402.054831 190.530514 
L 402.490017 191.615765 
L 400.94277 191.921007 
L 401.813141 194.091504 
L 400.265909 194.396748 
L 400.701095 195.481995 
L 399.153871 195.787242 
L 399.58906 196.872487 
L 398.041845 197.177736 
L 398.912223 199.348222 
L 397.365022 199.653473 
L 398.235398 201.823954 
L 396.688212 202.129206 
L 397.1234 203.214444 
L 395.576223 203.519699 
L 396.011414 204.604936 
L 389.822763 205.825993 
L 390.257972 206.911223 
L 385.616537 207.827055 
L 386.051759 208.912281 
L 384.504626 209.217566 
L 385.375072 211.388014 
L 383.827953 211.693299 
L 384.698396 213.863743 
L 383.151293 214.16903 
L 384.021733 216.339469 
L 382.474644 216.644757 
L 383.345082 218.815192 
L 381.798007 219.120482 
L 382.668443 221.290912 
L 381.121383 221.596203 
L 381.556601 222.681416 
L 376.915457 223.59731 
L 377.350689 224.682519 
L 372.709592 225.598447 
L 373.144837 226.68365 
L 368.503788 227.599611 
L 368.068526 226.514412 
L 360.333484 228.041104 
L 360.768773 229.126297 
L 359.22178 229.431646 
L 359.657072 230.516837 
L 358.110088 230.822189 
L 359.851242 235.162943 
L 358.304284 235.468294 
L 358.73957 236.55348 
L 357.19262 236.858833 
L 358.498474 240.114384 
L 356.951544 240.419738 
L 359.998455 248.016 
L 358.451568 248.321348 
L 358.886833 249.406525 
L 357.339955 249.711876 
L 357.775222 250.797051 
L 356.228353 251.102405 
L 357.098888 253.272751 
L 355.552034 253.578106 
L 355.987302 254.663278 
L 357.534151 254.357924 
L 358.404666 256.528268 
L 359.951507 256.222922 
L 361.257237 259.478439 
L 362.804065 259.173101 
L 363.674523 261.343447 
L 365.221344 261.038116 
L 366.526989 264.293635 
L 368.073796 263.988313 
L 372.425673 274.840032 
L 370.878921 275.145341 
L 373.925072 282.741511 
L 361.551494 285.184053 
L 361.986689 286.269207 
L 360.440012 286.574542 
L 360.87521 287.659695 
L 359.328542 287.965032 
L 359.763742 289.050183 
L 355.123776 289.966218 
L 355.558989 291.051364 
L 352.465707 291.662071 
L 352.900927 292.747214 
L 348.261046 293.663303 
L 348.69628 294.748441 
L 347.149665 295.053811 
L 347.584901 296.138947 
L 344.491693 296.749697 
L 344.926936 297.83483 
L 343.380343 298.140209 
L 343.815589 299.225341 
L 339.175845 300.1415 
L 339.611104 301.226627 
L 336.51797 301.837418 
L 336.953237 302.922542 
L 335.40668 303.227942 
L 335.841949 304.313064 
L 328.109246 305.840121 
L 328.544539 306.925236 
L 325.451493 307.536085 
L 325.886794 308.621196 
L 322.793772 309.232059 
L 323.22908 310.317167 
L 323.22908 310.317167 
" clip-path="url(#pc7f0349b7d)" style="fill: none; stroke: #000000; stroke-width: 1.4"/>
   </g>
  </g>
  <g id="axes_2">
   <g id="patch_77">
    <path d="M 578.702812 337.678125 
L 593.102813 337.678125 
L 593.102813 49.678125 
L 578.702812 49.678125 
z
" style="fill: #ffffff"/>
   </g>
   <g id="patch_78">
    <path d="M 578.702812 49.678125 
L 585.902812 35.278125 
L 593.102813 49.678125 
" style="fill: #1a237e"/>
   </g>
   <g id="QuadMesh_1">
    <path d="M 578.702812 337.678125 
L 593.102813 337.678125 
L 593.102813 313.678125 
L 578.702812 313.678125 
L 578.702812 337.678125 
" clip-path="url(#pb911e7a4f0)" style="fill: #ffffff"/>
    <path d="M 578.702812 313.678125 
L 593.102813 313.678125 
L 593.102813 289.678125 
L 578.702812 289.678125 
L 578.702812 313.678125 
" clip-path="url(#pb911e7a4f0)" style="fill: #c8facc"/>
    <path d="M 578.702812 289.678125 
L 593.102813 289.678125 
L 593.102813 265.678125 
L 578.702812 265.678125 
L 578.702812 289.678125 
" clip-path="url(#pb911e7a4f0)" style="fill: #7be37c"/>
    <path d="M 578.702812 265.678125 
L 593.102813 265.678125 
L 593.102813 241.678125 
L 578.702812 241.678125 
L 578.702812 265.678125 
" clip-path="url(#pb911e7a4f0)" style="fill: #c7f266"/>
    <path d="M 578.702812 241.678125 
L 593.102813 241.678125 
L 593.102813 217.678125 
L 578.702812 217.678125 
L 578.702812 241.678125 
" clip-path="url(#pb911e7a4f0)" style="fill: #ffe66b"/>
    <path d="M 578.702812 217.678125 
L 593.102813 217.678125 
L 593.102813 193.678125 
L 578.702812 193.678125 
L 578.702812 217.678125 
" clip-path="url(#pb911e7a4f0)" style="fill: #ffae42"/>
    <path d="M 578.702812 193.678125 
L 593.102813 193.678125 
L 593.102813 169.678125 
L 578.702812 169.678125 
L 578.702812 193.678125 
" clip-path="url(#pb911e7a4f0)" style="fill: #ff6d3a"/>
    <path d="M 578.702812 169.678125 
L 593.102813 169.678125 
L 593.102813 145.678125 
L 578.702812 145.678125 
L 578.702812 169.678125 
" clip-path="url(#pb911e7a4f0)" style="fill: #e53228"/>
    <path d="M 578.702812 145.678125 
L 593.102813 145.678125 
L 593.102813 121.678125 
L 578.702812 121.678125 
L 578.702812 145.678125 
" clip-path="url(#pb911e7a4f0)" style="fill: #b3175b"/>
    <path d="M 578.702812 121.678125 
L 593.102813 121.678125 
L 593.102813 97.678125 
L 578.702812 97.678125 
L 578.702812 121.678125 
" clip-path="url(#pb911e7a4f0)" style="fill: #6a1b9a"/>
    <path d="M 578.702812 97.678125 
L 593.102813 97.678125 
L 593.102813 73.678125 
L 578.702812 73.678125 
L 578.702812 97.678125 
" clip-path="url(#pb911e7a4f0)" style="fill: #4a148c"/>
    <path d="M 578.702812 73.678125 
L 593.102813 73.678125 
L 593.102813 49.678125 
L 578.702812 49.678125 
L 578.702812 73.678125 
" clip-path="url(#pb911e7a4f0)" style="fill: #311b92"/>
   </g>
   <g id="matplotlib.axis_3"/>
   <g id="matplotlib.axis_4">
    <g id="ytick_9">
     <g id="line2d_14">
      <defs>
       <path id="m0b42831695" d="M 0 0 
L 3.5 0 
" style="stroke: #000000; stroke-width: 0.8"/>
      </defs>
      <g>
       <use xlink:href="#m0b42831695" x="593.102813" y="337.678125" style="stroke: #000000; stroke-width: 0.8"/>
      </g>
     </g>
     <g id="text_17">
      <!-- 0 -->
      <g transform="translate(600.102813 341.477344) scale(0.1 -0.1)">
       <use xlink:href="#DejaVuSans-30"/>
      </g>
     </g>
    </g>
    <g id="ytick_10">
     <g id="line2d_15">
      <g>
       <use xlink:href="#m0b42831695" x="593.102813" y="313.678125" style="stroke: #000000; stroke-width: 0.8"/>
      </g>
     </g>
     <g id="text_18">
      <!-- 0.01 -->
      <g transform="translate(600.102813 317.477344) scale(0.1 -0.1)">
       <use xlink:href="#DejaVuSans-30"/>
       <use xlink:href="#DejaVuSans-2e" transform="translate(63.623047 0)"/>
       <use xlink:href="#DejaVuSans-30" transform="translate(95.410156 0)"/>
       <use xlink:href="#DejaVuSans-31" transform="translate(159.033203 0)"/>
      </g>
     </g>
    </g>
    <g id="ytick_11">
     <g id="line2d_16">
      <g>
       <use xlink:href="#m0b42831695" x="593.102813" y="289.678125" style="stroke: #000000; stroke-width: 0.8"/>
      </g>
     </g>
     <g id="text_19">
      <!-- 0.1 -->
      <g transform="translate(600.102813 293.477344) scale(0.1 -0.1)">
       <use xlink:href="#DejaVuSans-30"/>
       <use xlink:href="#DejaVuSans-2e" transform="translate(63.623047 0)"/>
       <use xlink:href="#DejaVuSans-31" transform="translate(95.410156 0)"/>
      </g>
     </g>
    </g>
    <g id="ytick_12">
     <g id="line2d_17">
      <g>
       <use xlink:href="#m0b42831695" x="593.102813" y="265.678125" style="stroke: #000000; stroke-width: 0.8"/>
      </g>
     </g>
     <g id="text_20">
      <!-- 0.25 -->
      <g transform="translate(600.102813 269.477344) scale(0.1 -0.1)">
       <use xlink:href="#DejaVuSans-30"/>
       <use xlink:href="#DejaVuSans-2e" transform="translate(63.623047 0)"/>
       <use xlink:href="#DejaVuSans-32" transform="translate(95.410156 0)"/>
       <use xlink:href="#DejaVuSans-35" transform="translate(159.033203 0)"/>
      </g>
     </g>
    </g>
    <g id="ytick_13">
     <g id="line2d_18">
      <g>
       <use xlink:href="#m0b42831695" x="593.102813" y="241.678125" style="stroke: #000000; stroke-width: 0.8"/>
      </g>
     </g>
     <g id="text_21">
      <!-- 0.5 -->
      <g transform="translate(600.102813 245.477344) scale(0.1 -0.1)">
       <use xlink:href="#DejaVuSans-30"/>
       <use xlink:href="#DejaVuSans-2e" transform="translate(63.623047 0)"/>
       <use xlink:href="#DejaVuSans-35" transform="translate(95.410156 0)"/>
      </g>
     </g>
    </g>
    <g id="ytick_14">
     <g id="line2d_19">
      <g>
       <use xlink:href="#m0b42831695" x="593.102813" y="217.678125" style="stroke: #000000; stroke-width: 0.8"/>
      </g>
     </g>
     <g id="text_22">
      <!-- 1 -->
      <g transform="translate(600.102813 221.477344) scale(0.1 -0.1)">
       <use xlink:href="#DejaVuSans-31"/>
      </g>
     </g>
    </g>
    <g id="ytick_15">
     <g id="line2d_20">
      <g>
       <use xlink:href="#m0b42831695" x="593.102813" y="193.678125" style="stroke: #000000; stroke-width: 0.8"/>
      </g>
     </g>
     <g id="text_23">
      <!-- 2 -->
      <g transform="translate(600.102813 197.477344) scale(0.1 -0.1)">
       <use xlink:href="#DejaVuSans-32"/>
      </g>
     </g>
    </g>
    <g id="ytick_16">
     <g id="line2d_21">
      <g>
       <use xlink:href="#m0b42831695" x="593.102813" y="169.678125" style="stroke: #000000; stroke-width: 0.8"/>
      </g>
     </g>
     <g id="text_24">
      <!-- 3 -->
      <g transform="translate(600.102813 173.477344) scale(0.1 -0.1)">
       <use xlink:href="#DejaVuSans-33"/>
      </g>
     </g>
    </g>
    <g id="ytick_17">
     <g id="line2d_22">
      <g>
       <use xlink:href="#m0b42831695" x="593.102813" y="145.678125" style="stroke: #000000; stroke-width: 0.8"/>
      </g>
     </g>
     <g id="text_25">
      <!-- 4 -->
      <g transform="translate(600.102813 149.477344) scale(0.1 -0.1)">
       <use xlink:href="#DejaVuSans-34"/>
      </g>
     </g>
    </g>
    <g id="ytick_18">
     <g id="line2d_23">
      <g>
       <use xlink:href="#m0b42831695" x="593.102813" y="121.678125" style="stroke: #000000; stroke-width: 0.8"/>
      </g>
     </g>
     <g id="text_26">
      <!-- 5 -->
      <g transform="translate(600.102813 125.477344) scale(0.1 -0.1)">
       <use xlink:href="#DejaVuSans-35"/>
      </g>
     </g>
    </g>
    <g id="ytick_19">
     <g id="line2d_24">
      <g>
       <use xlink:href="#m0b42831695" x="593.102813" y="97.678125" style="stroke: #000000; stroke-width: 0.8"/>
      </g>
     </g>
     <g id="text_27">
      <!-- 6 -->
      <g transform="translate(600.102813 101.477344) scale(0.1 -0.1)">
       <use xlink:href="#DejaVuSans-36"/>
      </g>
     </g>
    </g>
    <g id="ytick_20">
     <g id="line2d_25">
      <g>
       <use xlink:href="#m0b42831695" x="593.102813" y="73.678125" style="stroke: #000000; stroke-width: 0.8"/>
      </g>
     </g>
     <g id="text_28">
      <!-- 8 -->
      <g transform="translate(600.102813 77.477344) scale(0.1 -0.1)">
       <use xlink:href="#DejaVuSans-38"/>
      </g>
     </g>
    </g>
    <g id="ytick_21">
     <g id="line2d_26">
      <g>
       <use xlink:href="#m0b42831695" x="593.102813" y="49.678125" style="stroke: #000000; stroke-width: 0.8"/>
      </g>
     </g>
     <g id="text_29">
      <!-- 10 -->
      <g transform="translate(600.102813 53.477344) scale(0.1 -0.1)">
       <use xlink:href="#DejaVuSans-31"/>
       <use xlink:href="#DejaVuSans-30" transform="translate(63.623047 0)"/>
      </g>
     </g>
    </g>
    <g id="text_30">
     <!-- Cumulative precipitation (in) -->
     <g transform="translate(633.966875 265.35) rotate(-90) scale(0.1 -0.1)">
      <use xlink:href="#DejaVuSans-43"/>
      <use xlink:href="#DejaVuSans-75" transform="translate(69.824219 0)"/>
      <use xlink:href="#DejaVuSans-6d" transform="translate(133.203125 0)"/>
      <use xlink:href="#DejaVuSans-75" transform="translate(230.615234 0)"/>
      <use xlink:href="#DejaVuSans-6c" transform="translate(293.994141 0)"/>
      <use xlink:href="#DejaVuSans-61" transform="translate(321.777344 0)"/>
      <use xlink:href="#DejaVuSans-74" transform="translate(383.056641 0)"/>
      <use xlink:href="#DejaVuSans-69" transform="translate(422.265625 0)"/>
      <use xlink:href="#DejaVuSans-76" transform="translate(450.048828 0)"/>
      <use xlink:href="#DejaVuSans-65" transform="translate(509.228516 0)"/>
      <use xlink:href="#DejaVuSans-20" transform="translate(570.751953 0)"/>
      <use xlink:href="#DejaVuSans-70" transform="translate(602.539062 0)"/>
      <use xlink:href="#DejaVuSans-72" transform="translate(666.015625 0)"/>
      <use xlink:href="#DejaVuSans-65" transform="translate(704.878906 0)"/>
      <use xlink:href="#DejaVuSans-63" transform="translate(766.402344 0)"/>
      <use xlink:href="#DejaVuSans-69" transform="translate(821.382812 0)"/>
      <use xlink:href="#DejaVuSans-70" transform="translate(849.166016 0)"/>
      <use xlink:href="#DejaVuSans-69" transform="translate(912.642578 0)"/>
      <use xlink:href="#DejaVuSans-74" transform="translate(940.425781 0)"/>
      <use xlink:href="#DejaVuSans-61" transform="translate(979.634766 0)"/>
      <use xlink:href="#DejaVuSans-74" transform="translate(1040.914062 0)"/>
      <use xlink:href="#DejaVuSans-69" transform="translate(1080.123047 0)"/>
      <use xlink:href="#DejaVuSans-6f" transform="translate(1107.90625 0)"/>
      <use xlink:href="#DejaVuSans-6e" transform="translate(1169.087891 0)"/>
      <use xlink:href="#DejaVuSans-20" transform="translate(1232.466797 0)"/>
      <use xlink:href="#DejaVuSans-28" transform="translate(1264.253906 0)"/>
      <use xlink:href="#DejaVuSans-69" transform="translate(1303.267578 0)"/>
      <use xlink:href="#DejaVuSans-6e" transform="translate(1331.050781 0)"/>
      <use xlink:href="#DejaVuSans-29" transform="translate(1394.429688 0)"/>
     </g>
    </g>
   </g>
   <g id="LineCollection_1"/>
   <g id="patch_79">
    <path d="M 578.702812 337.678125 
L 585.902812 337.678125 
L 593.102813 337.678125 
L 593.102813 49.678125 
L 585.902812 35.278125 
L 578.702812 49.678125 
L 578.702812 337.678125 
z
" style="fill: none; stroke: #000000; stroke-width: 0.8; stroke-linejoin: miter; stroke-linecap: square"/>
   </g>
  </g>
 </g>
 <defs>
  <clipPath id="pc7f0349b7d">
   <rect x="84.20034" y="22.318125" width="402.204945" height="332.64"/>
  </clipPath>
  <clipPath id="pb911e7a4f0">
   <rect x="578.702812" y="49.678125" width="14.4" height="288"/>
  </clipPath>
 </defs>
</svg>
