<?xml version="1.0" encoding="utf-8" standalone="no"?>
<!DOCTYPE svg PUBLIC "-//W3C//DTD SVG 1.1//EN"
  "http://www.w3.org/Graphics/SVG/1.1/DTD/svg11.dtd">
<svg xmlns:xlink="http://www.w3.org/1999/xlink" width="637.755625pt" height="344.074375pt" viewBox="0 0 637.755625 344.074375" xmlns="http://www.w3.org/2000/svg" version="1.1">
 <metadata>
  <rdf:RDF xmlns:dc="http://purl.org/dc/elements/1.1/" xmlns:cc="http://creativecommons.org/ns#" xmlns:rdf="http://www.w3.org/1999/02/22-rdf-syntax-ns#">
   <cc:Work>
    <dc:type rdf:resource="http://purl.org/dc/dcmitype/StillImage"/>
    <dc:date>2025-11-04T18:09:18.830111</dc:date>
    <dc:format>image/svg+xml</dc:format>
    <dc:creator>
     <cc:Agent>
      <dc:title>Matplotlib v3.10.0, https://matplotlib.org/</dc:title>
     </cc:Agent>
    </dc:creator>
   </cc:Work>
  </rdf:RDF>
 </metadata>
 <defs>
  <style type="text/css">*{stroke-linejoin: round; stroke-linecap: butt}</style>
 </defs>
 <g id="figure_1">
  <g id="patch_1">
   <path d="M 0 344.074375 
L 637.755625 344.074375 
L 637.755625 0 
L 0 0 
z
" style="fill: #ffffff"/>
  </g>
  <g id="axes_1">
   <g id="patch_2">
    <path d="M 46.965625 299.518125 
L 604.965625 299.518125 
L 604.965625 22.318125 
L 46.965625 22.318125 
z
" style="fill: #ffffff"/>
   </g>
   <g id="matplotlib.axis_1">
    <g id="xtick_1">
     <g id="line2d_1">
      <path d="M 184.965625 299.518125 
L 184.965625 22.318125 
" clip-path="url(#p9969a6d168)" style="fill: none; stroke: #b0b0b0; stroke-opacity: 0.15; stroke-width: 0.8; stroke-linecap: square"/>
     </g>
     <g id="line2d_2">
      <defs>
       <path id="m2f7952d023" d="M 0 0 
L 0 8 
" style="stroke: #000000; stroke-width: 1.2"/>
      </defs>
      <g>
       <use xlink:href="#m2f7952d023" x="184.965625" y="299.518125" style="stroke: #000000; stroke-width: 1.2"/>
      </g>
     </g>
     <g id="text_1">
      <!-- Tue Nov 04 -->
      <g transform="translate(157.122656 321.116563) scale(0.1 -0.1)">
       <defs>
        <path id="DejaVuSans-54" d="M -19 4666 
L 3928 4666 
L 3928 4134 
L 2272 4134 
L 2272 0 
L 1638 0 
L 1638 4134 
L -19 4134 
L -19 4666 
z
" transform="scale(0.015625)"/>
        <path id="DejaVuSans-75" d="M 544 1381 
L 544 3500 
L 1119 3500 
L 1119 1403 
Q 1119 906 1312 657 
Q 1506 409 1894 409 
Q 2359 409 2629 706 
Q 2900 1003 2900 1516 
L 2900 3500 
L 3475 3500 
L 3475 0 
L 2900 0 
L 2900 538 
Q 2691 219 2414 64 
Q 2138 -91 1772 -91 
Q 1169 -91 856 284 
Q 544 659 544 1381 
z
M 1991 3584 
L 1991 3584 
z
" transform="scale(0.015625)"/>
        <path id="DejaVuSans-65" d="M 3597 1894 
L 3597 1613 
L 953 1613 
Q 991 1019 1311 708 
Q 1631 397 2203 397 
Q 2534 397 2845 478 
Q 3156 559 3463 722 
L 3463 178 
Q 3153 47 2828 -22 
Q 2503 -91 2169 -91 
Q 1331 -91 842 396 
Q 353 884 353 1716 
Q 353 2575 817 3079 
Q 1281 3584 2069 3584 
Q 2775 3584 3186 3129 
Q 3597 2675 3597 1894 
z
M 3022 2063 
Q 3016 2534 2758 2815 
Q 2500 3097 2075 3097 
Q 1594 3097 1305 2825 
Q 1016 2553 972 2059 
L 3022 2063 
z
" transform="scale(0.015625)"/>
        <path id="DejaVuSans-20" transform="scale(0.015625)"/>
        <path id="DejaVuSans-4e" d="M 628 4666 
L 1478 4666 
L 3547 763 
L 3547 4666 
L 4159 4666 
L 4159 0 
L 3309 0 
L 1241 3903 
L 1241 0 
L 628 0 
L 628 4666 
z
" transform="scale(0.015625)"/>
        <path id="DejaVuSans-6f" d="M 1959 3097 
Q 1497 3097 1228 2736 
Q 959 2375 959 1747 
Q 959 1119 1226 758 
Q 1494 397 1959 397 
Q 2419 397 2687 759 
Q 2956 1122 2956 1747 
Q 2956 2369 2687 2733 
Q 2419 3097 1959 3097 
z
M 1959 3584 
Q 2709 3584 3137 3096 
Q 3566 2609 3566 1747 
Q 3566 888 3137 398 
Q 2709 -91 1959 -91 
Q 1206 -91 779 398 
Q 353 888 353 1747 
Q 353 2609 779 3096 
Q 1206 3584 1959 3584 
z
" transform="scale(0.015625)"/>
        <path id="DejaVuSans-76" d="M 191 3500 
L 800 3500 
L 1894 563 
L 2988 3500 
L 3597 3500 
L 2284 0 
L 1503 0 
L 191 3500 
z
" transform="scale(0.015625)"/>
        <path id="DejaVuSans-30" d="M 2034 4250 
Q 1547 4250 1301 3770 
Q 1056 3291 1056 2328 
Q 1056 1369 1301 889 
Q 1547 409 2034 409 
Q 2525 409 2770 889 
Q 3016 1369 3016 2328 
Q 3016 3291 2770 3770 
Q 2525 4250 2034 4250 
z
M 2034 4750 
Q 2819 4750 3233 4129 
Q 3647 3509 3647 2328 
Q 3647 1150 3233 529 
Q 2819 -91 2034 -91 
Q 1250 -91 836 529 
Q 422 1150 422 2328 
Q 422 3509 836 4129 
Q 1250 4750 2034 4750 
z
" transform="scale(0.015625)"/>
        <path id="DejaVuSans-34" d="M 2419 4116 
L 825 1625 
L 2419 1625 
L 2419 4116 
z
M 2253 4666 
L 3047 4666 
L 3047 1625 
L 3713 1625 
L 3713 1100 
L 3047 1100 
L 3047 0 
L 2419 0 
L 2419 1100 
L 313 1100 
L 313 1709 
L 2253 4666 
z
" transform="scale(0.015625)"/>
       </defs>
       <use xlink:href="#DejaVuSans-54"/>
       <use xlink:href="#DejaVuSans-75" transform="translate(45.958984 0)"/>
       <use xlink:href="#DejaVuSans-65" transform="translate(109.337891 0)"/>
       <use xlink:href="#DejaVuSans-20" transform="translate(170.861328 0)"/>
       <use xlink:href="#DejaVuSans-4e" transform="translate(202.648438 0)"/>
       <use xlink:href="#DejaVuSans-6f" transform="translate(277.453125 0)"/>
       <use xlink:href="#DejaVuSans-76" transform="translate(338.634766 0)"/>
       <use xlink:href="#DejaVuSans-20" transform="translate(397.814453 0)"/>
       <use xlink:href="#DejaVuSans-30" transform="translate(429.601562 0)"/>
       <use xlink:href="#DejaVuSans-34" transform="translate(493.224609 0)"/>
      </g>
     </g>
    </g>
    <g id="xtick_2">
     <g id="line2d_3">
      <path d="M 112.965625 299.518125 
L 112.965625 22.318125 
" clip-path="url(#p9969a6d168)" style="fill: none; stroke: #b0b0b0; stroke-opacity: 0.08; stroke-width: 0.6; stroke-linecap: square"/>
     </g>
     <g id="line2d_4">
      <defs>
       <path id="m8fce5eeda1" d="M 0 0 
L 0 4 
" style="stroke: #000000; stroke-width: 0.8"/>
      </defs>
      <g>
       <use xlink:href="#m8fce5eeda1" x="112.965625" y="299.518125" style="stroke: #000000; stroke-width: 0.8"/>
      </g>
     </g>
     <g id="text_2">
      <!-- 21:00 -->
      <g transform="translate(99.997187 312.356719) scale(0.09 -0.09)">
       <defs>
        <path id="DejaVuSans-32" d="M 1228 531 
L 3431 531 
L 3431 0 
L 469 0 
L 469 531 
Q 828 903 1448 1529 
Q 2069 2156 2228 2338 
Q 2531 2678 2651 2914 
Q 2772 3150 2772 3378 
Q 2772 3750 2511 3984 
Q 2250 4219 1831 4219 
Q 1534 4219 1204 4116 
Q 875 4013 500 3803 
L 500 4441 
Q 881 4594 1212 4672 
Q 1544 4750 1819 4750 
Q 2544 4750 2975 4387 
Q 3406 4025 3406 3419 
Q 3406 3131 3298 2873 
Q 3191 2616 2906 2266 
Q 2828 2175 2409 1742 
Q 1991 1309 1228 531 
z
" transform="scale(0.015625)"/>
        <path id="DejaVuSans-31" d="M 794 531 
L 1825 531 
L 1825 4091 
L 703 3866 
L 703 4441 
L 1819 4666 
L 2450 4666 
L 2450 531 
L 3481 531 
L 3481 0 
L 794 0 
L 794 531 
z
" transform="scale(0.015625)"/>
        <path id="DejaVuSans-3a" d="M 750 794 
L 1409 794 
L 1409 0 
L 750 0 
L 750 794 
z
M 750 3309 
L 1409 3309 
L 1409 2516 
L 750 2516 
L 750 3309 
z
" transform="scale(0.015625)"/>
       </defs>
       <use xlink:href="#DejaVuSans-32"/>
       <use xlink:href="#DejaVuSans-31" transform="translate(63.623047 0)"/>
       <use xlink:href="#DejaVuSans-3a" transform="translate(127.246094 0)"/>
       <use xlink:href="#DejaVuSans-30" transform="translate(160.9375 0)"/>
       <use xlink:href="#DejaVuSans-30" transform="translate(224.560547 0)"/>
      </g>
     </g>
    </g>
    <g id="xtick_3">
     <g id="line2d_5">
      <path d="M 256.965625 299.518125 
L 256.965625 22.318125 
" clip-path="url(#p9969a6d168)" style="fill: none; stroke: #b0b0b0; stroke-opacity: 0.08; stroke-width: 0.6; stroke-linecap: square"/>
     </g>
     <g id="line2d_6">
      <g>
       <use xlink:href="#m8fce5eeda1" x="256.965625" y="299.518125" style="stroke: #000000; stroke-width: 0.8"/>
      </g>
     </g>
     <g id="text_3">
      <!-- 03:00 -->
      <g transform="translate(243.997187 312.356719) scale(0.09 -0.09)">
       <defs>
        <path id="DejaVuSans-33" d="M 2597 2516 
Q 3050 2419 3304 2112 
Q 3559 1806 3559 1356 
Q 3559 666 3084 287 
Q 2609 -91 1734 -91 
Q 1441 -91 1130 -33 
Q 819 25 488 141 
L 488 750 
Q 750 597 1062 519 
Q 1375 441 1716 441 
Q 2309 441 2620 675 
Q 2931 909 2931 1356 
Q 2931 1769 2642 2001 
Q 2353 2234 1838 2234 
L 1294 2234 
L 1294 2753 
L 1863 2753 
Q 2328 2753 2575 2939 
Q 2822 3125 2822 3475 
Q 2822 3834 2567 4026 
Q 2313 4219 1838 4219 
Q 1578 4219 1281 4162 
Q 984 4106 628 3988 
L 628 4550 
Q 988 4650 1302 4700 
Q 1616 4750 1894 4750 
Q 2613 4750 3031 4423 
Q 3450 4097 3450 3541 
Q 3450 3153 3228 2886 
Q 3006 2619 2597 2516 
z
" transform="scale(0.015625)"/>
       </defs>
       <use xlink:href="#DejaVuSans-30"/>
       <use xlink:href="#DejaVuSans-33" transform="translate(63.623047 0)"/>
       <use xlink:href="#DejaVuSans-3a" transform="translate(127.246094 0)"/>
       <use xlink:href="#DejaVuSans-30" transform="translate(160.9375 0)"/>
       <use xlink:href="#DejaVuSans-30" transform="translate(224.560547 0)"/>
      </g>
     </g>
    </g>
    <g id="xtick_4">
     <g id="line2d_7">
      <path d="M 328.965625 299.518125 
L 328.965625 22.318125 
" clip-path="url(#p9969a6d168)" style="fill: none; stroke: #b0b0b0; stroke-opacity: 0.08; stroke-width: 0.6; stroke-linecap: square"/>
     </g>
     <g id="line2d_8">
      <g>
       <use xlink:href="#m8fce5eeda1" x="328.965625" y="299.518125" style="stroke: #000000; stroke-width: 0.8"/>
      </g>
     </g>
     <g id="text_4">
      <!-- 06:00 -->
      <g transform="translate(315.997187 312.356719) scale(0.09 -0.09)">
       <defs>
        <path id="DejaVuSans-36" d="M 2113 2584 
Q 1688 2584 1439 2293 
Q 1191 2003 1191 1497 
Q 1191 994 1439 701 
Q 1688 409 2113 409 
Q 2538 409 2786 701 
Q 3034 994 3034 1497 
Q 3034 2003 2786 2293 
Q 2538 2584 2113 2584 
z
M 3366 4563 
L 3366 3988 
Q 3128 4100 2886 4159 
Q 2644 4219 2406 4219 
Q 1781 4219 1451 3797 
Q 1122 3375 1075 2522 
Q 1259 2794 1537 2939 
Q 1816 3084 2150 3084 
Q 2853 3084 3261 2657 
Q 3669 2231 3669 1497 
Q 3669 778 3244 343 
Q 2819 -91 2113 -91 
Q 1303 -91 875 529 
Q 447 1150 447 2328 
Q 447 3434 972 4092 
Q 1497 4750 2381 4750 
Q 2619 4750 2861 4703 
Q 3103 4656 3366 4563 
z
" transform="scale(0.015625)"/>
       </defs>
       <use xlink:href="#DejaVuSans-30"/>
       <use xlink:href="#DejaVuSans-36" transform="translate(63.623047 0)"/>
       <use xlink:href="#DejaVuSans-3a" transform="translate(127.246094 0)"/>
       <use xlink:href="#DejaVuSans-30" transform="translate(160.9375 0)"/>
       <use xlink:href="#DejaVuSans-30" transform="translate(224.560547 0)"/>
      </g>
     </g>
    </g>
    <g id="xtick_5">
     <g id="line2d_9">
      <path d="M 400.965625 299.518125 
L 400.965625 22.318125 
" clip-path="url(#p9969a6d168)" style="fill: none; stroke: #b0b0b0; stroke-opacity: 0.08; stroke-width: 0.6; stroke-linecap: square"/>
     </g>
     <g id="line2d_10">
      <g>
       <use xlink:href="#m8fce5eeda1" x="400.965625" y="299.518125" style="stroke: #000000; stroke-width: 0.8"/>
      </g>
     </g>
     <g id="text_5">
      <!-- 09:00 -->
      <g transform="translate(387.997187 312.356719) scale(0.09 -0.09)">
       <defs>
        <path id="DejaVuSans-39" d="M 703 97 
L 703 672 
Q 941 559 1184 500 
Q 1428 441 1663 441 
Q 2288 441 2617 861 
Q 2947 1281 2994 2138 
Q 2813 1869 2534 1725 
Q 2256 1581 1919 1581 
Q 1219 1581 811 2004 
Q 403 2428 403 3163 
Q 403 3881 828 4315 
Q 1253 4750 1959 4750 
Q 2769 4750 3195 4129 
Q 3622 3509 3622 2328 
Q 3622 1225 3098 567 
Q 2575 -91 1691 -91 
Q 1453 -91 1209 -44 
Q 966 3 703 97 
z
M 1959 2075 
Q 2384 2075 2632 2365 
Q 2881 2656 2881 3163 
Q 2881 3666 2632 3958 
Q 2384 4250 1959 4250 
Q 1534 4250 1286 3958 
Q 1038 3666 1038 3163 
Q 1038 2656 1286 2365 
Q 1534 2075 1959 2075 
z
" transform="scale(0.015625)"/>
       </defs>
       <use xlink:href="#DejaVuSans-30"/>
       <use xlink:href="#DejaVuSans-39" transform="translate(63.623047 0)"/>
       <use xlink:href="#DejaVuSans-3a" transform="translate(127.246094 0)"/>
       <use xlink:href="#DejaVuSans-30" transform="translate(160.9375 0)"/>
       <use xlink:href="#DejaVuSans-30" transform="translate(224.560547 0)"/>
      </g>
     </g>
    </g>
    <g id="xtick_6">
     <g id="line2d_11">
      <path d="M 472.965625 299.518125 
L 472.965625 22.318125 
" clip-path="url(#p9969a6d168)" style="fill: none; stroke: #b0b0b0; stroke-opacity: 0.08; stroke-width: 0.6; stroke-linecap: square"/>
     </g>
     <g id="line2d_12">
      <g>
       <use xlink:href="#m8fce5eeda1" x="472.965625" y="299.518125" style="stroke: #000000; stroke-width: 0.8"/>
      </g>
     </g>
     <g id="text_6">
      <!-- 12:00 -->
      <g transform="translate(459.997187 312.356719) scale(0.09 -0.09)">
       <use xlink:href="#DejaVuSans-31"/>
       <use xlink:href="#DejaVuSans-32" transform="translate(63.623047 0)"/>
       <use xlink:href="#DejaVuSans-3a" transform="translate(127.246094 0)"/>
       <use xlink:href="#DejaVuSans-30" transform="translate(160.9375 0)"/>
       <use xlink:href="#DejaVuSans-30" transform="translate(224.560547 0)"/>
      </g>
     </g>
    </g>
    <g id="xtick_7">
     <g id="line2d_13">
      <path d="M 544.965625 299.518125 
L 544.965625 22.318125 
" clip-path="url(#p9969a6d168)" style="fill: none; stroke: #b0b0b0; stroke-opacity: 0.08; stroke-width: 0.6; stroke-linecap: square"/>
     </g>
     <g id="line2d_14">
      <g>
       <use xlink:href="#m8fce5eeda1" x="544.965625" y="299.518125" style="stroke: #000000; stroke-width: 0.8"/>
      </g>
     </g>
     <g id="text_7">
      <!-- 15:00 -->
      <g transform="translate(531.997187 312.356719) scale(0.09 -0.09)">
       <defs>
        <path id="DejaVuSans-35" d="M 691 4666 
L 3169 4666 
L 3169 4134 
L 1269 4134 
L 1269 2991 
Q 1406 3038 1543 3061 
Q 1681 3084 1819 3084 
Q 2600 3084 3056 2656 
Q 3513 2228 3513 1497 
Q 3513 744 3044 326 
Q 2575 -91 1722 -91 
Q 1428 -91 1123 -41 
Q 819 9 494 109 
L 494 744 
Q 775 591 1075 516 
Q 1375 441 1709 441 
Q 2250 441 2565 725 
Q 2881 1009 2881 1497 
Q 2881 1984 2565 2268 
Q 2250 2553 1709 2553 
Q 1456 2553 1204 2497 
Q 953 2441 691 2322 
L 691 4666 
z
" transform="scale(0.015625)"/>
       </defs>
       <use xlink:href="#DejaVuSans-31"/>
       <use xlink:href="#DejaVuSans-35" transform="translate(63.623047 0)"/>
       <use xlink:href="#DejaVuSans-3a" transform="translate(127.246094 0)"/>
       <use xlink:href="#DejaVuSans-30" transform="translate(160.9375 0)"/>
       <use xlink:href="#DejaVuSans-30" transform="translate(224.560547 0)"/>
      </g>
     </g>
    </g>
    <g id="text_8">
     <!-- Local time -->
     <g transform="translate(300.120313 334.794688) scale(0.1 -0.1)">
      <defs>
       <path id="DejaVuSans-4c" d="M 628 4666 
L 1259 4666 
L 1259 531 
L 3531 531 
L 3531 0 
L 628 0 
L 628 4666 
z
" transform="scale(0.015625)"/>
       <path id="DejaVuSans-63" d="M 3122 3366 
L 3122 2828 
Q 2878 2963 2633 3030 
Q 2388 3097 2138 3097 
Q 1578 3097 1268 2742 
Q 959 2388 959 1747 
Q 959 1106 1268 751 
Q 1578 397 2138 397 
Q 2388 397 2633 464 
Q 2878 531 3122 666 
L 3122 134 
Q 2881 22 2623 -34 
Q 2366 -91 2075 -91 
Q 1284 -91 818 406 
Q 353 903 353 1747 
Q 353 2603 823 3093 
Q 1294 3584 2113 3584 
Q 2378 3584 2631 3529 
Q 2884 3475 3122 3366 
z
" transform="scale(0.015625)"/>
       <path id="DejaVuSans-61" d="M 2194 1759 
Q 1497 1759 1228 1600 
Q 959 1441 959 1056 
Q 959 750 1161 570 
Q 1363 391 1709 391 
Q 2188 391 2477 730 
Q 2766 1069 2766 1631 
L 2766 1759 
L 2194 1759 
z
M 3341 1997 
L 3341 0 
L 2766 0 
L 2766 531 
Q 2569 213 2275 61 
Q 1981 -91 1556 -91 
Q 1019 -91 701 211 
Q 384 513 384 1019 
Q 384 1609 779 1909 
Q 1175 2209 1959 2209 
L 2766 2209 
L 2766 2266 
Q 2766 2663 2505 2880 
Q 2244 3097 1772 3097 
Q 1472 3097 1187 3025 
Q 903 2953 641 2809 
L 641 3341 
Q 956 3463 1253 3523 
Q 1550 3584 1831 3584 
Q 2591 3584 2966 3190 
Q 3341 2797 3341 1997 
z
" transform="scale(0.015625)"/>
       <path id="DejaVuSans-6c" d="M 603 4863 
L 1178 4863 
L 1178 0 
L 603 0 
L 603 4863 
z
" transform="scale(0.015625)"/>
       <path id="DejaVuSans-74" d="M 1172 4494 
L 1172 3500 
L 2356 3500 
L 2356 3053 
L 1172 3053 
L 1172 1153 
Q 1172 725 1289 603 
Q 1406 481 1766 481 
L 2356 481 
L 2356 0 
L 1766 0 
Q 1100 0 847 248 
Q 594 497 594 1153 
L 594 3053 
L 172 3053 
L 172 3500 
L 594 3500 
L 594 4494 
L 1172 4494 
z
" transform="scale(0.015625)"/>
       <path id="DejaVuSans-69" d="M 603 3500 
L 1178 3500 
L 1178 0 
L 603 0 
L 603 3500 
z
M 603 4863 
L 1178 4863 
L 1178 4134 
L 603 4134 
L 603 4863 
z
" transform="scale(0.015625)"/>
       <path id="DejaVuSans-6d" d="M 3328 2828 
Q 3544 3216 3844 3400 
Q 4144 3584 4550 3584 
Q 5097 3584 5394 3201 
Q 5691 2819 5691 2113 
L 5691 0 
L 5113 0 
L 5113 2094 
Q 5113 2597 4934 2840 
Q 4756 3084 4391 3084 
Q 3944 3084 3684 2787 
Q 3425 2491 3425 1978 
L 3425 0 
L 2847 0 
L 2847 2094 
Q 2847 2600 2669 2842 
Q 2491 3084 2119 3084 
Q 1678 3084 1418 2786 
Q 1159 2488 1159 1978 
L 1159 0 
L 581 0 
L 581 3500 
L 1159 3500 
L 1159 2956 
Q 1356 3278 1631 3431 
Q 1906 3584 2284 3584 
Q 2666 3584 2933 3390 
Q 3200 3197 3328 2828 
z
" transform="scale(0.015625)"/>
      </defs>
      <use xlink:href="#DejaVuSans-4c"/>
      <use xlink:href="#DejaVuSans-6f" transform="translate(53.962891 0)"/>
      <use xlink:href="#DejaVuSans-63" transform="translate(115.144531 0)"/>
      <use xlink:href="#DejaVuSans-61" transform="translate(170.125 0)"/>
      <use xlink:href="#DejaVuSans-6c" transform="translate(231.404297 0)"/>
      <use xlink:href="#DejaVuSans-20" transform="translate(259.1875 0)"/>
      <use xlink:href="#DejaVuSans-74" transform="translate(290.974609 0)"/>
      <use xlink:href="#DejaVuSans-69" transform="translate(330.183594 0)"/>
      <use xlink:href="#DejaVuSans-6d" transform="translate(357.966797 0)"/>
      <use xlink:href="#DejaVuSans-65" transform="translate(455.378906 0)"/>
     </g>
    </g>
   </g>
   <g id="matplotlib.axis_2">
    <g id="ytick_1">
     <g id="line2d_15">
      <defs>
       <path id="m4b9740b830" d="M 0 0 
L -3.5 0 
" style="stroke: #000000; stroke-width: 0.8"/>
      </defs>
      <g>
       <use xlink:href="#m4b9740b830" x="46.965625" y="264.764279" style="stroke: #000000; stroke-width: 0.8"/>
      </g>
     </g>
     <g id="text_9">
      <!-- 440 -->
      <g transform="translate(20.878125 268.563498) scale(0.1 -0.1)">
       <use xlink:href="#DejaVuSans-34"/>
       <use xlink:href="#DejaVuSans-34" transform="translate(63.623047 0)"/>
       <use xlink:href="#DejaVuSans-30" transform="translate(127.246094 0)"/>
      </g>
     </g>
    </g>
    <g id="ytick_2">
     <g id="line2d_16">
      <g>
       <use xlink:href="#m4b9740b830" x="46.965625" y="209.379663" style="stroke: #000000; stroke-width: 0.8"/>
      </g>
     </g>
     <g id="text_10">
      <!-- 460 -->
      <g transform="translate(20.878125 213.178882) scale(0.1 -0.1)">
       <use xlink:href="#DejaVuSans-34"/>
       <use xlink:href="#DejaVuSans-36" transform="translate(63.623047 0)"/>
       <use xlink:href="#DejaVuSans-30" transform="translate(127.246094 0)"/>
      </g>
     </g>
    </g>
    <g id="ytick_3">
     <g id="line2d_17">
      <g>
       <use xlink:href="#m4b9740b830" x="46.965625" y="153.995048" style="stroke: #000000; stroke-width: 0.8"/>
      </g>
     </g>
     <g id="text_11">
      <!-- 480 -->
      <g transform="translate(20.878125 157.794267) scale(0.1 -0.1)">
       <defs>
        <path id="DejaVuSans-38" d="M 2034 2216 
Q 1584 2216 1326 1975 
Q 1069 1734 1069 1313 
Q 1069 891 1326 650 
Q 1584 409 2034 409 
Q 2484 409 2743 651 
Q 3003 894 3003 1313 
Q 3003 1734 2745 1975 
Q 2488 2216 2034 2216 
z
M 1403 2484 
Q 997 2584 770 2862 
Q 544 3141 544 3541 
Q 544 4100 942 4425 
Q 1341 4750 2034 4750 
Q 2731 4750 3128 4425 
Q 3525 4100 3525 3541 
Q 3525 3141 3298 2862 
Q 3072 2584 2669 2484 
Q 3125 2378 3379 2068 
Q 3634 1759 3634 1313 
Q 3634 634 3220 271 
Q 2806 -91 2034 -91 
Q 1263 -91 848 271 
Q 434 634 434 1313 
Q 434 1759 690 2068 
Q 947 2378 1403 2484 
z
M 1172 3481 
Q 1172 3119 1398 2916 
Q 1625 2713 2034 2713 
Q 2441 2713 2670 2916 
Q 2900 3119 2900 3481 
Q 2900 3844 2670 4047 
Q 2441 4250 2034 4250 
Q 1625 4250 1398 4047 
Q 1172 3844 1172 3481 
z
" transform="scale(0.015625)"/>
       </defs>
       <use xlink:href="#DejaVuSans-34"/>
       <use xlink:href="#DejaVuSans-38" transform="translate(63.623047 0)"/>
       <use xlink:href="#DejaVuSans-30" transform="translate(127.246094 0)"/>
      </g>
     </g>
    </g>
    <g id="ytick_4">
     <g id="line2d_18">
      <g>
       <use xlink:href="#m4b9740b830" x="46.965625" y="98.610433" style="stroke: #000000; stroke-width: 0.8"/>
      </g>
     </g>
     <g id="text_12">
      <!-- 500 -->
      <g transform="translate(20.878125 102.409651) scale(0.1 -0.1)">
       <use xlink:href="#DejaVuSans-35"/>
       <use xlink:href="#DejaVuSans-30" transform="translate(63.623047 0)"/>
       <use xlink:href="#DejaVuSans-30" transform="translate(127.246094 0)"/>
      </g>
     </g>
    </g>
    <g id="ytick_5">
     <g id="line2d_19">
      <g>
       <use xlink:href="#m4b9740b830" x="46.965625" y="43.225817" style="stroke: #000000; stroke-width: 0.8"/>
      </g>
     </g>
     <g id="text_13">
      <!-- 520 -->
      <g transform="translate(20.878125 47.025036) scale(0.1 -0.1)">
       <use xlink:href="#DejaVuSans-35"/>
       <use xlink:href="#DejaVuSans-32" transform="translate(63.623047 0)"/>
       <use xlink:href="#DejaVuSans-30" transform="translate(127.246094 0)"/>
      </g>
     </g>
    </g>
    <g id="text_14">
     <!-- Discharge (cfs) -->
     <g transform="translate(14.798437 198.567344) rotate(-90) scale(0.1 -0.1)">
      <defs>
       <path id="DejaVuSans-44" d="M 1259 4147 
L 1259 519 
L 2022 519 
Q 2988 519 3436 956 
Q 3884 1394 3884 2338 
Q 3884 3275 3436 3711 
Q 2988 4147 2022 4147 
L 1259 4147 
z
M 628 4666 
L 1925 4666 
Q 3281 4666 3915 4102 
Q 4550 3538 4550 2338 
Q 4550 1131 3912 565 
Q 3275 0 1925 0 
L 628 0 
L 628 4666 
z
" transform="scale(0.015625)"/>
       <path id="DejaVuSans-73" d="M 2834 3397 
L 2834 2853 
Q 2591 2978 2328 3040 
Q 2066 3103 1784 3103 
Q 1356 3103 1142 2972 
Q 928 2841 928 2578 
Q 928 2378 1081 2264 
Q 1234 2150 1697 2047 
L 1894 2003 
Q 2506 1872 2764 1633 
Q 3022 1394 3022 966 
Q 3022 478 2636 193 
Q 2250 -91 1575 -91 
Q 1294 -91 989 -36 
Q 684 19 347 128 
L 347 722 
Q 666 556 975 473 
Q 1284 391 1588 391 
Q 1994 391 2212 530 
Q 2431 669 2431 922 
Q 2431 1156 2273 1281 
Q 2116 1406 1581 1522 
L 1381 1569 
Q 847 1681 609 1914 
Q 372 2147 372 2553 
Q 372 3047 722 3315 
Q 1072 3584 1716 3584 
Q 2034 3584 2315 3537 
Q 2597 3491 2834 3397 
z
" transform="scale(0.015625)"/>
       <path id="DejaVuSans-68" d="M 3513 2113 
L 3513 0 
L 2938 0 
L 2938 2094 
Q 2938 2591 2744 2837 
Q 2550 3084 2163 3084 
Q 1697 3084 1428 2787 
Q 1159 2491 1159 1978 
L 1159 0 
L 581 0 
L 581 4863 
L 1159 4863 
L 1159 2956 
Q 1366 3272 1645 3428 
Q 1925 3584 2291 3584 
Q 2894 3584 3203 3211 
Q 3513 2838 3513 2113 
z
" transform="scale(0.015625)"/>
       <path id="DejaVuSans-72" d="M 2631 2963 
Q 2534 3019 2420 3045 
Q 2306 3072 2169 3072 
Q 1681 3072 1420 2755 
Q 1159 2438 1159 1844 
L 1159 0 
L 581 0 
L 581 3500 
L 1159 3500 
L 1159 2956 
Q 1341 3275 1631 3429 
Q 1922 3584 2338 3584 
Q 2397 3584 2469 3576 
Q 2541 3569 2628 3553 
L 2631 2963 
z
" transform="scale(0.015625)"/>
       <path id="DejaVuSans-67" d="M 2906 1791 
Q 2906 2416 2648 2759 
Q 2391 3103 1925 3103 
Q 1463 3103 1205 2759 
Q 947 2416 947 1791 
Q 947 1169 1205 825 
Q 1463 481 1925 481 
Q 2391 481 2648 825 
Q 2906 1169 2906 1791 
z
M 3481 434 
Q 3481 -459 3084 -895 
Q 2688 -1331 1869 -1331 
Q 1566 -1331 1297 -1286 
Q 1028 -1241 775 -1147 
L 775 -588 
Q 1028 -725 1275 -790 
Q 1522 -856 1778 -856 
Q 2344 -856 2625 -561 
Q 2906 -266 2906 331 
L 2906 616 
Q 2728 306 2450 153 
Q 2172 0 1784 0 
Q 1141 0 747 490 
Q 353 981 353 1791 
Q 353 2603 747 3093 
Q 1141 3584 1784 3584 
Q 2172 3584 2450 3431 
Q 2728 3278 2906 2969 
L 2906 3500 
L 3481 3500 
L 3481 434 
z
" transform="scale(0.015625)"/>
       <path id="DejaVuSans-28" d="M 1984 4856 
Q 1566 4138 1362 3434 
Q 1159 2731 1159 2009 
Q 1159 1288 1364 580 
Q 1569 -128 1984 -844 
L 1484 -844 
Q 1016 -109 783 600 
Q 550 1309 550 2009 
Q 550 2706 781 3412 
Q 1013 4119 1484 4856 
L 1984 4856 
z
" transform="scale(0.015625)"/>
       <path id="DejaVuSans-66" d="M 2375 4863 
L 2375 4384 
L 1825 4384 
Q 1516 4384 1395 4259 
Q 1275 4134 1275 3809 
L 1275 3500 
L 2222 3500 
L 2222 3053 
L 1275 3053 
L 1275 0 
L 697 0 
L 697 3053 
L 147 3053 
L 147 3500 
L 697 3500 
L 697 3744 
Q 697 4328 969 4595 
Q 1241 4863 1831 4863 
L 2375 4863 
z
" transform="scale(0.015625)"/>
       <path id="DejaVuSans-29" d="M 513 4856 
L 1013 4856 
Q 1481 4119 1714 3412 
Q 1947 2706 1947 2009 
Q 1947 1309 1714 600 
Q 1481 -109 1013 -844 
L 513 -844 
Q 928 -128 1133 580 
Q 1338 1288 1338 2009 
Q 1338 2731 1133 3434 
Q 928 4138 513 4856 
z
" transform="scale(0.015625)"/>
      </defs>
      <use xlink:href="#DejaVuSans-44"/>
      <use xlink:href="#DejaVuSans-69" transform="translate(77.001953 0)"/>
      <use xlink:href="#DejaVuSans-73" transform="translate(104.785156 0)"/>
      <use xlink:href="#DejaVuSans-63" transform="translate(156.884766 0)"/>
      <use xlink:href="#DejaVuSans-68" transform="translate(211.865234 0)"/>
      <use xlink:href="#DejaVuSans-61" transform="translate(275.244141 0)"/>
      <use xlink:href="#DejaVuSans-72" transform="translate(336.523438 0)"/>
      <use xlink:href="#DejaVuSans-67" transform="translate(375.886719 0)"/>
      <use xlink:href="#DejaVuSans-65" transform="translate(439.363281 0)"/>
      <use xlink:href="#DejaVuSans-20" transform="translate(500.886719 0)"/>
      <use xlink:href="#DejaVuSans-28" transform="translate(532.673828 0)"/>
      <use xlink:href="#DejaVuSans-63" transform="translate(571.6875 0)"/>
      <use xlink:href="#DejaVuSans-66" transform="translate(626.667969 0)"/>
      <use xlink:href="#DejaVuSans-73" transform="translate(661.873047 0)"/>
      <use xlink:href="#DejaVuSans-29" transform="translate(713.972656 0)"/>
     </g>
    </g>
   </g>
   <g id="line2d_20">
    <path d="M 46.965625 264.764279 
L 52.965625 264.764279 
L 58.965625 253.687356 
L 64.965625 242.610433 
L 70.965625 242.610433 
L 76.965625 231.53351 
L 82.965625 231.53351 
L 88.965625 209.379663 
L 94.965625 220.456587 
L 100.965625 209.379663 
L 106.965625 198.30274 
L 112.965625 220.456587 
L 118.965625 209.379663 
L 124.965625 187.225817 
L 130.965625 198.30274 
L 136.965625 176.148894 
L 142.965625 187.225817 
L 148.965625 187.225817 
L 154.965625 187.225817 
L 160.965625 187.225817 
L 166.965625 187.225817 
L 172.965625 187.225817 
L 178.965625 176.148894 
L 184.965625 176.148894 
L 190.965625 187.225817 
L 196.965625 176.148894 
L 202.965625 165.071971 
L 208.965625 153.995048 
L 214.965625 153.995048 
L 220.965625 153.995048 
L 226.965625 142.918125 
L 232.965625 142.918125 
L 238.965625 117.995048 
L 244.965625 117.995048 
L 250.965625 70.918125 
L 256.965625 81.995048 
L 262.965625 70.918125 
L 268.965625 81.995048 
L 274.965625 45.995048 
L 280.965625 45.995048 
L 286.965625 34.918125 
L 292.965625 45.995048 
L 298.965625 59.841202 
L 304.965625 59.841202 
L 310.965625 59.841202 
L 316.965625 45.995048 
L 322.965625 81.995048 
L 328.965625 70.918125 
L 334.965625 81.995048 
L 340.965625 81.995048 
L 346.965625 70.918125 
L 352.965625 81.995048 
L 358.965625 106.918125 
L 364.965625 106.918125 
L 370.965625 117.995048 
L 376.965625 129.071971 
L 382.965625 142.918125 
L 388.965625 142.918125 
L 394.965625 142.918125 
L 400.965625 153.995048 
L 406.965625 165.071971 
L 412.965625 153.995048 
L 418.965625 153.995048 
L 424.965625 165.071971 
L 430.965625 176.148894 
L 436.965625 176.148894 
L 442.965625 187.225817 
L 448.965625 187.225817 
L 454.965625 187.225817 
L 460.965625 187.225817 
L 466.965625 198.30274 
L 472.965625 209.379663 
L 478.965625 209.379663 
L 484.965625 209.379663 
L 490.965625 220.456587 
L 496.965625 209.379663 
L 502.965625 231.53351 
L 508.965625 209.379663 
L 514.965625 231.53351 
L 520.965625 220.456587 
L 526.965625 220.456587 
L 532.965625 231.53351 
L 538.965625 242.610433 
L 544.965625 242.610433 
L 550.965625 242.610433 
L 556.965625 253.687356 
L 562.965625 253.687356 
L 568.965625 264.764279 
L 574.965625 253.687356 
L 580.965625 264.764279 
L 586.965625 264.764279 
L 592.965625 275.841202 
L 598.965625 286.918125 
L 604.965625 286.918125 
" clip-path="url(#p9969a6d168)" style="fill: none; stroke: #2ca02c; stroke-width: 1.5; stroke-linecap: square"/>
    <defs>
     <path id="m44e3a2a7ac" d="M 0 3 
C 0.795609 3 1.55874 2.683901 2.12132 2.12132 
C 2.683901 1.55874 3 0.795609 3 0 
C 3 -0.795609 2.683901 -1.55874 2.12132 -2.12132 
C 1.55874 -2.683901 0.795609 -3 0 -3 
C -0.795609 -3 -1.55874 -2.683901 -2.12132 -2.12132 
C -2.683901 -1.55874 -3 -0.795609 -3 0 
C -3 0.795609 -2.683901 1.55874 -2.12132 2.12132 
C -1.55874 2.683901 -0.795609 3 0 3 
z
" style="stroke: #2ca02c"/>
    </defs>
    <g clip-path="url(#p9969a6d168)">
     <use xlink:href="#m44e3a2a7ac" x="46.965625" y="264.764279" style="fill: #2ca02c; stroke: #2ca02c"/>
     <use xlink:href="#m44e3a2a7ac" x="52.965625" y="264.764279" style="fill: #2ca02c; stroke: #2ca02c"/>
     <use xlink:href="#m44e3a2a7ac" x="58.965625" y="253.687356" style="fill: #2ca02c; stroke: #2ca02c"/>
     <use xlink:href="#m44e3a2a7ac" x="64.965625" y="242.610433" style="fill: #2ca02c; stroke: #2ca02c"/>
     <use xlink:href="#m44e3a2a7ac" x="70.965625" y="242.610433" style="fill: #2ca02c; stroke: #2ca02c"/>
     <use xlink:href="#m44e3a2a7ac" x="76.965625" y="231.53351" style="fill: #2ca02c; stroke: #2ca02c"/>
     <use xlink:href="#m44e3a2a7ac" x="82.965625" y="231.53351" style="fill: #2ca02c; stroke: #2ca02c"/>
     <use xlink:href="#m44e3a2a7ac" x="88.965625" y="209.379663" style="fill: #2ca02c; stroke: #2ca02c"/>
     <use xlink:href="#m44e3a2a7ac" x="94.965625" y="220.456587" style="fill: #2ca02c; stroke: #2ca02c"/>
     <use xlink:href="#m44e3a2a7ac" x="100.965625" y="209.379663" style="fill: #2ca02c; stroke: #2ca02c"/>
     <use xlink:href="#m44e3a2a7ac" x="106.965625" y="198.30274" style="fill: #2ca02c; stroke: #2ca02c"/>
     <use xlink:href="#m44e3a2a7ac" x="112.965625" y="220.456587" style="fill: #2ca02c; stroke: #2ca02c"/>
     <use xlink:href="#m44e3a2a7ac" x="118.965625" y="209.379663" style="fill: #2ca02c; stroke: #2ca02c"/>
     <use xlink:href="#m44e3a2a7ac" x="124.965625" y="187.225817" style="fill: #2ca02c; stroke: #2ca02c"/>
     <use xlink:href="#m44e3a2a7ac" x="130.965625" y="198.30274" style="fill: #2ca02c; stroke: #2ca02c"/>
     <use xlink:href="#m44e3a2a7ac" x="136.965625" y="176.148894" style="fill: #2ca02c; stroke: #2ca02c"/>
     <use xlink:href="#m44e3a2a7ac" x="142.965625" y="187.225817" style="fill: #2ca02c; stroke: #2ca02c"/>
     <use xlink:href="#m44e3a2a7ac" x="148.965625" y="187.225817" style="fill: #2ca02c; stroke: #2ca02c"/>
     <use xlink:href="#m44e3a2a7ac" x="154.965625" y="187.225817" style="fill: #2ca02c; stroke: #2ca02c"/>
     <use xlink:href="#m44e3a2a7ac" x="160.965625" y="187.225817" style="fill: #2ca02c; stroke: #2ca02c"/>
     <use xlink:href="#m44e3a2a7ac" x="166.965625" y="187.225817" style="fill: #2ca02c; stroke: #2ca02c"/>
     <use xlink:href="#m44e3a2a7ac" x="172.965625" y="187.225817" style="fill: #2ca02c; stroke: #2ca02c"/>
     <use xlink:href="#m44e3a2a7ac" x="178.965625" y="176.148894" style="fill: #2ca02c; stroke: #2ca02c"/>
     <use xlink:href="#m44e3a2a7ac" x="184.965625" y="176.148894" style="fill: #2ca02c; stroke: #2ca02c"/>
     <use xlink:href="#m44e3a2a7ac" x="190.965625" y="187.225817" style="fill: #2ca02c; stroke: #2ca02c"/>
     <use xlink:href="#m44e3a2a7ac" x="196.965625" y="176.148894" style="fill: #2ca02c; stroke: #2ca02c"/>
     <use xlink:href="#m44e3a2a7ac" x="202.965625" y="165.071971" style="fill: #2ca02c; stroke: #2ca02c"/>
     <use xlink:href="#m44e3a2a7ac" x="208.965625" y="153.995048" style="fill: #2ca02c; stroke: #2ca02c"/>
     <use xlink:href="#m44e3a2a7ac" x="214.965625" y="153.995048" style="fill: #2ca02c; stroke: #2ca02c"/>
     <use xlink:href="#m44e3a2a7ac" x="220.965625" y="153.995048" style="fill: #2ca02c; stroke: #2ca02c"/>
     <use xlink:href="#m44e3a2a7ac" x="226.965625" y="142.918125" style="fill: #2ca02c; stroke: #2ca02c"/>
     <use xlink:href="#m44e3a2a7ac" x="232.965625" y="142.918125" style="fill: #2ca02c; stroke: #2ca02c"/>
     <use xlink:href="#m44e3a2a7ac" x="238.965625" y="117.995048" style="fill: #2ca02c; stroke: #2ca02c"/>
     <use xlink:href="#m44e3a2a7ac" x="244.965625" y="117.995048" style="fill: #2ca02c; stroke: #2ca02c"/>
     <use xlink:href="#m44e3a2a7ac" x="250.965625" y="70.918125" style="fill: #2ca02c; stroke: #2ca02c"/>
     <use xlink:href="#m44e3a2a7ac" x="256.965625" y="81.995048" style="fill: #2ca02c; stroke: #2ca02c"/>
     <use xlink:href="#m44e3a2a7ac" x="262.965625" y="70.918125" style="fill: #2ca02c; stroke: #2ca02c"/>
     <use xlink:href="#m44e3a2a7ac" x="268.965625" y="81.995048" style="fill: #2ca02c; stroke: #2ca02c"/>
     <use xlink:href="#m44e3a2a7ac" x="274.965625" y="45.995048" style="fill: #2ca02c; stroke: #2ca02c"/>
     <use xlink:href="#m44e3a2a7ac" x="280.965625" y="45.995048" style="fill: #2ca02c; stroke: #2ca02c"/>
     <use xlink:href="#m44e3a2a7ac" x="286.965625" y="34.918125" style="fill: #2ca02c; stroke: #2ca02c"/>
     <use xlink:href="#m44e3a2a7ac" x="292.965625" y="45.995048" style="fill: #2ca02c; stroke: #2ca02c"/>
     <use xlink:href="#m44e3a2a7ac" x="298.965625" y="59.841202" style="fill: #2ca02c; stroke: #2ca02c"/>
     <use xlink:href="#m44e3a2a7ac" x="304.965625" y="59.841202" style="fill: #2ca02c; stroke: #2ca02c"/>
     <use xlink:href="#m44e3a2a7ac" x="310.965625" y="59.841202" style="fill: #2ca02c; stroke: #2ca02c"/>
     <use xlink:href="#m44e3a2a7ac" x="316.965625" y="45.995048" style="fill: #2ca02c; stroke: #2ca02c"/>
     <use xlink:href="#m44e3a2a7ac" x="322.965625" y="81.995048" style="fill: #2ca02c; stroke: #2ca02c"/>
     <use xlink:href="#m44e3a2a7ac" x="328.965625" y="70.918125" style="fill: #2ca02c; stroke: #2ca02c"/>
     <use xlink:href="#m44e3a2a7ac" x="334.965625" y="81.995048" style="fill: #2ca02c; stroke: #2ca02c"/>
     <use xlink:href="#m44e3a2a7ac" x="340.965625" y="81.995048" style="fill: #2ca02c; stroke: #2ca02c"/>
     <use xlink:href="#m44e3a2a7ac" x="346.965625" y="70.918125" style="fill: #2ca02c; stroke: #2ca02c"/>
     <use xlink:href="#m44e3a2a7ac" x="352.965625" y="81.995048" style="fill: #2ca02c; stroke: #2ca02c"/>
     <use xlink:href="#m44e3a2a7ac" x="358.965625" y="106.918125" style="fill: #2ca02c; stroke: #2ca02c"/>
     <use xlink:href="#m44e3a2a7ac" x="364.965625" y="106.918125" style="fill: #2ca02c; stroke: #2ca02c"/>
     <use xlink:href="#m44e3a2a7ac" x="370.965625" y="117.995048" style="fill: #2ca02c; stroke: #2ca02c"/>
     <use xlink:href="#m44e3a2a7ac" x="376.965625" y="129.071971" style="fill: #2ca02c; stroke: #2ca02c"/>
     <use xlink:href="#m44e3a2a7ac" x="382.965625" y="142.918125" style="fill: #2ca02c; stroke: #2ca02c"/>
     <use xlink:href="#m44e3a2a7ac" x="388.965625" y="142.918125" style="fill: #2ca02c; stroke: #2ca02c"/>
     <use xlink:href="#m44e3a2a7ac" x="394.965625" y="142.918125" style="fill: #2ca02c; stroke: #2ca02c"/>
     <use xlink:href="#m44e3a2a7ac" x="400.965625" y="153.995048" style="fill: #2ca02c; stroke: #2ca02c"/>
     <use xlink:href="#m44e3a2a7ac" x="406.965625" y="165.071971" style="fill: #2ca02c; stroke: #2ca02c"/>
     <use xlink:href="#m44e3a2a7ac" x="412.965625" y="153.995048" style="fill: #2ca02c; stroke: #2ca02c"/>
     <use xlink:href="#m44e3a2a7ac" x="418.965625" y="153.995048" style="fill: #2ca02c; stroke: #2ca02c"/>
     <use xlink:href="#m44e3a2a7ac" x="424.965625" y="165.071971" style="fill: #2ca02c; stroke: #2ca02c"/>
     <use xlink:href="#m44e3a2a7ac" x="430.965625" y="176.148894" style="fill: #2ca02c; stroke: #2ca02c"/>
     <use xlink:href="#m44e3a2a7ac" x="436.965625" y="176.148894" style="fill: #2ca02c; stroke: #2ca02c"/>
     <use xlink:href="#m44e3a2a7ac" x="442.965625" y="187.225817" style="fill: #2ca02c; stroke: #2ca02c"/>
     <use xlink:href="#m44e3a2a7ac" x="448.965625" y="187.225817" style="fill: #2ca02c; stroke: #2ca02c"/>
     <use xlink:href="#m44e3a2a7ac" x="454.965625" y="187.225817" style="fill: #2ca02c; stroke: #2ca02c"/>
     <use xlink:href="#m44e3a2a7ac" x="460.965625" y="187.225817" style="fill: #2ca02c; stroke: #2ca02c"/>
     <use xlink:href="#m44e3a2a7ac" x="466.965625" y="198.30274" style="fill: #2ca02c; stroke: #2ca02c"/>
     <use xlink:href="#m44e3a2a7ac" x="472.965625" y="209.379663" style="fill: #2ca02c; stroke: #2ca02c"/>
     <use xlink:href="#m44e3a2a7ac" x="478.965625" y="209.379663" style="fill: #2ca02c; stroke: #2ca02c"/>
     <use xlink:href="#m44e3a2a7ac" x="484.965625" y="209.379663" style="fill: #2ca02c; stroke: #2ca02c"/>
     <use xlink:href="#m44e3a2a7ac" x="490.965625" y="220.456587" style="fill: #2ca02c; stroke: #2ca02c"/>
     <use xlink:href="#m44e3a2a7ac" x="496.965625" y="209.379663" style="fill: #2ca02c; stroke: #2ca02c"/>
     <use xlink:href="#m44e3a2a7ac" x="502.965625" y="231.53351" style="fill: #2ca02c; stroke: #2ca02c"/>
     <use xlink:href="#m44e3a2a7ac" x="508.965625" y="209.379663" style="fill: #2ca02c; stroke: #2ca02c"/>
     <use xlink:href="#m44e3a2a7ac" x="514.965625" y="231.53351" style="fill: #2ca02c; stroke: #2ca02c"/>
     <use xlink:href="#m44e3a2a7ac" x="520.965625" y="220.456587" style="fill: #2ca02c; stroke: #2ca02c"/>
     <use xlink:href="#m44e3a2a7ac" x="526.965625" y="220.456587" style="fill: #2ca02c; stroke: #2ca02c"/>
     <use xlink:href="#m44e3a2a7ac" x="532.965625" y="231.53351" style="fill: #2ca02c; stroke: #2ca02c"/>
     <use xlink:href="#m44e3a2a7ac" x="538.965625" y="242.610433" style="fill: #2ca02c; stroke: #2ca02c"/>
     <use xlink:href="#m44e3a2a7ac" x="544.965625" y="242.610433" style="fill: #2ca02c; stroke: #2ca02c"/>
     <use xlink:href="#m44e3a2a7ac" x="550.965625" y="242.610433" style="fill: #2ca02c; stroke: #2ca02c"/>
     <use xlink:href="#m44e3a2a7ac" x="556.965625" y="253.687356" style="fill: #2ca02c; stroke: #2ca02c"/>
     <use xlink:href="#m44e3a2a7ac" x="562.965625" y="253.687356" style="fill: #2ca02c; stroke: #2ca02c"/>
     <use xlink:href="#m44e3a2a7ac" x="568.965625" y="264.764279" style="fill: #2ca02c; stroke: #2ca02c"/>
     <use xlink:href="#m44e3a2a7ac" x="574.965625" y="253.687356" style="fill: #2ca02c; stroke: #2ca02c"/>
     <use xlink:href="#m44e3a2a7ac" x="580.965625" y="264.764279" style="fill: #2ca02c; stroke: #2ca02c"/>
     <use xlink:href="#m44e3a2a7ac" x="586.965625" y="264.764279" style="fill: #2ca02c; stroke: #2ca02c"/>
     <use xlink:href="#m44e3a2a7ac" x="592.965625" y="275.841202" style="fill: #2ca02c; stroke: #2ca02c"/>
     <use xlink:href="#m44e3a2a7ac" x="598.965625" y="286.918125" style="fill: #2ca02c; stroke: #2ca02c"/>
     <use xlink:href="#m44e3a2a7ac" x="604.965625" y="286.918125" style="fill: #2ca02c; stroke: #2ca02c"/>
    </g>
   </g>
   <g id="patch_3">
    <path d="M 46.965625 299.518125 
L 46.965625 22.318125 
" style="fill: none; stroke: #000000; stroke-width: 0.8; stroke-linejoin: miter; stroke-linecap: square"/>
   </g>
   <g id="patch_4">
    <path d="M 604.965625 299.518125 
L 604.965625 22.318125 
" style="fill: none; stroke: #000000; stroke-width: 0.8; stroke-linejoin: miter; stroke-linecap: square"/>
   </g>
   <g id="patch_5">
    <path d="M 46.965625 299.518125 
L 604.965625 299.518125 
" style="fill: none; stroke: #000000; stroke-width: 0.8; stroke-linejoin: miter; stroke-linecap: square"/>
   </g>
   <g id="patch_6">
    <path d="M 46.965625 22.318125 
L 604.965625 22.318125 
" style="fill: none; stroke: #000000; stroke-width: 0.8; stroke-linejoin: miter; stroke-linecap: square"/>
   </g>
   <g id="text_15">
    <!-- Canyon_Creek_WA USGS Streamflow at Canyon Creek Near Amboy, WA (Site 14219000) — local time -->
    <g transform="translate(21.375625 16.318125) scale(0.12 -0.12)">
     <defs>
      <path id="DejaVuSans-43" d="M 4122 4306 
L 4122 3641 
Q 3803 3938 3442 4084 
Q 3081 4231 2675 4231 
Q 1875 4231 1450 3742 
Q 1025 3253 1025 2328 
Q 1025 1406 1450 917 
Q 1875 428 2675 428 
Q 3081 428 3442 575 
Q 3803 722 4122 1019 
L 4122 359 
Q 3791 134 3420 21 
Q 3050 -91 2638 -91 
Q 1578 -91 968 557 
Q 359 1206 359 2328 
Q 359 3453 968 4101 
Q 1578 4750 2638 4750 
Q 3056 4750 3426 4639 
Q 3797 4528 4122 4306 
z
" transform="scale(0.015625)"/>
      <path id="DejaVuSans-6e" d="M 3513 2113 
L 3513 0 
L 2938 0 
L 2938 2094 
Q 2938 2591 2744 2837 
Q 2550 3084 2163 3084 
Q 1697 3084 1428 2787 
Q 1159 2491 1159 1978 
L 1159 0 
L 581 0 
L 581 3500 
L 1159 3500 
L 1159 2956 
Q 1366 3272 1645 3428 
Q 1925 3584 2291 3584 
Q 2894 3584 3203 3211 
Q 3513 2838 3513 2113 
z
" transform="scale(0.015625)"/>
      <path id="DejaVuSans-79" d="M 2059 -325 
Q 1816 -950 1584 -1140 
Q 1353 -1331 966 -1331 
L 506 -1331 
L 506 -850 
L 844 -850 
Q 1081 -850 1212 -737 
Q 1344 -625 1503 -206 
L 1606 56 
L 191 3500 
L 800 3500 
L 1894 763 
L 2988 3500 
L 3597 3500 
L 2059 -325 
z
" transform="scale(0.015625)"/>
      <path id="DejaVuSans-5f" d="M 3263 -1063 
L 3263 -1509 
L -63 -1509 
L -63 -1063 
L 3263 -1063 
z
" transform="scale(0.015625)"/>
      <path id="DejaVuSans-6b" d="M 581 4863 
L 1159 4863 
L 1159 1991 
L 2875 3500 
L 3609 3500 
L 1753 1863 
L 3688 0 
L 2938 0 
L 1159 1709 
L 1159 0 
L 581 0 
L 581 4863 
z
" transform="scale(0.015625)"/>
      <path id="DejaVuSans-57" d="M 213 4666 
L 850 4666 
L 1831 722 
L 2809 4666 
L 3519 4666 
L 4500 722 
L 5478 4666 
L 6119 4666 
L 4947 0 
L 4153 0 
L 3169 4050 
L 2175 0 
L 1381 0 
L 213 4666 
z
" transform="scale(0.015625)"/>
      <path id="DejaVuSans-41" d="M 2188 4044 
L 1331 1722 
L 3047 1722 
L 2188 4044 
z
M 1831 4666 
L 2547 4666 
L 4325 0 
L 3669 0 
L 3244 1197 
L 1141 1197 
L 716 0 
L 50 0 
L 1831 4666 
z
" transform="scale(0.015625)"/>
      <path id="DejaVuSans-55" d="M 556 4666 
L 1191 4666 
L 1191 1831 
Q 1191 1081 1462 751 
Q 1734 422 2344 422 
Q 2950 422 3222 751 
Q 3494 1081 3494 1831 
L 3494 4666 
L 4128 4666 
L 4128 1753 
Q 4128 841 3676 375 
Q 3225 -91 2344 -91 
Q 1459 -91 1007 375 
Q 556 841 556 1753 
L 556 4666 
z
" transform="scale(0.015625)"/>
      <path id="DejaVuSans-53" d="M 3425 4513 
L 3425 3897 
Q 3066 4069 2747 4153 
Q 2428 4238 2131 4238 
Q 1616 4238 1336 4038 
Q 1056 3838 1056 3469 
Q 1056 3159 1242 3001 
Q 1428 2844 1947 2747 
L 2328 2669 
Q 3034 2534 3370 2195 
Q 3706 1856 3706 1288 
Q 3706 609 3251 259 
Q 2797 -91 1919 -91 
Q 1588 -91 1214 -16 
Q 841 59 441 206 
L 441 856 
Q 825 641 1194 531 
Q 1563 422 1919 422 
Q 2459 422 2753 634 
Q 3047 847 3047 1241 
Q 3047 1584 2836 1778 
Q 2625 1972 2144 2069 
L 1759 2144 
Q 1053 2284 737 2584 
Q 422 2884 422 3419 
Q 422 4038 858 4394 
Q 1294 4750 2059 4750 
Q 2388 4750 2728 4690 
Q 3069 4631 3425 4513 
z
" transform="scale(0.015625)"/>
      <path id="DejaVuSans-47" d="M 3809 666 
L 3809 1919 
L 2778 1919 
L 2778 2438 
L 4434 2438 
L 4434 434 
Q 4069 175 3628 42 
Q 3188 -91 2688 -91 
Q 1594 -91 976 548 
Q 359 1188 359 2328 
Q 359 3472 976 4111 
Q 1594 4750 2688 4750 
Q 3144 4750 3555 4637 
Q 3966 4525 4313 4306 
L 4313 3634 
Q 3963 3931 3569 4081 
Q 3175 4231 2741 4231 
Q 1884 4231 1454 3753 
Q 1025 3275 1025 2328 
Q 1025 1384 1454 906 
Q 1884 428 2741 428 
Q 3075 428 3337 486 
Q 3600 544 3809 666 
z
" transform="scale(0.015625)"/>
      <path id="DejaVuSans-77" d="M 269 3500 
L 844 3500 
L 1563 769 
L 2278 3500 
L 2956 3500 
L 3675 769 
L 4391 3500 
L 4966 3500 
L 4050 0 
L 3372 0 
L 2619 2869 
L 1863 0 
L 1184 0 
L 269 3500 
z
" transform="scale(0.015625)"/>
      <path id="DejaVuSans-62" d="M 3116 1747 
Q 3116 2381 2855 2742 
Q 2594 3103 2138 3103 
Q 1681 3103 1420 2742 
Q 1159 2381 1159 1747 
Q 1159 1113 1420 752 
Q 1681 391 2138 391 
Q 2594 391 2855 752 
Q 3116 1113 3116 1747 
z
M 1159 2969 
Q 1341 3281 1617 3432 
Q 1894 3584 2278 3584 
Q 2916 3584 3314 3078 
Q 3713 2572 3713 1747 
Q 3713 922 3314 415 
Q 2916 -91 2278 -91 
Q 1894 -91 1617 61 
Q 1341 213 1159 525 
L 1159 0 
L 581 0 
L 581 4863 
L 1159 4863 
L 1159 2969 
z
" transform="scale(0.015625)"/>
      <path id="DejaVuSans-2c" d="M 750 794 
L 1409 794 
L 1409 256 
L 897 -744 
L 494 -744 
L 750 256 
L 750 794 
z
" transform="scale(0.015625)"/>
      <path id="DejaVuSans-2014" d="M 313 1978 
L 6088 1978 
L 6088 1528 
L 313 1528 
L 313 1978 
z
" transform="scale(0.015625)"/>
     </defs>
     <use xlink:href="#DejaVuSans-43"/>
     <use xlink:href="#DejaVuSans-61" transform="translate(69.824219 0)"/>
     <use xlink:href="#DejaVuSans-6e" transform="translate(131.103516 0)"/>
     <use xlink:href="#DejaVuSans-79" transform="translate(194.482422 0)"/>
     <use xlink:href="#DejaVuSans-6f" transform="translate(253.662109 0)"/>
     <use xlink:href="#DejaVuSans-6e" transform="translate(314.84375 0)"/>
     <use xlink:href="#DejaVuSans-5f" transform="translate(378.222656 0)"/>
     <use xlink:href="#DejaVuSans-43" transform="translate(428.222656 0)"/>
     <use xlink:href="#DejaVuSans-72" transform="translate(498.046875 0)"/>
     <use xlink:href="#DejaVuSans-65" transform="translate(536.910156 0)"/>
     <use xlink:href="#DejaVuSans-65" transform="translate(598.433594 0)"/>
     <use xlink:href="#DejaVuSans-6b" transform="translate(659.957031 0)"/>
     <use xlink:href="#DejaVuSans-5f" transform="translate(717.867188 0)"/>
     <use xlink:href="#DejaVuSans-57" transform="translate(767.867188 0)"/>
     <use xlink:href="#DejaVuSans-41" transform="translate(861.244141 0)"/>
     <use xlink:href="#DejaVuSans-20" transform="translate(929.652344 0)"/>
     <use xlink:href="#DejaVuSans-55" transform="translate(961.439453 0)"/>
     <use xlink:href="#DejaVuSans-53" transform="translate(1034.632812 0)"/>
     <use xlink:href="#DejaVuSans-47" transform="translate(1098.109375 0)"/>
     <use xlink:href="#DejaVuSans-53" transform="translate(1175.599609 0)"/>
     <use xlink:href="#DejaVuSans-20" transform="translate(1239.076172 0)"/>
     <use xlink:href="#DejaVuSans-53" transform="translate(1270.863281 0)"/>
     <use xlink:href="#DejaVuSans-74" transform="translate(1334.339844 0)"/>
     <use xlink:href="#DejaVuSans-72" transform="translate(1373.548828 0)"/>
     <use xlink:href="#DejaVuSans-65" transform="translate(1412.412109 0)"/>
     <use xlink:href="#DejaVuSans-61" transform="translate(1473.935547 0)"/>
     <use xlink:href="#DejaVuSans-6d" transform="translate(1535.214844 0)"/>
     <use xlink:href="#DejaVuSans-66" transform="translate(1632.626953 0)"/>
     <use xlink:href="#DejaVuSans-6c" transform="translate(1667.832031 0)"/>
     <use xlink:href="#DejaVuSans-6f" transform="translate(1695.615234 0)"/>
     <use xlink:href="#DejaVuSans-77" transform="translate(1756.796875 0)"/>
     <use xlink:href="#DejaVuSans-20" transform="translate(1838.583984 0)"/>
     <use xlink:href="#DejaVuSans-61" transform="translate(1870.371094 0)"/>
     <use xlink:href="#DejaVuSans-74" transform="translate(1931.650391 0)"/>
     <use xlink:href="#DejaVuSans-20" transform="translate(1970.859375 0)"/>
     <use xlink:href="#DejaVuSans-43" transform="translate(2002.646484 0)"/>
     <use xlink:href="#DejaVuSans-61" transform="translate(2072.470703 0)"/>
     <use xlink:href="#DejaVuSans-6e" transform="translate(2133.75 0)"/>
     <use xlink:href="#DejaVuSans-79" transform="translate(2197.128906 0)"/>
     <use xlink:href="#DejaVuSans-6f" transform="translate(2256.308594 0)"/>
     <use xlink:href="#DejaVuSans-6e" transform="translate(2317.490234 0)"/>
     <use xlink:href="#DejaVuSans-20" transform="translate(2380.869141 0)"/>
     <use xlink:href="#DejaVuSans-43" transform="translate(2412.65625 0)"/>
     <use xlink:href="#DejaVuSans-72" transform="translate(2482.480469 0)"/>
     <use xlink:href="#DejaVuSans-65" transform="translate(2521.34375 0)"/>
     <use xlink:href="#DejaVuSans-65" transform="translate(2582.867188 0)"/>
     <use xlink:href="#DejaVuSans-6b" transform="translate(2644.390625 0)"/>
     <use xlink:href="#DejaVuSans-20" transform="translate(2702.300781 0)"/>
     <use xlink:href="#DejaVuSans-4e" transform="translate(2734.087891 0)"/>
     <use xlink:href="#DejaVuSans-65" transform="translate(2808.892578 0)"/>
     <use xlink:href="#DejaVuSans-61" transform="translate(2870.416016 0)"/>
     <use xlink:href="#DejaVuSans-72" transform="translate(2931.695312 0)"/>
     <use xlink:href="#DejaVuSans-20" transform="translate(2972.808594 0)"/>
     <use xlink:href="#DejaVuSans-41" transform="translate(3004.595703 0)"/>
     <use xlink:href="#DejaVuSans-6d" transform="translate(3073.003906 0)"/>
     <use xlink:href="#DejaVuSans-62" transform="translate(3170.416016 0)"/>
     <use xlink:href="#DejaVuSans-6f" transform="translate(3233.892578 0)"/>
     <use xlink:href="#DejaVuSans-79" transform="translate(3295.074219 0)"/>
     <use xlink:href="#DejaVuSans-2c" transform="translate(3354.253906 0)"/>
     <use xlink:href="#DejaVuSans-20" transform="translate(3386.041016 0)"/>
     <use xlink:href="#DejaVuSans-57" transform="translate(3417.828125 0)"/>
     <use xlink:href="#DejaVuSans-41" transform="translate(3511.205078 0)"/>
     <use xlink:href="#DejaVuSans-20" transform="translate(3579.613281 0)"/>
     <use xlink:href="#DejaVuSans-28" transform="translate(3611.400391 0)"/>
     <use xlink:href="#DejaVuSans-53" transform="translate(3650.414062 0)"/>
     <use xlink:href="#DejaVuSans-69" transform="translate(3713.890625 0)"/>
     <use xlink:href="#DejaVuSans-74" transform="translate(3741.673828 0)"/>
     <use xlink:href="#DejaVuSans-65" transform="translate(3780.882812 0)"/>
     <use xlink:href="#DejaVuSans-20" transform="translate(3842.40625 0)"/>
     <use xlink:href="#DejaVuSans-31" transform="translate(3874.193359 0)"/>
     <use xlink:href="#DejaVuSans-34" transform="translate(3937.816406 0)"/>
     <use xlink:href="#DejaVuSans-32" transform="translate(4001.439453 0)"/>
     <use xlink:href="#DejaVuSans-31" transform="translate(4065.0625 0)"/>
     <use xlink:href="#DejaVuSans-39" transform="translate(4128.685547 0)"/>
     <use xlink:href="#DejaVuSans-30" transform="translate(4192.308594 0)"/>
     <use xlink:href="#DejaVuSans-30" transform="translate(4255.931641 0)"/>
     <use xlink:href="#DejaVuSans-30" transform="translate(4319.554688 0)"/>
     <use xlink:href="#DejaVuSans-29" transform="translate(4383.177734 0)"/>
     <use xlink:href="#DejaVuSans-20" transform="translate(4422.191406 0)"/>
     <use xlink:href="#DejaVuSans-2014" transform="translate(4453.978516 0)"/>
     <use xlink:href="#DejaVuSans-20" transform="translate(4553.978516 0)"/>
     <use xlink:href="#DejaVuSans-6c" transform="translate(4585.765625 0)"/>
     <use xlink:href="#DejaVuSans-6f" transform="translate(4613.548828 0)"/>
     <use xlink:href="#DejaVuSans-63" transform="translate(4674.730469 0)"/>
     <use xlink:href="#DejaVuSans-61" transform="translate(4729.710938 0)"/>
     <use xlink:href="#DejaVuSans-6c" transform="translate(4790.990234 0)"/>
     <use xlink:href="#DejaVuSans-20" transform="translate(4818.773438 0)"/>
     <use xlink:href="#DejaVuSans-74" transform="translate(4850.560547 0)"/>
     <use xlink:href="#DejaVuSans-69" transform="translate(4889.769531 0)"/>
     <use xlink:href="#DejaVuSans-6d" transform="translate(4917.552734 0)"/>
     <use xlink:href="#DejaVuSans-65" transform="translate(5014.964844 0)"/>
    </g>
   </g>
   <g id="legend_1">
    <g id="patch_7">
     <path d="M 490.667188 44.99625 
L 597.965625 44.99625 
Q 599.965625 44.99625 599.965625 42.99625 
L 599.965625 29.318125 
Q 599.965625 27.318125 597.965625 27.318125 
L 490.667188 27.318125 
Q 488.667188 27.318125 488.667188 29.318125 
L 488.667188 42.99625 
Q 488.667188 44.99625 490.667188 44.99625 
z
" style="fill: #ffffff; opacity: 0.8; stroke: #cccccc; stroke-linejoin: miter"/>
    </g>
    <g id="line2d_21">
     <path d="M 492.667188 35.416563 
L 502.667188 35.416563 
L 512.667187 35.416563 
" style="fill: none; stroke: #2ca02c; stroke-width: 1.5; stroke-linecap: square"/>
     <g>
      <use xlink:href="#m44e3a2a7ac" x="502.667188" y="35.416563" style="fill: #2ca02c; stroke: #2ca02c"/>
     </g>
    </g>
    <g id="text_16">
     <!-- Discharge (cfs) -->
     <g transform="translate(520.667187 38.916563) scale(0.1 -0.1)">
      <use xlink:href="#DejaVuSans-44"/>
      <use xlink:href="#DejaVuSans-69" transform="translate(77.001953 0)"/>
      <use xlink:href="#DejaVuSans-73" transform="translate(104.785156 0)"/>
      <use xlink:href="#DejaVuSans-63" transform="translate(156.884766 0)"/>
      <use xlink:href="#DejaVuSans-68" transform="translate(211.865234 0)"/>
      <use xlink:href="#DejaVuSans-61" transform="translate(275.244141 0)"/>
      <use xlink:href="#DejaVuSans-72" transform="translate(336.523438 0)"/>
      <use xlink:href="#DejaVuSans-67" transform="translate(375.886719 0)"/>
      <use xlink:href="#DejaVuSans-65" transform="translate(439.363281 0)"/>
      <use xlink:href="#DejaVuSans-20" transform="translate(500.886719 0)"/>
      <use xlink:href="#DejaVuSans-28" transform="translate(532.673828 0)"/>
      <use xlink:href="#DejaVuSans-63" transform="translate(571.6875 0)"/>
      <use xlink:href="#DejaVuSans-66" transform="translate(626.667969 0)"/>
      <use xlink:href="#DejaVuSans-73" transform="translate(661.873047 0)"/>
      <use xlink:href="#DejaVuSans-29" transform="translate(713.972656 0)"/>
     </g>
    </g>
   </g>
  </g>
 </g>
 <defs>
  <clipPath id="p9969a6d168">
   <rect x="46.965625" y="22.318125" width="558" height="277.2"/>
  </clipPath>
 </defs>
</svg>
